<svg width="572" height="430" viewBox="0 0 572 430" fill="none" xmlns="http://www.w3.org/2000/svg">
<path d="M232.116 91.2562L96.1045 409.721C92.7446 417.588 100.173 425.768 108.326 423.18L312.278 358.441C320.41 355.86 327.057 349.94 330.559 342.16L475.277 20.6271C478.826 12.7431 471.373 4.3757 463.133 6.99144L250.629 74.445C242.305 77.0871 235.546 83.225 232.116 91.2562Z" fill="#252C37"/>
<path d="M212.705 218.194C210.321 243.116 199.236 293.176 170.539 322.543C169.971 323.125 169.075 323.215 168.4 322.764C139.719 303.593 120.164 271.973 113.691 228.934C113.462 227.415 115.191 226.342 116.497 227.132C122.526 230.778 130.68 234.103 138.605 236.731C134.001 152.237 226.694 98.3384 320.362 127.296C322.696 128.017 321.593 132.479 319.156 132.378C257.217 129.795 167.703 167.347 182.063 232.819C192.14 227.031 204.036 220.134 209.875 216.501C211.131 215.72 212.846 216.712 212.705 218.194Z" fill="#6B7072"/>
<path fill-rule="evenodd" clip-rule="evenodd" d="M438.943 178.431C437.647 176.296 436.446 174.318 435.915 172.912C435.713 172.377 435.41 171.48 435.015 170.309C432.402 162.567 425.746 142.848 417.386 136.675C413.927 133.774 411.387 130.384 408.892 127.053C407.826 125.631 406.768 124.219 405.651 122.862C403.012 118.809 400.412 114.815 396.746 111.547C395.545 110.476 393.763 109.728 391.953 108.969C389.929 108.12 387.869 107.256 386.546 105.907C382.662 101.95 379.411 98.6373 378.614 99.032C378.478 98.9646 378.123 99.2393 377.749 99.6547C377.486 99.5451 377.288 99.5078 377.216 99.5766C376.301 99.4375 374.115 103.747 371.504 108.896C370.614 110.651 368.841 112.159 367.098 113.64C365.541 114.965 364.007 116.269 363.151 117.71C360.539 122.107 359.213 126.887 357.867 131.737C357.184 133.436 356.578 135.169 355.967 136.915C354.537 141.005 353.081 145.167 350.559 149.135C346.391 154.877 346.881 163.211 347.24 169.324C347.511 173.948 347.708 177.302 345.759 177.302C344.359 177.302 343.515 185.878 342.924 191.889C342.67 194.466 342.463 196.572 342.278 197.329C341.688 199.751 342.124 201.777 342.482 203.44C342.832 205.064 343.107 206.341 342.278 207.302C339.259 210.802 346.485 209.636 346.485 209.636C346.485 209.636 347.759 206.802 350.323 206.232C351.332 206.008 351.906 206.076 352.292 206.122C352.889 206.192 353.041 206.21 353.658 205.021C354.319 203.747 355.145 203.168 355.993 202.575C356.615 202.139 357.248 201.695 357.836 200.963C358.688 199.899 359.278 199.782 360.098 199.619C360.408 199.557 360.75 199.489 361.152 199.361C364.223 198.383 365.998 197.818 366.636 195.978L368.655 195.322L371.366 197.672L371.272 200.883C370.191 204.873 371.247 207.743 372.207 210.35C373.226 213.12 374.137 215.594 372.258 218.802C371.756 219.659 368.791 226.086 366.935 230.108C366.107 231.905 365.5 233.221 365.431 233.348C365.317 233.563 364.472 234.533 363.235 235.956C359.651 240.078 352.767 247.994 350.758 252.302C350.252 253.386 349.751 254.579 349.23 255.821C346.394 262.582 342.945 270.802 334.758 270.802C325.953 270.802 311.758 281.802 304.296 288.018C300.41 291.255 297.172 292.184 294.457 292.964C292.458 293.537 290.742 294.03 289.258 295.302C288.439 296.003 285.837 296.183 283.355 296.354C281.779 296.463 280.251 296.568 279.258 296.802C278.405 297.002 276.79 297.691 274.952 298.475C271.485 299.954 267.221 301.773 265.758 301.302C264.053 300.753 261.534 301.43 259.082 302.09C256.487 302.787 253.969 303.464 252.57 302.647L252.55 302.641C252.55 302.641 245.373 301.893 241.243 303.279C241.243 303.279 240.558 304.488 241.489 306.036C241.484 306.267 241.497 306.51 241.531 306.765C241.875 309.354 247.031 309.765 247.031 309.765C249.157 309.366 254.038 310.8 259.545 312.417C267.262 314.683 276.209 317.311 280.531 315.765C283.262 314.788 288.057 314.914 291.464 315.004C293.527 315.059 295.081 315.1 295.362 314.875C297.597 313.083 322.462 305.399 329.031 310.222C332.486 312.759 347.999 300.861 360.821 291.027C368.252 285.328 374.779 280.322 377.531 279.222C379.932 278.261 381.764 275.973 383.926 273.274C386.265 270.353 388.99 266.949 393.242 264.222C396.416 262.185 404.759 251.518 404.759 249.802C404.759 247.569 411.956 235.548 415.773 229.173C417.084 226.984 417.996 225.46 418.082 225.227C420.355 223.759 421.993 218.392 422.833 215.64C423.012 215.055 423.154 214.588 423.259 214.302C423.72 213.044 423.315 211.907 422.809 210.487C422.291 209.033 421.667 207.282 421.759 204.802L417.971 185.48C419.023 185.802 420.407 185.802 422.259 185.802C422.664 185.802 422.997 185.764 423.298 185.73C424.096 185.64 424.67 185.576 425.759 186.302C426.509 186.802 427.217 187.023 427.913 187.241C428.861 187.538 429.785 187.827 430.759 188.802C431.455 189.498 432.151 189.548 432.897 189.601C433.759 189.663 434.687 189.73 435.759 190.802C437.759 192.802 440.259 192.802 440.259 192.802C440.259 192.802 442.262 193.022 443.432 189.434C444.198 187.086 441.4 182.476 438.943 178.431ZM254.786 306.577C258.098 308.496 266.179 309.274 268.038 308.83C270.531 308.235 283.19 308.235 285.809 308.235C287.858 308.235 289.042 306.689 290.144 305.248C290.506 304.776 290.859 304.315 291.231 303.923C293.57 304.61 296.872 304.203 301.465 303.637C303.875 303.34 306.641 302.999 309.809 302.75C314.226 302.402 322.166 298.699 330.226 294.94C338.967 290.864 347.848 286.722 352.531 286.722C357.686 286.722 361.107 282.633 364.435 278.655C367.586 274.888 370.653 271.222 375.031 271.222C380.841 271.222 389.852 259.937 392.521 256.595C392.893 256.129 393.143 255.817 393.242 255.712C393.326 255.623 393.804 254.832 394.523 253.642C397.191 249.224 403.184 239.302 404.759 239.302C410.325 239.302 411.473 231.3 412.405 224.807C412.964 220.907 413.446 217.552 414.759 216.802C416.674 215.707 416.078 210.87 415.455 205.813C414.939 201.628 414.404 197.292 415.259 194.802C416.765 190.414 414.289 188.149 412.039 186.092C410.043 184.266 408.225 182.603 409.526 179.765C410.45 177.749 416.759 179.302 416.759 179.302L416.763 179.324C417.387 179.496 417.656 179.953 417.884 180.337C418.233 180.928 418.481 181.349 419.759 180.302L426.259 182.302C426.361 182.201 427.566 183.086 428.704 183.922C429.73 184.675 430.701 185.387 430.759 185.302C430.608 184.53 430.77 184.579 431.012 184.652C431.237 184.72 431.532 184.809 431.706 184.275C432.446 182.005 433.297 179.396 429.08 171.768C427.03 168.059 425.742 167.367 424.737 166.827C423.953 166.405 423.341 166.077 422.675 164.477C422.236 163.424 420.453 161.432 418.409 159.148L418.408 159.148C415.512 155.912 416.627 153.57 417.568 151.591C417.802 151.099 418.025 150.63 418.174 150.175C418.918 147.893 412.259 133.802 406.259 129.802C405.251 128.823 405.023 127.891 404.77 126.856C404.491 125.715 404.181 124.45 402.759 122.862L398.259 118.802C397.665 118.138 396.384 117.499 395.085 116.851C393.759 116.19 392.413 115.519 391.759 114.802C391.158 114.143 390.559 113.91 389.834 113.629C388.955 113.288 387.893 112.875 386.424 111.547C385.096 110.346 384.105 109.498 383.335 108.84L383.334 108.839C380.889 106.747 380.674 106.563 378.97 103.042C378.666 103.115 378.339 103.079 378.219 102.993C377.549 107.672 377.475 107.792 375.612 110.787C375.055 111.683 374.337 112.837 373.396 114.447C372.355 116.228 371.43 116.973 370.665 117.588C370.034 118.096 369.512 118.517 369.123 119.36C368.699 120.277 367.574 121.367 366.466 122.442C365.38 123.495 364.309 124.533 363.928 125.378L360.737 130.824C359.824 132.847 359.915 134.199 359.996 135.418C360.07 136.523 360.136 137.519 359.443 138.808C354.744 144.668 350.584 153.879 351.868 158.802C352.112 159.74 351.833 160.587 351.496 161.61C350.964 163.222 350.289 165.271 351.297 168.802C351.868 170.802 351.867 173.802 350.559 175.802C349.627 177.226 350.049 178.729 350.349 179.801C350.463 180.205 350.559 180.548 350.559 180.802C350.559 181.496 350.574 182.002 350.587 182.424C350.629 183.822 350.643 184.287 349.975 187.61C348.185 196.502 349.849 198.818 351.297 200.834C351.637 201.308 351.902 201.127 352.104 200.989C352.321 200.84 352.467 200.74 352.559 201.552C352.644 201.619 353.383 200.605 354.165 199.535C355.032 198.347 355.95 197.089 356.083 197.157L361.906 193.121C363.554 193.775 364.401 192.542 365.409 191.076C366.277 189.813 367.264 188.377 368.985 187.822C369.695 186.431 372.047 182.564 375.758 183.802C378.308 184.652 377.826 187.17 377.34 189.703C376.969 191.639 376.596 193.585 377.574 194.802C379.265 196.904 379.511 202.395 377.574 204.376C377.595 205.152 376.151 229.155 372.772 233.009C372.414 233.417 372.044 234.18 371.6 235.093C370.873 236.591 369.948 238.493 368.56 239.904C365.566 242.944 364.255 246.168 363.13 248.935C362.091 251.492 361.21 253.659 359.305 254.93C357.352 256.233 353.441 259.848 348.786 264.151C339.265 272.952 326.63 284.63 321.258 285.302C313.057 286.327 296.615 298.676 295.173 300.55C294.991 300.786 293.515 301.097 291.556 301.511C288.32 302.195 283.767 303.156 281.558 304.513C278.064 306.658 268.688 306.611 260.601 306.57C258.539 306.56 256.561 306.55 254.786 306.577Z" fill="#E1213E"/>
</svg>
