<?xml version="1.0" encoding="utf-8"?>
<!-- Generator: Adobe Illustrator 17.1.0, SVG Export Plug-In . SVG Version: 6.00 Build 0)  -->
<!DOCTYPE svg PUBLIC "-//W3C//DTD SVG 1.1//EN" "http://www.w3.org/Graphics/SVG/1.1/DTD/svg11.dtd">
<svg version="1.1" id="Layer_1" xmlns="http://www.w3.org/2000/svg" xmlns:xlink="http://www.w3.org/1999/xlink" x="0px" y="0px"
	 viewBox="0 0 2000 1400" enable-background="new 0 0 2000 1400" xml:space="preserve">
<path fill="#212D3A" d="M942.2,85.9c0.4,1-0.2,2.7-0.7,3.4c-1.3,1.8-5.6,5.2-4.1,7.8c0.8,1.3,1,3.2,0.1,3.8
	c-3.2,2.3-10.8,9.3-9.1,10.4c1.5,1,2.1,3.8,2.1,3.8s-2.8,1.5,0.8,5c0.4,0.4,1.2,0.1,1.3,0.4c0.2,2.3,2.9,4.6,5,4.7
	c1.3,0.1,3.5-1.1,5.2-1c1.5,0.1,4.6,0.7,5.8,1.6c1.8,1.2,4.7,5.2,5.3,7.3c0.7,2.7-0.6,10.5-3.4,12.5c-5.1,3.6-14.8-1.1-21.9,0.7
	c-3.6,0.8-11.2,7-14.7,9.1c-16.5,9.2-52.7,23.4-70.1,25.6c-7.5,1-13.5,6.2-17.3,9.1c-3.8,2.8-11.4,8.1-14.2,11.9
	c-4,5.2-6.9,19.4-10.2,24.9c-4.1,6.8,4.2,21.9,5.3,19.4c2.3-5.1,4.4-5.1,5.5-4c2.8,2.8,9.3,7.8,9.9,11.6c0.8,5.2-9.8,14.3-8.7,19.2
	c1.9,8.7,15.6,24.5,19.6,33.2c0.6,1.5,1.8,6.1,1.8,6.1l30.8-7.2c0,0-1.5-2.4-1.7-3.3c-0.6-2.7,0.2-8.6,1.3-11
	c1.2-2.7,6.7-8.5,6.7-8.5s5.8-8.9,7.8-11.3c1.7-2.2,3.4-8.1,4.7-10.7c1.6-2.8,8.1-10.9,11.6-13.8c6.4-5.2,19.5-10.9,27.3-10.8
	c3,0.1,9.1,2.2,10.9,4.6c0.6,0.8,0.5,2.8,1,3.6c1.3,1.7,5.2,4.8,6.2,6.9c2.2,4.4,2.5,14.4,2.2,19.2c-0.2,2.2-1.2,6.8-0.2,8.9
	c0.8,1.6,4.2,3.4,5.9,4c1.3,0.5,5.5,1.6,5.5,1.6l16.2-5.1c0,0-3.3-4.1-4.2-6.3c-1.7-4.2-4.1-13.1-4.8-17.6c-0.2-1.6,0-5-0.4-6.5
	c-0.2-1.5-1.5-4.1-2.1-5.3c-1-1.7-2.8-5.1-3.2-6.9c-0.5-3,1.5-6.4,1.5-9.5c0.1-7.8,16.6-16.6,21-23.5c3.9-6.2,7.4-21.9,6.8-29.6
	c-0.1-2.1-1.9-5.9-2.3-8c-1-5.7,2.1-20.2,1.6-25.9c-0.5-5.3-4.8-13.3-6.1-17.9c-0.6-2.7-1-8.2-1.5-11c-0.7-3.8-2.9-12-3.8-15.5
	c0,0,1.1-2.9,1.6-3.9c2.1-3.5,7-9.3,5.1-15.3c-1-3.3-8.4,5.7-9.7,8.5c-0.4,0.8-2.7-1.7-2.5-2.5c0.4-6.1,10.1-17.3,13.6-23.2
	c6.7-11,19.5-20.4,28.1-26.1c5.7-3.8,20.6-11.2,28.2-12.1c6.4-0.8,15.3-3.3,25.5,4.6c2.9,2.3-1.6-9.1-8.6-12
	c-1.7-0.7-5.9-0.1-7.8-0.8c-1-0.5-2.2-2.1-3.6-2.5c-1-0.4-2.4-0.6-4,1.9c-0.6,1-2.2-2.2-3.4-2.2c-1.2,0-2.9,2.3-3.6,3
	c-0.4,0.4-2.3-2.5-3.4-2.3s-2.3,2.4-3.4,2.8c-1,0.2-2.8-1.1-3.6-0.8c-1.6,0.4-3,2.7-4.1,4.5c-0.5,0.7-1.7-2.1-2.7-1.9
	c-1.5,0.1-3.5,2.3-4.4,4c-0.2,0.6-1.8-1.6-2.7-1c-1.5,1.1-4.4,3.4-4.8,5.1c-0.1,0.5-2.1-0.1-2.7,0.1c-0.8,0.4-2.5,1.9-2.7,2.9
	c0,0.2-1.1-0.1-1.5,0c-1.6,0.6-4.1,3.5-4.8,4.8c-0.2,0.4-1-0.7-1.8-0.2c-1.8,1-8.7,8.9-8.7,8.9s-6.5,5.6-7.6,8.4
	c-0.5,1.2-2.9,2.9-3.6,3.9c-0.8,1.1-1.8,4-2.5,5s-2.8,2.8-3.4,4.1c-0.4,0.6-0.8,3-1.2,3.4c-1.9,1.7-6.7,9.8-6.9,13.2
	c-0.1,0.8-2.7,1.1-3.2,0.2c-1.9-2.7-5.7-14.1-7.3-18.8c-1.7-5.2-4.7-15.6-6.1-21c-1-3.8-2.3-10.7-2.9-15c-0.1-1-1.1-3.6-1.9-4.2
	c-0.8-0.7-3.4-0.7-4.4-0.4c-0.8,0.4-2.2,1.6-2.3,2.4c-0.5,3.4-1.7,10.8-0.6,13.9c0.1,0.4,0.6,0.6,1,0.5c0.5-0.4,0.8-2.3,0.8-2.3
	c0.1-0.4,0.6-0.2,0.6,0c0.5,2.7,1.6,9.3,2.1,11.9c1.2,6.1,3.5,18.3,5.1,24.4C938.1,73.5,942.2,85.9,942.2,85.9 M851.5,273.7
	c0,3.4-1.5,10.2-3.3,13c-0.6,1-2.4,3.2-3.6,3.2c-1.2,0-2.9-1.8-3.5-2.8c-1.6-2.4-3.9-8-4-10.9c-0.1-3.9,2.1-12,3.8-14.4
	c0.4-0.6,1.8,1,2.5,1.2c1.1,0.4,3.4-0.1,4.2,0.5C849.8,265.2,851.5,270.9,851.5,273.7z"/>
<g id="climber">
	<path fill="#F0335F" stroke="#F0335F" stroke-miterlimit="10" d="M281.6,775.7c0-2.9-9.1-11.4-10.5-13.5c-0.7-1,0.5-3.8,0-5
		c-0.2-0.5-1.7-1.2-1.7-1.2l-2.1,5.9c0,0,1.1,0.2,1.1,0.5c0.1,1.3-2.1,6.9-2.1,6.9s-2.4,6.7-3.4,8.9c-1.2,2.7-5.3,9.6-5.6,11.2
		c-0.2,1.1,1.2,3.5,1.6,4.6c0.1,0.4,0.2,1,0.4,1.2c2.2,2.2,7.2,3.3,9.7,2.9c1.9-0.2,4.1-4.2,4.6-6.1c0.2-1,0.1-3.4,0.4-4.4
		c0.5-1.6,2.5-4,3.3-5.5c0.4-0.8,0.6-2.1,1.1-2.7c0.4-0.6,1.9-1.8,1.8-2.3c0-0.1-0.4-0.8-0.6-1.2c-0.1-0.2,0.1-0.6,0.5-0.5
		C280.6,775.9,281.6,776,281.6,775.7z"/>
	<path fill="#F0335F" stroke="#F0335F" stroke-miterlimit="10" d="M99.4,857.5l6.3,2.5l8.7,0.2l3.5-1.1l33.6-70.9l11.2-9.9
		l44.1-12.6c0,0,1.9-1.1,2.1-1.9c0.6-6.3-5.7-21.2-8.4-25.5c-0.8-1.3-6.5,1.3-6.5,1.3s-14.4,5.1-18.4,6.4c-8.9,3-33.2,8.2-33.2,8.2
		c-1,0.5-2.2,0.1-2.7-0.8l-3.4-3.6c-0.5-0.8-1.6-1.2-2.5-1l-11.3,3c-2.1-4.8,0.7-17.5,0.7-17.5l6.1,1.5c0.5,0.2,1,0.2,1.5,0.1
		l22.8-4.7l36.4-13.1l10.1-5.3c0.6-0.4,1.2-0.5,1.9-0.5l2.4,0.1c0.2,0,0.6,0,0.8-0.1c0,0,2.9-1.6,7-0.4c2.3,0.7,7.2,7,9.5,9.6
		c0.6,0.6,1.6,0.1,1.3-0.7c0,0-2.1-5.3-1.8-9.3c0.2-3.2,1.6-12.1,1.9-15.9c0.1-0.8-0.6-1.5-1.5-1.2c0,0-12.7,3.9-16.9,4.1
		c-1.9,0.1-5.5,1.5-7.3,1.6c-4.4,0.5-17.2-1.2-22.7-2.8c-8.1-2.4-30.6-15.3-34.4-19.4c-1.2-1.3-2.9-7.5-2.9-7.5l4.2-10.5
		c0,0,2.4,3.5,3,4.6c1.5,2.4,1.9,6.5,3.2,8.5c2.7,4.4,12,3.9,15.9,5.6c4.8,2.2,21.6,3.4,21.6,3.4s-12.4-6.9-15.8-10.5
		c-4.1-4.5-13.3-12.7-17.3-17.2c-1.3-1.5-6.5-4.1-6.5-4.1l-1.7-4.6c0,0,2.2-9.8,3.3-10.3c1.9-0.6,3.3,3.9,4.4,5.3
		c1.7,2.2,12.6,9.8,12.6,9.8s7.6,5.2,19.6,10.1c3,1.2,7.9,5,10.9,5.9c3.6,1.1,15.5,1.6,15.4,0.1c0-0.4,1.6-4.2,2.2-6.1
		c0.2-0.6,0-1.3-0.6-1.7c0,0-1.2-0.4-1.7-1.3c-0.8-1.8,0-4.2,0.2-5.6c0.1-0.7,0.1-3.2,0.1-3.2s-4.4-1-4.5-2.7c0,0,8.7-34.1,38.6-19
		c3.9,1.9,9.5,15.3,6.5,23.5c-0.2,0.8-2.4,2.1-3.5,2.7c-0.4,0.2-0.7,0.7-0.7,1.1c0,0,2.4,6.8,1.2,8.2c0,0,8.2,0.7,14.2,7.2
		c1.6,1.7,5.5,3,6.3,6.1c0.8,3.5,9,7.4,9.3,12.5c0.1,2.1-2.9,4.6-3.8,6.1c-0.4,0.7-0.6,3.2-1.2,3.5c-1.6,1-4.1,1.6-4.5,2.8
		c-0.8,2.5,1.5,17.3,1.5,17.3s5.1,20.9,4.1,27.6c-0.2,1.7-1.8,4-2.2,5.5c-0.4,1.3-0.7,4.4-1,5.8c-0.2,1.5-2.1,5.5-2.1,5.5
		s-6.7,16.4-10.4,21.6c-0.8,1.2-2.4,1.3-3.5,6.5c-1,4.4-9.2,6.9-16.2,8.5c-6.8,1.6-12.5-1.6-14.2-2.7c-0.4-0.2-0.8-0.4-1.2-0.4
		c0,0-4.6-0.6-6.2-0.2c-4.7,1.2-13.8,3.6-18.4,4.2c-6.1,0.7-19-0.4-24.5,1.6c-2.3,0.7-7,2.1-7.9,4.7c-0.8,2.7,0.1,10.1-1.2,12.5
		c-5.9,10.8-15.6,34.2-22.1,44.4c-1.1,1.7-5,3.5-6.8,4.5c-0.7,0.5-2.4-1.8-3.2-1.3c-2.1,1.6-5.8,14.1-5.8,14.1s-3.6,9.7-10.9,5.3
		c-4.6-2.7-5.7-5.6-7.9-6.2C96,875.9,93,871.8,93,871.8L99.4,857.5z"/>
	<g>
		<path fill="#F0335F" stroke="#F0335F" stroke-miterlimit="10" d="M190,703.5c0.8-0.1,1.7,1.2,1.7,1.2s0.8,0,1.1,0
			c1.2,0.4,1.6,2.7,1.6,2.7s1.2,0.2,1.6,1c0.1,0.2-0.2,0.7-0.1,0.8c0.1,0.2,0.8,0.2,1.1,0.2c0.4,0.1,0.7,0.7,0.7,1.1
			c0,0.2-0.6,0.8-0.6,0.8c-0.1,0.1-0.1,0.5,0,0.6l0.5,0.7l-3,1.5c0,0-0.5-0.8-0.7-1c-0.5-0.2-1.6,0-2.1-0.2c-0.4-0.1-1-0.5-1.1-0.7
			c-0.2-0.4-0.5-1.2-0.6-1.6c-0.2-0.5-1-1.3-1.5-1.5c-0.2-0.1-1-0.1-1.2-0.1c-0.2-0.1-0.6-0.4-0.7-0.6c-0.1-0.4,0.1-1.3-0.1-1.6
			c-0.1-0.1-0.6-0.1-0.7-0.4c0,0-0.4-1.3,0-1.7C186.1,704.5,188.7,703.5,190,703.5z"/>
		<path fill="none" stroke="#F0335F" stroke-width="2" stroke-linecap="round" stroke-miterlimit="10" d="M166.3,718.5
			c0,0,16.1-17.7,21.5-14.5"/>
		<path fill="none" stroke="#F0335F" stroke-width="2" stroke-linecap="round" stroke-miterlimit="10" d="M186.2,702.9l-38.4-41.7
			c-3.3-2.2-4,2.2-4,2.2l-0.7,623.4"/>
		<line fill="none" stroke="#F0335F" stroke-width="2" stroke-miterlimit="10" x1="146.2" y1="662.6" x2="142.1" y2="653.8"/>
	</g>
</g>
<path id="mountain" fill="none" stroke="#212D3A" stroke-width="8" stroke-miterlimit="10" d="M20.9,1389.3l-7.4-93.7
	c0,0-6.8-53.5-4.2-71c2.3-15.8,12-46.4,14.1-62.2c3-22.7-4.5-71.5-1.6-93.4c2.9-22.5,23-58.3,30.7-77.8
	C66.3,956.4,93.8,885,95.3,847.7c0.2-6.5,16.5-63.4,20.9-76.5c3.8-11.2,0.6-35.3,2.7-46.8c2.9-16.5,26.6-96.5,29-106.7
	c5.8-24.7,25-66.7,44.5-80.9c30.1-21.9,107.1-31.4,143.4-39.2c40.4-8.6,120.3-29.6,158.9-43.8C581.6,422,750.4,341.7,838,315.3
	c88.7-26.6,266-62.2,356.4-70.9c137.1-13.2,413.7-4.4,551-15.9c64.3-5.3,254.6-41.2,254.6-41.2"/>
</svg>
