<svg width="425" height="562" viewBox="0 0 425 562" fill="none" xmlns="http://www.w3.org/2000/svg">
	<path d="M109.358 117.757C154.182 26.8246 231.964 27.3241 267.136 35.0015C302.308 42.6789 373.165 74.9026 376.007 176.295C379.154 288.58 253.978 405.408 194.584 444.528C183.522 451.813 169.455 448.743 162.442 437.507C124.765 377.139 59.7182 218.461 109.358 117.757Z" fill="#252C37" stroke="#0D1117" stroke-width="10" stroke-linejoin="round" />
	<circle cx="237.067" cy="172.758" r="89" transform="rotate(12.3135 237.067 172.758)" fill="#0D1117" />
	<circle cx="236.685" cy="172.163" r="26.5" transform="rotate(12.3135 236.685 172.163)" fill="#6B7072" />
	<path d="M114.001 429.417C114.441 431.151 109.565 432.543 107.072 433.022C105.684 433.913 102.189 435.232 99.3181 433.377C95.73 431.059 96.8137 430.783 88.2513 432.497C79.6889 434.21 71.6424 428.871 66.1177 430.736C60.5931 432.601 65.7979 432.201 60.3796 433.578C54.9613 434.954 59.7225 431.899 53.0523 431.978C46.382 432.058 46.719 435.202 39.6221 437.235C32.5252 439.268 40.0313 430.671 28.9371 436.95C17.843 443.228 27.9775 441.346 25.4458 445.911C22.9141 450.476 48.7149 461.226 44.7623 462.922C40.8097 464.618 63.8658 480.91 64.7188 477.002C65.5719 473.094 74.1241 483.149 89.6049 489.599C105.086 496.049 106.898 487.744 108.612 496.307C110.325 504.869 140.914 505.405 147.815 508.958C154.716 512.512 177.001 511.235 184.453 516.956C191.904 522.676 213.425 520.209 218.035 520.192C222.645 520.175 241.466 520.7 244.397 521.34C247.328 521.98 247.816 522.087 249.983 521.536C252.151 520.986 250.41 519.582 255.401 520.16C260.393 520.738 259.54 524.646 266.592 525.162C273.644 525.677 277.047 521.814 283.335 521.14C289.624 520.465 294.98 517.028 298.612 516.798C302.245 516.567 301.189 509.684 307.708 512.642C314.227 515.6 315.018 509.632 314.894 505.51C314.77 501.389 310.418 497.88 309.379 495.606C308.34 493.333 303.332 488.145 295.729 485.462C288.126 482.779 278.232 476.525 275.728 473.931C273.223 471.337 264.048 468.823 261.606 468.29C259.163 467.757 253.302 466.477 249.332 463.563C245.362 460.65 246.17 459.291 245.131 457.017C244.3 455.198 246.473 453.216 247.663 452.452C247.112 450.285 248.109 447.125 256.5 451.822C266.989 457.694 270.33 451.77 274.255 457.233C278.18 462.696 288.163 463.851 292.027 467.254C295.89 470.656 305.829 474.36 308.44 476.466C311.051 478.571 316.806 480.339 317.25 482.995C317.694 485.651 325.954 490.012 324.55 491.753C323.147 493.494 331.3 498.344 329.7 505.672L327.248 516.907C326.821 518.861 322.229 523.488 320.168 523.55C318.108 523.612 312.645 527.537 309.776 528.958C307.481 530.095 300.038 530.586 296.604 530.689L296.177 532.643L291.354 533.637L285.492 532.358C284.027 532.038 280.403 531.759 277.632 533.201C274.168 535.003 241.26 538.056 231.49 535.923L216.346 532.618C214.392 532.191 208.53 530.911 204.853 533.691C201.175 536.471 188.368 534.187 184.673 532.357C180.978 530.527 162.673 522.949 158.934 523.668C155.195 524.387 123.274 515.884 120.343 515.244C117.998 514.732 115.304 511.756 114.25 510.332C113.782 510.912 111.967 511.881 108.45 511.113C104.054 510.153 103.717 507.009 101.381 505.987C99.0448 504.966 95.9006 505.303 91.291 505.32C86.6814 505.338 82.2673 499.768 74.3893 496.001C66.5114 492.235 45.0002 482.933 38.801 478.509C32.6018 474.086 25.257 467.876 24.7066 465.709C24.1561 463.542 15.621 458.096 14.2622 457.288C12.9033 456.48 11.9091 451.657 11.9538 449.108C11.9984 446.558 8.41035 444.24 11.9365 444.498C15.4626 444.756 13.9624 435.216 14.4956 432.774C15.0287 430.331 20.6601 427.978 23.4225 427.046C26.1849 426.114 30.2442 423.929 30.4574 422.952C30.6707 421.975 41.0804 421.177 41.4003 419.711C41.7202 418.246 53.4269 416.195 56.3578 416.835C59.2888 417.474 64.1738 418.541 69.1034 417.058C74.033 415.575 71.0128 420.034 77.8344 416.917C84.6561 413.8 93.7862 418.863 96.4419 418.42C99.0977 417.976 102.624 418.234 105.28 417.79C107.935 417.346 113.051 422.045 112.029 424.381C111.008 426.717 113.45 427.25 114.001 429.417Z" fill="#14A3A3" />
</svg>
