<svg width="733" height="431" viewBox="0 0 733 431" fill="none" xmlns="http://www.w3.org/2000/svg">
	<rect x="544.629" y="118.251" width="96" height="239" rx="13" transform="rotate(-8.09447 544.629 118.251)" fill="#252C37" />
	<rect x="437.393" y="180.976" width="96" height="192" rx="13" transform="rotate(-8.09447 437.393 180.976)" fill="#252C37" />
	<rect x="330.438" y="245.68" width="96" height="143" rx="13" transform="rotate(-8.09447 330.438 245.68)" fill="#252C37" />
	<rect x="223.201" y="308.404" width="96" height="96" rx="13" transform="rotate(-8.09447 223.201 308.404)" fill="#252C37" />
	<rect x="116.105" y="372.119" width="96" height="48" rx="13" transform="rotate(-8.09447 116.105 372.119)" fill="#252C37" />
	<path d="M167.598 218.711C170.268 216.423 173.46 212.823 176.905 208.938C183.435 201.575 190.874 193.186 197.394 190.755C207.354 187.042 238.216 192.381 238.216 192.381L238.218 192.404C246.104 192.023 252.878 191.243 256.302 189.714C262.405 186.991 264.731 188.979 267.039 190.951C268.849 192.498 270.648 194.035 274.247 193.282C282.436 191.571 293.247 189.742 304.476 194.283C315.705 198.824 355.336 195.504 371.692 189.011C384.357 183.983 416.959 187.907 438.217 190.466C447.992 191.642 455.369 192.53 457.304 192.126C458.256 191.927 460.345 191.534 463.261 190.985L463.264 190.984L463.264 190.984C477.924 188.225 513.493 181.529 530.938 175.734L537.166 172.83C548.598 169.682 561.314 140.214 576.563 124.792L576.564 124.792C583.765 117.509 590.068 111.135 594.221 107.82C600.103 103.127 602.359 100.228 604.004 98.1129C605.983 95.5707 607.08 94.1605 612.532 92.1277C617.74 90.1859 625.524 75.6064 632.851 67.6308C635.451 64.8008 641.226 56.1198 643.098 54.2485L655.619 46.4104C660.572 42.1702 663.33 40.2604 658.732 57.6449C655.528 69.7572 639.67 70.6771 624.315 91.8587C608.731 107.299 594.4 121.496 593.027 125.637C591.078 131.509 583.724 152.46 571.807 161.113C565.706 166.008 554.419 174.477 550.309 176.537C547.673 177.858 534.184 183.963 528.942 184.198C527.468 184.937 473.34 197.112 463.429 197.892C460.659 198.11 455.661 198.322 449.641 198.578L449.641 198.578C434.127 199.239 411.827 200.187 403.391 202.261C391.681 205.139 340.235 203.407 329.254 200.536C318.273 197.666 267.222 206.375 262.554 206.92C260.997 207.102 255.674 206.387 248.856 205.472L248.855 205.472C237.34 203.926 221.56 201.808 212.465 202.469L210.784 202.634C210.09 202.722 209.448 202.832 208.867 202.965C205.7 205.162 202.848 206.225 199.773 207.372C193.469 209.722 186.227 212.422 173.4 225.956C167.164 232.537 167.127 234.527 167.099 236.079C167.076 237.29 167.059 238.235 164.098 240.889C162.148 242.638 159.648 246.745 156.782 251.454L156.781 251.456C151.71 259.787 142.151 261.036 135.807 263.402C129.47 265.764 110.146 291.708 104.976 302.055C102.737 306.534 99.2968 312.188 95.4979 318.43L95.4961 318.433L95.4933 318.438L95.4714 318.474C93.7951 321.229 92.0491 324.098 90.3061 327.031C88.508 330.058 86.2072 335.25 83.8013 340.68L83.8009 340.681C78.5757 352.474 72.855 365.385 70.7146 359.646C70.4758 359.006 68.6811 360.451 66.9891 361.813C65.3983 363.094 63.8983 364.302 63.8677 363.635C61.9388 363.481 65.74 356.411 70.2819 347.963L70.2825 347.962L70.283 347.961C73.2141 342.51 76.4539 336.484 78.6611 331.373C81.8406 324.011 88.0677 316.595 94.3868 309.069C102.048 299.944 109.845 290.658 112.508 281.114C117.363 263.715 159.868 225.335 167.598 218.711Z" fill="#14A3A3" />
	<path fill-rule="evenodd" clip-rule="evenodd" d="M660.758 137.012C661.064 137.109 661.412 137.042 661.78 136.878C661.818 136.962 661.86 137.091 661.905 137.267C662.016 137.711 662.108 138.334 662.201 138.961L662.203 138.976C662.288 139.549 662.374 140.128 662.474 140.53C662.523 140.723 662.584 140.921 662.675 141.055C662.719 141.12 662.809 141.228 662.959 141.259C663.013 141.27 663.063 141.27 663.109 141.261C663.159 141.279 663.212 141.291 663.268 141.295C663.399 141.304 663.517 141.267 663.617 141.21C663.806 141.103 663.963 140.908 664.097 140.692C664.372 140.251 664.652 139.556 664.939 138.7C665.516 136.981 668.134 134.225 668.825 131.55L668.828 131.537C669.724 128.068 665.652 126.637 666.715 123.616C668.268 119.199 666.795 114.568 667.064 108.919L667.065 108.884C667.393 101.98 667.509 96.3436 670.086 91.3178C671.308 88.9352 670.847 82.5177 671.226 78.0249C671.606 73.5193 668.556 69.3875 668.437 64.3135C668.199 54.1652 667.28 44.4495 666.937 41.5186C666.713 39.6046 666.728 37.3324 666.786 34.4614C666.773 34.4679 666.799 34.4548 666.786 34.4614L666.859 34.1581C666.932 33.8548 667.01 34.0086 666.932 33.8548C666.871 33.7333 666.757 33.7648 666.629 33.7815C666.58 33.746 666.391 33.7099 666.326 33.7085C666.16 33.7051 666.152 33.8362 665.949 33.9387C663.201 35.324 660.939 36.3646 658.981 37.0359C655.969 38.0685 646.085 41.703 636.098 46.2025C631.105 48.4522 625.517 46.9606 621.31 49.4308C617.114 51.8944 613.117 52.5881 611.371 54.8837C607.677 59.7399 602.42 62.986 595.855 66.5229L595.825 66.5393C590.45 69.4353 588.019 71.8801 584.447 75.4491C582.001 77.8929 579.031 75.5409 576.072 78.0297L576.063 78.0378C573.78 79.9578 571.67 81.7325 570.267 83.0945C569.567 83.7731 569.023 84.3682 568.724 84.839C568.577 85.0693 568.463 85.3086 568.447 85.5355C568.439 85.6558 568.458 85.7832 568.524 85.901C568.554 85.954 568.59 86 568.632 86.0397C568.644 86.0873 568.666 86.1357 568.701 86.1822C568.796 86.3067 568.935 86.3417 569.016 86.354C569.184 86.3793 569.402 86.348 569.612 86.3049C570.05 86.2153 570.652 86.0291 571.25 85.8444L571.264 85.8399C571.917 85.638 572.568 85.4373 573.053 85.3382C573.262 85.2957 573.417 85.277 573.52 85.2775C573.528 85.7195 573.624 86.0921 573.86 86.3425C574.138 86.6374 574.529 86.6817 574.917 86.6067C575.303 86.5322 575.746 86.3318 576.223 86.0513C576.704 85.7682 577.24 85.3912 577.816 84.9444C580.112 83.1643 583.131 80.204 585.85 83.4767L585.863 83.4643C588.516 80.8632 587.774 83.912 589.496 82.5855C591.183 81.2857 592.857 80.0237 594.466 78.811L594.481 78.7994L594.484 78.7974L594.496 78.7882C598.129 76.0495 601.435 73.5576 603.775 71.4668C606.442 69.0833 612.062 65.2453 617.553 62.0103C620.296 60.3943 622.997 58.934 625.273 57.8843C626.411 57.3593 627.437 56.9394 628.306 56.654C629.182 56.3662 629.871 56.2245 630.344 56.2346C631.174 56.2523 632.067 56.3242 633.014 56.4005C633.257 56.4201 633.505 56.44 633.755 56.4594C634.974 56.5535 636.265 56.6334 637.579 56.5943C640.21 56.516 642.954 55.9604 645.453 54.0767C646.828 53.0402 648.108 52.0754 649.236 51.299C650.369 50.519 651.324 49.9464 652.051 49.6787C653.225 49.2464 653.907 48.8807 654.334 48.5134C654.775 48.135 654.928 47.768 655.076 47.4146L655.083 47.3987C655.259 46.9791 655.451 46.5195 656.203 45.872C656.781 45.3754 657.688 44.7683 659.169 44.0016C659.816 43.6663 660.577 44.1434 660.57 44.8725C660.557 46.3036 660.494 47.1603 660.392 47.7134C660.323 48.0879 660.239 48.3075 660.148 48.4664C660.063 48.6154 659.967 48.723 659.832 48.8741L659.787 48.9246C659.55 49.19 659.302 49.4687 659.161 49.9935C659.024 50.5019 658.991 51.2211 659.1 52.3762C659.167 53.088 659.072 54.1126 658.873 55.3716C658.676 56.6242 658.382 58.0798 658.067 59.6442C657.492 62.4932 658.128 65.0136 659.117 67.2463C659.611 68.3613 660.194 69.4086 660.761 70.3896C660.878 70.5915 660.993 70.7903 661.107 70.9861C661.55 71.7466 661.967 72.4632 662.314 73.1497C662.51 73.5371 662.667 74.1662 662.777 75.0129C662.886 75.852 662.946 76.877 662.963 78.0377C662.997 80.3585 662.858 83.2002 662.606 86.1388C662.1 92.0219 661.143 98.2532 660.22 101.435C659.409 104.228 658.65 107.989 657.816 112.12L657.813 112.135L657.808 112.156C657.439 113.986 658.078 117.19 657.667 119.12C657.248 121.088 659.422 122.37 658.31 125.629L658.304 125.646C657.105 129.163 660.896 130.486 660.327 133.119C660.184 133.779 660.083 134.38 660.039 134.897C659.996 135.408 660.005 135.862 660.099 136.218C660.192 136.576 660.389 136.894 660.758 137.012ZM663.192 140.705C663.194 140.708 663.194 140.709 663.194 140.709L663.192 140.705ZM569.107 85.7367C569.104 85.7359 569.102 85.7357 569.102 85.7357L569.104 85.7361L569.107 85.7367Z" fill="#14A3A3" />
</svg>
