<svg width="692" height="337" viewBox="0 0 692 337" fill="none" xmlns="http://www.w3.org/2000/svg">
	<rect x="540.498" y="102.262" width="86" height="229" rx="8" fill="#252C37" stroke="#0D1117" stroke-width="10" />
	<rect x="425.498" y="149.262" width="86" height="182" rx="8" fill="#252C37" stroke="#0D1117" stroke-width="10" />
	<rect x="310.498" y="198.262" width="86" height="133" rx="8" fill="#252C37" stroke="#0D1117" stroke-width="10" />
	<rect x="195.498" y="245.262" width="86" height="86" rx="8" fill="#252C37" stroke="#0D1117" stroke-width="10" />
	<rect x="80.4976" y="293.262" width="86" height="38" rx="8" fill="#252C37" stroke="#0D1117" stroke-width="10" />
	<path d="M148.078 143.633C151.043 141.744 154.71 138.63 158.668 135.268C166.17 128.898 174.716 121.64 181.513 120.151C191.897 117.877 221.699 127.509 221.699 127.509L221.698 127.532C229.559 128.265 236.375 128.446 239.981 127.416C246.406 125.579 248.43 127.874 250.437 130.152C252.011 131.938 253.576 133.713 257.245 133.475C265.594 132.933 276.554 132.644 287.032 138.721C297.51 144.798 337.213 147.092 354.32 142.967C367.567 139.772 399.292 148.248 419.977 153.774C429.49 156.315 436.668 158.233 438.641 158.105C439.612 158.042 441.735 157.947 444.7 157.814L444.702 157.814L444.703 157.814C459.604 157.146 495.762 155.526 513.849 152.244L520.424 150.246C532.186 148.74 548.924 121.356 566.193 108.235L566.193 108.235C574.348 102.038 581.486 96.6151 586.065 93.9183C592.548 90.0998 595.19 87.5474 597.117 85.685C599.434 83.4466 600.719 82.205 606.403 80.9601C611.832 79.771 621.592 66.4328 629.968 59.5683C632.941 57.1326 639.881 49.3512 641.998 47.7622L655.498 41.7652C660.999 38.2648 663.998 36.7622 656.998 53.3261C652.121 64.8666 636.291 63.5444 618.106 82.3529C600.503 95.4449 584.316 107.483 582.373 111.389C579.617 116.928 569.387 136.635 556.37 143.524C549.64 147.511 537.273 154.306 532.914 155.767C530.118 156.704 515.904 160.849 510.681 160.343C509.118 160.867 453.815 165.299 443.893 164.676C441.119 164.502 436.141 164.008 430.146 163.414L430.145 163.414C414.693 161.883 392.482 159.683 383.838 160.548C371.839 161.749 321.15 152.79 310.682 148.402C300.215 144.013 248.446 145.447 243.748 145.33C242.181 145.291 237.011 143.834 230.391 141.968L230.39 141.967C219.206 138.815 203.882 134.496 194.785 133.871L193.097 133.797C192.397 133.786 191.747 133.805 191.153 133.855C187.707 135.584 184.734 136.235 181.528 136.937C174.957 138.376 167.406 140.03 152.802 151.623C145.701 157.26 145.385 159.225 145.138 160.757C144.945 161.954 144.795 162.887 141.49 165.098C139.313 166.555 136.259 170.269 132.759 174.527L132.757 174.529C126.564 182.063 116.925 181.954 110.31 183.402C103.704 184.849 80.9198 207.814 74.3443 217.329C71.497 221.449 67.2949 226.561 62.6549 232.207L62.6527 232.21L62.6493 232.214L62.6225 232.246C60.575 234.738 58.4423 237.332 56.3037 239.991C54.0974 242.734 51.0884 247.551 47.9419 252.588L47.9414 252.589C41.1077 263.528 33.6261 275.505 32.3151 269.522C32.1689 268.855 30.1885 270.033 28.3215 271.143C26.5662 272.188 24.9111 273.172 24.9747 272.508C23.0867 272.084 27.8455 265.619 33.5317 257.895L33.5324 257.894L33.533 257.893C37.2025 252.909 41.2586 247.399 44.1633 242.65C48.3478 235.809 55.5572 229.343 62.8729 222.782C71.743 214.827 80.7695 206.732 84.7502 197.657C92.0068 181.115 139.492 149.102 148.078 143.633Z" fill="#14A3A3" />
	<path fill-rule="evenodd" clip-rule="evenodd" d="M647.828 132.187C648.117 132.327 648.472 132.31 648.859 132.199C648.885 132.287 648.909 132.421 648.928 132.602C648.975 133.057 648.979 133.687 648.983 134.32L648.983 134.336C648.986 134.915 648.989 135.5 649.032 135.912C649.053 136.11 649.086 136.315 649.157 136.461C649.192 136.531 649.265 136.65 649.41 136.702C649.461 136.721 649.511 136.728 649.557 136.726C649.604 136.751 649.655 136.77 649.711 136.781C649.838 136.808 649.961 136.788 650.068 136.746C650.27 136.667 650.452 136.496 650.616 136.301C650.95 135.903 651.325 135.254 651.73 134.447C652.543 132.827 655.524 130.467 656.584 127.916L656.589 127.904C657.964 124.595 654.135 122.605 655.612 119.764C657.772 115.609 656.966 110.818 658.027 105.262L658.033 105.228C659.33 98.4394 660.239 92.8751 663.498 88.2622C665.042 86.0754 665.49 79.6568 666.498 75.2622C667.508 70.855 665.071 66.335 665.668 61.2948C666.861 51.2141 667.318 41.4656 667.392 38.5157C667.44 36.5892 667.774 34.3417 668.236 31.5075C668.222 31.5122 668.25 31.5028 668.236 31.5075L668.351 31.2175C668.466 30.9276 668.521 31.0908 668.466 30.9276C668.423 30.7986 668.305 30.8138 668.176 30.8123C668.132 30.7702 667.951 30.7079 667.886 30.6974C667.722 30.6706 667.697 30.7994 667.481 30.8722C664.566 31.8568 662.179 32.5685 660.146 32.9573C657.019 33.5556 646.722 35.7622 636.201 38.8107C630.94 40.3348 625.618 38.0713 621.105 39.9245C616.604 41.7728 612.55 41.8968 610.498 43.9236C606.157 48.2113 600.495 50.6849 593.498 53.2622L593.465 53.2742C587.736 55.3844 584.985 57.4627 580.946 60.4931C578.18 62.5682 575.571 59.8214 572.291 61.8687L572.281 61.8754C569.75 63.4549 567.412 64.9148 565.83 66.0657C565.043 66.639 564.42 67.1516 564.057 67.5755C563.879 67.7829 563.733 68.0037 563.685 68.2261C563.66 68.3441 563.661 68.4729 563.71 68.5988C563.732 68.6554 563.762 68.7061 563.797 68.7513C563.802 68.8002 563.817 68.8511 563.846 68.9022C563.922 69.0387 564.054 69.0929 564.133 69.1165C564.296 69.1653 564.516 69.165 564.731 69.1519C565.176 69.1248 565.799 69.0253 566.416 68.9265L566.431 68.9241C567.107 68.8162 567.779 68.7091 568.274 68.6794C568.486 68.6666 568.642 68.67 568.744 68.685C568.689 69.1236 568.732 69.506 568.93 69.7872C569.164 70.1184 569.545 70.2172 569.94 70.1976C570.332 70.1782 570.799 70.0422 571.311 69.8316C571.827 69.6191 572.411 69.3214 573.045 68.9602C575.568 67.521 578.974 65.0154 581.205 68.6383L581.219 68.6278C584.212 66.4261 583.049 69.3401 584.94 68.2693C586.793 67.2199 588.628 66.2062 590.391 65.2322L590.408 65.2229L590.411 65.2213L590.425 65.2138C594.407 63.014 598.031 61.0124 600.642 59.2719C603.619 57.2877 609.723 54.2793 615.614 51.8497C618.557 50.636 621.438 49.5706 623.838 48.8518C625.039 48.4923 626.114 48.2211 627.015 48.0609C627.923 47.8993 628.624 47.856 629.091 47.9325C629.911 48.067 630.785 48.2639 631.711 48.4727C631.95 48.5265 632.192 48.581 632.437 48.6355C633.63 48.9003 634.897 49.161 636.203 49.3074C638.819 49.6003 641.614 49.4366 644.354 47.9236C645.861 47.0911 647.264 46.3162 648.49 45.7063C649.722 45.0935 650.747 44.6611 651.505 44.4984C652.728 44.2358 653.455 43.9697 653.93 43.6662C654.419 43.3536 654.623 43.0119 654.819 42.6829L654.828 42.6681C655.061 42.2774 655.316 41.8495 656.152 41.3144C656.794 40.904 657.778 40.4307 659.351 39.8802C660.04 39.6394 660.726 40.2188 660.616 40.9397C660.401 42.3547 660.219 43.194 660.04 43.7273C659.919 44.0884 659.804 44.2938 659.692 44.4384C659.587 44.5738 659.476 44.6668 659.321 44.7975L659.27 44.8411C658.998 45.0706 658.713 45.3115 658.5 45.8113C658.293 46.2953 658.159 47.0028 658.104 48.1617C658.071 48.8758 657.831 49.8767 657.458 51.0953C657.086 52.3076 656.59 53.7073 656.058 55.2117C655.087 57.9514 655.362 60.5362 656.027 62.886C656.359 64.0593 656.789 65.1785 657.212 66.2295C657.299 66.4458 657.386 66.6588 657.471 66.8687C657.802 67.684 658.114 68.4522 658.361 69.1807C658.5 69.5918 658.567 70.2367 658.557 71.0905C658.547 71.9366 658.462 72.9599 658.315 74.1114C658.022 76.4138 657.484 79.2077 656.821 82.0815C655.492 87.8348 653.667 93.8693 652.305 96.889C651.109 99.5404 649.828 103.157 648.42 107.13L648.415 107.144L648.408 107.164C647.785 108.924 647.966 112.186 647.287 114.039C646.595 115.928 648.567 117.504 647.008 120.574L647 120.59C645.316 123.903 648.883 125.746 647.95 128.272C647.715 128.907 647.531 129.487 647.415 129.992C647.299 130.493 647.245 130.943 647.287 131.308C647.33 131.677 647.48 132.019 647.828 132.187ZM649.718 136.187C649.719 136.19 649.72 136.191 649.72 136.191L649.718 136.187ZM564.31 68.5182C564.307 68.517 564.306 68.5166 564.306 68.5166L564.307 68.5173L564.31 68.5182Z" fill="#14A3A3" />
</svg>
