<svg width="541" height="406" viewBox="0 0 541 406" fill="none" xmlns="http://www.w3.org/2000/svg">
<path d="M39.1965 324.546C43.0131 315.069 69.6479 340.898 73.0206 334.022C80.4968 318.778 92.3447 348.159 109.205 344.027C122.943 340.659 116.467 353.95 127.721 353.062C141.287 351.991 165.298 358.491 173.557 363.385C177.957 365.993 190.198 368.183 196.143 371.959C198.064 372.29 225.634 379.21 235.572 373.828C247.994 367.101 246.946 370.97 258.189 370.845C269.433 370.72 288.825 363.937 296.396 353.062C302.453 344.362 339.578 326.017 332.798 305.956C326.017 285.896 367.064 249.275 367.064 249.275C367.064 249.275 401.343 226.093 411.231 202.773C414.897 194.128 428.655 174.517 420.194 170.736C402.596 162.873 436.171 136.816 451.245 111.337C462.875 91.6779 474.412 83.8133 483.924 62.9637C487.792 54.4858 492.677 50.0023 492.373 40.5984C492.106 32.3406 492.162 18.0802 484.665 20.9155C479.362 22.921 480.057 28.8288 478.686 34.4826C477.564 39.1044 478.637 42.0151 477.532 46.6413C473.695 62.7108 469.421 61.6329 461.762 73.6573C458.944 78.0822 449.447 85.4977 448.55 90.7258C447.253 98.2923 445.548 101.268 441.756 109.078C428.957 135.441 424.231 138.478 416.986 139.202C403.602 140.538 413.713 153.722 404.852 168.633C395.991 183.545 405.403 187.891 390.059 206.384C374.716 224.877 359.901 215.881 366.293 232.203C370.003 241.678 357.957 238.38 348.217 242.346C341.621 245.032 340.282 260.953 337.086 267.473C329.598 282.748 334.552 295.769 317.882 295.331C303.755 294.96 332.973 324.253 312.177 328.824C305.921 330.2 290.372 335.848 286.118 340.549C281.865 345.249 271.502 355.406 264.082 358.428C254.806 362.204 246.816 353.108 231.06 362.307C225.301 365.669 196.05 352.515 192.806 353.836C190.211 354.893 183.561 352.514 173.557 353.062C163.553 353.61 155.245 339.456 155.245 339.456C152.646 337.727 113.332 333.995 106.832 333.86C92.432 333.559 107.549 326.084 97.3116 321.904C74.058 312.408 58.9464 324.167 44.4924 313.354C42.4868 313.976 38.2271 315.75 37.2327 317.869C35.9896 320.519 36.3734 325.211 39.1965 324.546Z" fill="#E1213E"/>
<mask id="path-2-inside-1_179_193" fill="white">
<path fill-rule="evenodd" clip-rule="evenodd" d="M113.228 10.8696L289.127 46.9645C289.127 46.9645 390.016 67.7522 423.081 106.019C437.33 122.511 489.106 185.348 484.216 207.631C479.437 229.405 428.302 254.946 388.496 274.828C387.564 275.294 386.638 275.756 385.72 276.215C343.17 297.48 239.01 275.271 239.01 275.271L64.1654 234.371C42.8627 229.388 29.5156 208.215 34.2065 186.846L66.1176 41.4767C70.8084 20.1077 91.7967 6.47192 113.228 10.8696ZM382.38 186.49C379.953 197.548 386.95 208.481 398.008 210.908C409.067 213.336 419.999 206.339 422.427 195.281C424.854 184.222 417.857 173.289 406.799 170.862C395.74 168.434 384.808 175.431 382.38 186.49Z"/>
</mask>
<path fill-rule="evenodd" clip-rule="evenodd" d="M113.228 10.8696L289.127 46.9645C289.127 46.9645 390.016 67.7522 423.081 106.019C437.33 122.511 489.106 185.348 484.216 207.631C479.437 229.405 428.302 254.946 388.496 274.828C387.564 275.294 386.638 275.756 385.72 276.215C343.17 297.48 239.01 275.271 239.01 275.271L64.1654 234.371C42.8627 229.388 29.5156 208.215 34.2065 186.846L66.1176 41.4767C70.8084 20.1077 91.7967 6.47192 113.228 10.8696ZM382.38 186.49C379.953 197.548 386.95 208.481 398.008 210.908C409.067 213.336 419.999 206.339 422.427 195.281C424.854 184.222 417.857 173.289 406.799 170.862C395.74 168.434 384.808 175.431 382.38 186.49Z" fill="#252C37"/>
<path d="M289.127 46.9645L291.145 37.1702L291.138 37.1686L289.127 46.9645ZM113.228 10.8696L111.218 20.6655L113.228 10.8696ZM423.081 106.019L415.514 112.557L415.514 112.557L423.081 106.019ZM484.216 207.631L493.983 209.775L484.216 207.631ZM388.496 274.828L392.964 283.775L392.964 283.775L388.496 274.828ZM385.72 276.215L381.249 267.27L381.249 267.27L385.72 276.215ZM239.01 275.271L236.733 285.008L236.829 285.03L236.925 285.051L239.01 275.271ZM64.1654 234.371L61.8877 244.108L64.1654 234.371ZM291.138 37.1686L115.238 1.07374L111.218 20.6655L287.117 56.7604L291.138 37.1686ZM430.647 99.4813C421.177 88.521 407.387 79.3473 392.812 71.7744C378.102 64.1317 361.882 57.7596 346.924 52.674C331.936 47.5785 318.032 43.7128 307.882 41.1213C302.801 39.824 298.646 38.8423 295.748 38.1822C294.299 37.8521 293.164 37.6022 292.383 37.4334C291.992 37.3489 291.691 37.2847 291.483 37.2408C291.379 37.2189 291.298 37.202 291.242 37.1902C291.214 37.1844 291.191 37.1797 291.175 37.1764C291.167 37.1747 291.161 37.1734 291.156 37.1724C291.153 37.1718 291.151 37.1713 291.149 37.171C291.147 37.1706 291.145 37.1702 289.127 46.9645C287.109 56.7587 287.108 56.7585 287.108 56.7584C287.108 56.7584 287.108 56.7584 287.108 56.7585C287.109 56.7587 287.112 56.7593 287.116 56.7601C287.125 56.7619 287.139 56.7649 287.159 56.7691C287.2 56.7776 287.265 56.7912 287.353 56.8097C287.529 56.8469 287.797 56.904 288.154 56.9812C288.867 57.1355 289.932 57.3696 291.306 57.6826C294.055 58.3089 298.04 59.2502 302.934 60.4997C312.734 63.0017 326.118 66.7247 340.486 71.6095C354.882 76.5042 370.084 82.5041 383.591 89.5218C397.231 96.6092 408.452 104.384 415.514 112.557L430.647 99.4813ZM493.983 209.775C495.063 204.855 494.434 199.718 493.276 195.107C492.087 190.376 490.129 185.387 487.771 180.398C483.053 170.421 476.257 159.462 469.07 148.993C454.66 128.006 437.888 107.861 430.647 99.4813L415.514 112.557C422.523 120.669 438.764 140.188 452.582 160.314C459.508 170.402 465.63 180.361 469.69 188.947C471.72 193.241 473.116 196.946 473.879 199.981C474.671 203.136 474.591 204.837 474.448 205.488L493.983 209.775ZM392.964 283.775C412.754 273.89 435.969 262.306 454.831 250.394C464.261 244.439 472.957 238.185 479.718 231.78C486.262 225.582 492.137 218.187 493.983 209.775L474.448 205.488C473.905 207.963 471.597 211.925 465.964 217.261C460.549 222.39 453.078 227.847 444.152 233.484C426.3 244.757 404.044 255.885 384.028 265.882L392.964 283.775ZM390.19 285.161C391.108 284.702 392.032 284.24 392.964 283.775L384.028 265.882C383.096 266.348 382.169 266.811 381.249 267.27L390.19 285.161ZM239.01 275.271C236.925 285.051 236.927 285.051 236.929 285.052C236.93 285.052 236.933 285.053 236.935 285.053C236.94 285.054 236.946 285.056 236.955 285.057C236.971 285.061 236.993 285.066 237.022 285.072C237.08 285.084 237.162 285.101 237.269 285.123C237.482 285.168 237.792 285.232 238.195 285.314C239 285.478 240.173 285.713 241.674 286.002C244.675 286.582 248.991 287.381 254.295 288.271C264.892 290.049 279.497 292.199 295.49 293.675C311.447 295.148 328.995 295.969 345.421 295.022C361.643 294.087 377.74 291.382 390.19 285.161L381.249 267.27C372.424 271.681 359.546 274.174 344.27 275.055C329.199 275.924 312.729 275.181 297.328 273.76C281.962 272.341 267.867 270.268 257.605 268.547C252.48 267.687 248.325 266.917 245.464 266.365C244.034 266.089 242.928 265.867 242.186 265.716C241.815 265.641 241.535 265.583 241.352 265.545C241.26 265.525 241.193 265.511 241.15 265.502C241.128 265.498 241.113 265.494 241.104 265.492C241.099 265.491 241.096 265.491 241.095 265.491C241.094 265.49 241.094 265.49 241.094 265.49C241.095 265.49 241.096 265.491 239.01 275.271ZM61.8877 244.108L236.733 285.008L241.288 265.534L66.4431 224.634L61.8877 244.108ZM24.439 184.702C18.5755 211.413 35.2593 237.88 61.8877 244.108L66.4431 224.634C50.4661 220.897 40.4558 205.017 43.9739 188.99L24.439 184.702ZM56.3501 39.3325L24.439 184.702L43.9739 188.99L75.885 43.6208L56.3501 39.3325ZM115.238 1.07374C88.449 -4.42339 62.2137 12.6214 56.3501 39.3325L75.885 43.6208C79.4031 27.5941 95.1443 17.3672 111.218 20.6655L115.238 1.07374ZM400.152 201.141C394.488 199.898 390.904 194.298 392.148 188.634L372.613 184.346C369.001 200.799 379.411 217.064 395.864 220.676L400.152 201.141ZM412.659 193.136C411.416 198.801 405.816 202.384 400.152 201.141L395.864 220.676C412.317 224.288 428.582 213.878 432.194 197.425L412.659 193.136ZM404.655 180.629C410.319 181.873 413.903 187.472 412.659 193.136L432.194 197.425C435.806 180.972 425.396 164.706 408.943 161.094L404.655 180.629ZM392.148 188.634C393.391 182.97 398.991 179.386 404.655 180.629L408.943 161.094C392.49 157.483 376.225 167.893 372.613 184.346L392.148 188.634Z" fill="black" mask="url(#path-2-inside-1_179_193)"/>
<path d="M167.433 175.396L168.667 169.776C169.657 165.267 171.542 161.318 174.321 157.929C177.136 154.548 180.671 152.106 184.928 150.605C189.184 149.103 194 148.942 199.376 150.123C204.891 151.333 209.271 153.494 212.514 156.606C215.792 159.725 217.984 163.406 219.089 167.647C220.193 171.889 220.243 176.299 219.238 180.878L218.005 186.497C217.015 191.006 215.113 194.951 212.298 198.333C209.518 201.722 205.983 204.163 201.692 205.657C197.401 207.151 192.533 207.3 187.087 206.105C181.642 204.91 177.301 202.739 174.065 199.593C170.829 196.446 168.659 192.752 167.554 188.51C166.484 184.276 166.443 179.905 167.433 175.396ZM186.773 173.751L185.539 179.37C185.105 181.347 185.161 183.413 185.705 185.569C186.292 187.698 187.956 189.063 190.696 189.664C193.575 190.296 195.671 189.774 196.984 188.099C198.332 186.432 199.234 184.558 199.691 182.477L200.924 176.858C201.381 174.776 201.389 172.669 200.948 170.537C200.508 168.404 198.796 167.01 195.813 166.355C193.073 165.754 190.987 166.314 189.554 168.036C188.157 169.765 187.229 171.67 186.773 173.751ZM125.045 102.175L126.278 96.556C127.283 91.9775 129.193 87.9975 132.008 84.6161C134.857 81.2424 138.406 78.822 142.654 77.3551C146.903 75.8882 151.681 75.7372 156.988 76.9021C162.503 78.1128 166.882 80.2739 170.125 83.3854C173.403 86.5046 175.595 90.1851 176.7 94.4269C177.805 98.6687 177.855 103.079 176.849 107.657L175.616 113.276C174.611 117.855 172.705 121.817 169.898 125.164C167.126 128.518 163.602 130.908 159.326 132.333C155.05 133.757 150.19 133.872 144.744 132.676C139.298 131.481 134.954 129.327 131.71 126.216C128.467 123.104 126.289 119.445 125.176 115.238C124.099 111.038 124.055 106.684 125.045 102.175ZM144.592 100.576L143.359 106.195C142.902 108.276 142.953 110.36 143.513 112.446C144.073 114.532 145.671 115.865 148.307 116.444C151.186 117.076 153.282 116.554 154.595 114.879C155.943 113.212 156.845 111.337 157.302 109.256L158.536 103.637C158.992 101.556 159 99.449 158.56 97.3162C158.119 95.1835 156.407 93.7897 153.424 93.1349C150.684 92.5334 148.625 93.1357 147.247 94.9419C145.911 96.721 145.026 98.5991 144.592 100.576ZM116.118 185.073L212.764 94.5996L227.54 97.8432L130.894 188.316L116.118 185.073Z" fill="#6B7072"/>
<mask id="path-5-inside-2_179_193" fill="white">
<path fill-rule="evenodd" clip-rule="evenodd" d="M81.4521 77.3495L261 74.89C261 74.89 363.999 73.5626 404.5 103.85C421.954 116.903 485.999 167.178 486 189.991C486.001 212.283 441.532 248.194 406.914 276.149C406.104 276.803 405.299 277.453 404.5 278.099C367.499 307.992 261 308.632 261 308.632L81.4521 306.173C59.5764 305.873 42 288.054 42 266.177L42 117.346C42 95.468 59.5764 77.6492 81.4521 77.3495ZM382 191.176C382 202.498 391.178 211.676 402.5 211.676C413.822 211.676 423 202.498 423 191.176C423 179.854 413.822 170.676 402.5 170.676C391.178 170.676 382 179.854 382 191.176Z"/>
</mask>
<path fill-rule="evenodd" clip-rule="evenodd" d="M81.4521 77.3495L261 74.89C261 74.89 363.999 73.5626 404.5 103.85C421.954 116.903 485.999 167.178 486 189.991C486.001 212.283 441.532 248.194 406.914 276.149C406.104 276.803 405.299 277.453 404.5 278.099C367.499 307.992 261 308.632 261 308.632L81.4521 306.173C59.5764 305.873 42 288.054 42 266.177L42 117.346C42 95.468 59.5764 77.6492 81.4521 77.3495ZM382 191.176C382 202.498 391.178 211.676 402.5 211.676C413.822 211.676 423 202.498 423 191.176C423 179.854 413.822 170.676 402.5 170.676C391.178 170.676 382 179.854 382 191.176Z" fill="#252C37"/>
<path d="M261 74.89L260.871 64.8908L260.863 64.8909L261 74.89ZM81.4521 77.3495L81.5891 87.3486L81.4521 77.3495ZM404.5 103.85L398.511 111.859L398.511 111.859L404.5 103.85ZM486 189.991L496 189.991L486 189.991ZM406.914 276.149L413.197 283.929L413.197 283.929L406.914 276.149ZM404.5 278.099L398.216 270.32L398.216 270.32L404.5 278.099ZM261 308.632L260.863 318.631L260.962 318.633L261.06 318.632L261 308.632ZM81.4521 306.173L81.3151 316.172L81.4521 306.173ZM260.863 64.8909L81.3152 67.3504L81.5891 87.3486L261.137 84.889L260.863 64.8909ZM410.489 95.8419C398.889 87.1671 383.453 81.1634 367.592 76.8917C351.586 72.5807 334.377 69.8346 318.676 68.0745C302.945 66.311 288.535 65.5165 278.065 65.1616C272.824 64.9839 268.555 64.9159 265.584 64.8924C264.098 64.8807 262.935 64.8801 262.136 64.8825C261.737 64.8837 261.428 64.8857 261.216 64.8874C261.11 64.8883 261.027 64.8891 260.97 64.8897C260.941 64.89 260.918 64.8902 260.902 64.8904C260.893 64.8905 260.887 64.8906 260.882 64.8907C260.879 64.8907 260.877 64.8907 260.875 64.8907C260.873 64.8908 260.871 64.8908 261 74.89C261.129 84.8891 261.128 84.8891 261.127 84.8891C261.127 84.8891 261.127 84.8891 261.128 84.8891C261.129 84.8891 261.132 84.8891 261.136 84.889C261.144 84.8889 261.159 84.8888 261.18 84.8886C261.222 84.8881 261.288 84.8875 261.378 84.8867C261.557 84.8853 261.832 84.8835 262.197 84.8824C262.927 84.8802 264.017 84.8806 265.426 84.8918C268.245 84.914 272.34 84.9789 277.388 85.1501C287.496 85.4927 301.367 86.2594 316.448 87.95C331.56 89.644 347.694 92.245 362.391 96.2035C377.234 100.201 389.861 105.39 398.511 111.859L410.489 95.8419ZM496 189.991C496 184.954 494.284 180.071 492.164 175.816C489.989 171.45 487.007 166.996 483.633 162.629C476.886 153.895 467.898 144.648 458.634 135.964C440.059 118.555 419.358 102.474 410.489 95.8419L398.511 111.859C407.097 118.279 427.145 133.862 444.956 150.557C453.885 158.925 461.999 167.339 467.806 174.856C470.709 178.615 472.868 181.934 474.263 184.735C475.714 187.647 476 189.325 476 189.992L496 189.991ZM413.197 283.929C430.407 270.031 450.598 253.738 466.467 238.06C474.402 230.221 481.555 222.248 486.785 214.543C491.847 207.086 496 198.602 496 189.991L476 189.992C476 192.526 474.595 196.891 470.238 203.31C466.049 209.481 459.921 216.413 452.411 223.833C437.392 238.671 418.039 254.312 400.632 268.369L413.197 283.929ZM410.784 285.877C411.582 285.233 412.386 284.583 413.197 283.929L400.632 268.369C399.821 269.023 399.016 269.674 398.216 270.32L410.784 285.877ZM261 308.632C261.06 318.632 261.062 318.632 261.064 318.632C261.065 318.632 261.068 318.632 261.07 318.632C261.076 318.632 261.082 318.632 261.091 318.632C261.107 318.632 261.13 318.632 261.16 318.631C261.218 318.631 261.303 318.63 261.411 318.629C261.629 318.627 261.946 318.623 262.357 318.617C263.178 318.604 264.375 318.582 265.903 318.543C268.958 318.466 273.345 318.321 278.717 318.053C289.449 317.517 304.175 316.486 320.112 314.499C336.014 312.516 353.33 309.556 369.171 305.109C384.815 300.717 399.958 294.624 410.784 285.877L398.216 270.32C390.541 276.52 378.497 281.717 363.765 285.853C349.231 289.933 332.985 292.739 317.637 294.652C302.324 296.562 288.113 297.559 277.72 298.078C272.53 298.337 268.307 298.476 265.394 298.55C263.938 298.587 262.81 298.608 262.053 298.619C261.675 298.625 261.389 298.628 261.202 298.63C261.108 298.631 261.039 298.632 260.995 298.632C260.973 298.632 260.958 298.632 260.948 298.633C260.944 298.633 260.941 298.633 260.939 298.633C260.939 298.633 260.939 298.633 260.938 298.633C260.939 298.633 260.94 298.633 261 308.632ZM81.3151 316.172L260.863 318.631L261.137 298.633L81.5891 296.174L81.3151 316.172ZM32 266.177C32 293.524 53.9705 315.797 81.3151 316.172L81.5891 296.174C65.1823 295.949 52 282.585 52 266.177L32 266.177ZM32 117.346L32 266.177L52 266.177L52 117.346L32 117.346ZM81.3152 67.3504C53.9706 67.725 32 89.9986 32 117.346L52 117.346C52 100.937 65.1823 87.5733 81.5891 87.3486L81.3152 67.3504ZM402.5 201.676C396.701 201.676 392 196.975 392 191.176L372 191.176C372 208.02 385.655 221.676 402.5 221.676L402.5 201.676ZM413 191.176C413 196.975 408.299 201.676 402.5 201.676L402.5 221.676C419.345 221.676 433 208.02 433 191.176L413 191.176ZM402.5 180.676C408.299 180.676 413 185.377 413 191.176L433 191.176C433 174.331 419.345 160.676 402.5 160.676L402.5 180.676ZM392 191.176C392 185.377 396.701 180.676 402.5 180.676L402.5 160.676C385.655 160.676 372 174.331 372 191.176L392 191.176Z" fill="black" mask="url(#path-5-inside-2_179_193)"/>
<path d="M169.673 226.427V220.674C169.673 216.057 170.668 211.796 172.656 207.89C174.68 203.984 177.61 200.841 181.445 198.462C185.281 196.082 189.95 194.893 195.455 194.893C201.101 194.893 205.842 196.065 209.677 198.408C213.548 200.752 216.477 203.877 218.466 207.783C220.455 211.69 221.449 215.986 221.449 220.674V226.427C221.449 231.043 220.437 235.305 218.413 239.211C216.424 243.117 213.494 246.26 209.624 248.639C205.753 251.018 201.03 252.208 195.455 252.208C189.879 252.208 185.174 251.018 181.339 248.639C177.504 246.26 174.592 243.117 172.603 239.211C170.65 235.305 169.673 231.043 169.673 226.427ZM188.21 220.674V226.427C188.21 228.451 188.707 230.457 189.702 232.446C190.732 234.399 192.649 235.376 195.455 235.376C198.402 235.376 200.337 234.417 201.261 232.499C202.219 230.582 202.699 228.557 202.699 226.427V220.674C202.699 218.543 202.255 216.484 201.367 214.495C200.479 212.506 198.509 211.512 195.455 211.512C192.649 211.512 190.732 212.506 189.702 214.495C188.707 216.484 188.21 218.543 188.21 220.674ZM112.571 163.998V158.245C112.571 153.557 113.583 149.261 115.607 145.354C117.667 141.448 120.614 138.323 124.45 135.979C128.285 133.636 132.919 132.464 138.352 132.464C143.999 132.464 148.739 133.636 152.575 135.979C156.445 138.323 159.375 141.448 161.364 145.354C163.352 149.261 164.347 153.557 164.347 158.245V163.998C164.347 168.685 163.335 172.964 161.31 176.835C159.322 180.706 156.392 183.795 152.521 186.104C148.651 188.412 143.928 189.566 138.352 189.566C132.777 189.566 128.072 188.394 124.237 186.05C120.401 183.707 117.489 180.599 115.501 176.729C113.548 172.858 112.571 168.614 112.571 163.998ZM131.321 158.245V163.998C131.321 166.129 131.818 168.153 132.812 170.07C133.807 171.988 135.653 172.947 138.352 172.947C141.3 172.947 143.235 171.988 144.158 170.07C145.117 168.153 145.597 166.129 145.597 163.998V158.245C145.597 156.114 145.153 154.055 144.265 152.066C143.377 150.077 141.406 149.083 138.352 149.083C135.547 149.083 133.665 150.113 132.706 152.173C131.783 154.197 131.321 156.221 131.321 158.245ZM121.626 246.881L196.626 137.79H211.754L136.754 246.881H121.626Z" fill="#6B7072"/>
<mask id="path-8-inside-3_179_193" fill="white">
<path fill-rule="evenodd" clip-rule="evenodd" d="M65.1818 141.764L240.843 104.528C240.843 104.528 341.629 83.2496 387.235 105.107C406.89 114.527 479.469 151.425 483.895 173.805C488.219 195.674 451.559 239.527 423.021 273.666C422.353 274.465 421.689 275.259 421.031 276.047C390.53 312.549 286.177 333.832 286.177 333.832L109.562 366.242C88.0433 370.191 67.3447 356.12 63.1015 334.657L34.236 188.652C29.9929 167.19 43.7796 146.301 65.1818 141.764ZM382.099 195.138C384.295 206.245 395.079 213.469 406.186 211.273C417.293 209.077 424.517 198.293 422.321 187.186C420.125 176.079 409.341 168.856 398.234 171.051C387.127 173.247 379.903 184.031 382.099 195.138Z"/>
</mask>
<path fill-rule="evenodd" clip-rule="evenodd" d="M65.1818 141.764L240.843 104.528C240.843 104.528 341.629 83.2496 387.235 105.107C406.89 114.527 479.469 151.425 483.895 173.805C488.219 195.674 451.559 239.527 423.021 273.666C422.353 274.465 421.689 275.259 421.031 276.047C390.53 312.549 286.177 333.832 286.177 333.832L109.562 366.242C88.0433 370.191 67.3447 356.12 63.1015 334.657L34.236 188.652C29.9929 167.19 43.7796 146.301 65.1818 141.764ZM382.099 195.138C384.295 206.245 395.079 213.469 406.186 211.273C417.293 209.077 424.517 198.293 422.321 187.186C420.125 176.079 409.341 168.856 398.234 171.051C387.127 173.247 379.903 184.031 382.099 195.138Z" fill="#252C37"/>
<path d="M240.843 104.528L238.778 94.7439L238.77 94.7455L240.843 104.528ZM65.1818 141.764L67.2555 151.547L65.1818 141.764ZM387.235 105.107L382.913 114.125L382.913 114.125L387.235 105.107ZM483.895 173.805L493.705 171.865L483.895 173.805ZM423.021 273.666L430.693 280.079L430.693 280.079L423.021 273.666ZM421.031 276.047L413.357 269.635L413.357 269.635L421.031 276.047ZM286.177 333.832L287.982 343.668L288.079 343.65L288.176 343.631L286.177 333.832ZM109.562 366.242L111.367 376.078L109.562 366.242ZM238.77 94.7455L63.1081 131.981L67.2555 151.547L242.917 114.311L238.77 94.7455ZM391.557 96.0891C378.495 89.8289 362.187 86.933 345.8 85.8185C329.262 84.6937 311.847 85.3374 296.103 86.6559C280.328 87.977 266.038 89.9923 255.698 91.6747C250.522 92.5169 246.321 93.2781 243.401 93.8314C241.941 94.1082 240.8 94.3331 240.017 94.4904C239.625 94.569 239.323 94.6308 239.115 94.6737C239.011 94.6952 238.93 94.7119 238.874 94.7237C238.846 94.7296 238.824 94.7342 238.808 94.7376C238.799 94.7393 238.793 94.7406 238.788 94.7417C238.785 94.7422 238.783 94.7428 238.782 94.743C238.779 94.7435 238.778 94.7439 240.843 104.528C242.909 114.312 242.908 114.313 242.907 114.313C242.908 114.313 242.907 114.313 242.908 114.313C242.909 114.312 242.912 114.312 242.916 114.311C242.924 114.309 242.939 114.306 242.959 114.302C243 114.293 243.065 114.28 243.153 114.262C243.329 114.226 243.598 114.171 243.956 114.099C244.671 113.955 245.74 113.744 247.125 113.482C249.895 112.957 253.924 112.226 258.91 111.415C268.892 109.791 282.649 107.853 297.772 106.586C312.925 105.317 329.257 104.74 344.443 105.772C359.78 106.815 373.173 109.456 382.913 114.125L391.557 96.0891ZM493.705 171.865C492.728 166.924 490.097 162.467 487.193 158.704C484.212 154.842 480.423 151.052 476.266 147.422C467.953 140.163 457.342 132.834 446.569 126.112C424.971 112.636 401.544 100.875 391.557 96.0891L382.913 114.125C392.581 118.758 415.271 130.157 435.982 143.08C446.364 149.558 455.956 156.239 463.111 162.487C466.688 165.61 469.449 168.448 471.361 170.925C473.349 173.5 473.955 175.091 474.085 175.745L493.705 171.865ZM430.693 280.079C444.881 263.107 461.528 243.208 474.056 224.75C480.319 215.521 485.79 206.312 489.427 197.739C492.946 189.441 495.375 180.314 493.705 171.865L474.085 175.745C474.576 178.231 474.044 182.786 471.015 189.929C468.102 196.795 463.435 204.784 457.507 213.519C445.651 230.989 429.699 250.086 415.349 267.252L430.693 280.079ZM428.704 282.459C429.362 281.672 430.025 280.879 430.693 280.079L415.349 267.252C414.681 268.051 414.016 268.846 413.357 269.635L428.704 282.459ZM286.177 333.832C288.176 343.631 288.178 343.63 288.18 343.63C288.181 343.629 288.183 343.629 288.186 343.628C288.191 343.627 288.197 343.626 288.206 343.624C288.222 343.621 288.244 343.616 288.273 343.611C288.331 343.599 288.413 343.582 288.52 343.559C288.733 343.515 289.043 343.45 289.445 343.364C290.248 343.192 291.417 342.939 292.909 342.604C295.892 341.935 300.167 340.943 305.385 339.638C315.809 337.031 330.056 333.163 345.305 328.122C360.521 323.093 376.933 316.831 391.611 309.396C406.106 302.053 419.78 293.139 428.704 282.459L413.357 269.635C407.031 277.205 396.223 284.64 382.573 291.554C369.107 298.376 353.713 304.279 339.028 309.133C324.376 313.976 310.628 317.711 300.533 320.235C295.491 321.496 291.376 322.451 288.533 323.089C287.111 323.408 286.009 323.647 285.268 323.805C284.898 323.884 284.619 323.943 284.435 323.981C284.344 324 284.276 324.014 284.233 324.023C284.212 324.027 284.196 324.03 284.187 324.032C284.183 324.033 284.18 324.034 284.178 324.034C284.178 324.034 284.178 324.034 284.177 324.034C284.178 324.034 284.179 324.034 286.177 333.832ZM111.367 376.078L287.982 343.668L284.372 323.996L107.757 356.407L111.367 376.078ZM53.2914 336.597C58.5953 363.425 84.4686 381.014 111.367 376.078L107.757 356.407C91.618 359.368 76.094 348.815 72.9116 332.718L53.2914 336.597ZM24.4259 190.592L53.2914 336.597L72.9116 332.718L44.0461 186.713L24.4259 190.592ZM63.1081 131.981C36.3554 137.652 19.122 163.764 24.4259 190.592L44.0461 186.713C40.8638 170.616 51.2038 154.949 67.2555 151.547L63.1081 131.981ZM404.246 201.463C398.558 202.588 393.034 198.888 391.909 193.199L372.289 197.078C375.556 213.602 391.601 224.35 408.125 221.083L404.246 201.463ZM412.511 189.126C413.635 194.815 409.935 200.338 404.246 201.463L408.125 221.083C424.65 217.816 435.398 201.772 432.131 185.247L412.511 189.126ZM400.174 180.862C405.862 179.737 411.386 183.437 412.511 189.126L432.131 185.247C428.864 168.722 412.819 157.974 396.295 161.241L400.174 180.862ZM391.909 193.199C390.785 187.51 394.485 181.986 400.174 180.862L396.295 161.241C379.77 164.508 369.022 180.553 372.289 197.078L391.909 193.199Z" fill="black" mask="url(#path-8-inside-3_179_193)"/>
<path d="M180.641 270.9L179.525 265.257C178.63 260.728 178.779 256.355 179.972 252.137C181.2 247.912 183.465 244.261 186.766 241.183C190.067 238.105 194.417 236.032 199.817 234.965C205.356 233.87 210.234 234.1 214.451 235.655C218.703 237.204 222.183 239.701 224.891 243.148C227.6 246.594 229.409 250.617 230.318 255.215L231.434 260.859C232.329 265.388 232.162 269.764 230.934 273.989C229.741 278.207 227.477 281.858 224.141 284.943C220.805 288.028 216.402 290.111 210.933 291.192C205.464 292.273 200.617 292.019 196.393 290.429C192.169 288.838 188.703 286.32 185.995 282.874C183.321 279.42 181.536 275.429 180.641 270.9ZM197.71 261.662L198.826 267.305C199.219 269.291 200.095 271.163 201.457 272.921C202.846 274.637 204.916 275.223 207.668 274.679C210.56 274.108 212.273 272.792 212.806 270.731C213.375 268.664 213.453 266.585 213.04 264.495L211.924 258.852C211.511 256.761 210.676 254.827 209.419 253.048C208.162 251.27 206.036 250.676 203.04 251.269C200.288 251.813 198.6 253.16 197.975 255.311C197.385 257.454 197.297 259.571 197.71 261.662ZM112.515 220.732L111.399 215.088C110.49 210.49 110.65 206.078 111.878 201.853C113.141 197.622 115.426 193.985 118.734 190.942C122.042 187.898 126.361 185.85 131.691 184.796C137.23 183.701 142.108 183.931 146.325 185.487C150.577 187.035 154.057 189.533 156.765 192.979C159.474 196.426 161.283 200.448 162.192 205.046L163.308 210.69C164.217 215.289 164.054 219.683 162.819 223.873C161.619 228.055 159.344 231.654 155.994 234.67C152.645 237.685 148.235 239.733 142.766 240.814C137.296 241.896 132.453 241.659 128.236 240.103C124.019 238.548 120.56 236.064 117.858 232.653C115.191 229.234 113.41 225.261 112.515 220.732ZM129.793 211.452L130.909 217.095C131.322 219.186 132.203 221.075 133.55 222.763C134.897 224.452 136.895 225.034 139.542 224.511C142.434 223.939 144.147 222.623 144.68 220.563C145.249 218.495 145.327 216.417 144.914 214.327L143.798 208.683C143.385 206.593 142.55 204.658 141.293 202.88C140.036 201.101 137.91 200.508 134.914 201.1C132.162 201.644 130.515 203.019 129.974 205.226C129.461 207.391 129.401 209.466 129.793 211.452ZM137.474 300.285L189.892 178.72L204.732 175.786L152.314 297.351L137.474 300.285Z" fill="#6B7072"/>
<mask id="mask0_179_193" style="mask-type:alpha" maskUnits="userSpaceOnUse" x="247" y="191" width="221" height="149">
<rect x="247" y="191.881" width="221" height="148" fill="#D9D9D9"/>
</mask>
<g mask="url(#mask0_179_193)">
<path d="M93.8239 336.348C97.6404 326.871 124.275 352.7 127.648 345.824C135.124 330.58 146.972 359.961 163.832 355.829C177.57 352.461 160.109 366.175 171.363 365.287C184.93 364.216 180.928 359.76 189.187 364.655C193.587 367.262 213.697 373.788 219.642 377.564C221.563 377.894 227.889 377.21 237.827 371.828C250.249 365.101 249.201 368.97 260.444 368.845C271.688 368.72 291.079 361.937 298.651 351.062C304.708 342.362 341.833 324.017 335.053 303.956C328.272 283.896 369.319 247.275 369.319 247.275C369.319 247.275 403.598 224.092 413.486 200.773C417.151 192.128 430.91 172.517 422.449 168.736C404.851 160.873 438.426 134.816 453.5 109.337C465.13 89.6779 476.667 81.8133 486.179 60.9637C490.047 52.4858 494.932 48.0023 494.628 38.5984C494.361 30.3406 494.417 16.0802 486.92 18.9155C481.617 20.921 482.312 26.8288 480.94 32.4826C479.819 37.1044 480.892 40.0151 479.787 44.6413C475.95 60.7108 471.676 59.6328 464.017 71.6573C461.198 76.0821 451.702 83.4977 450.805 88.7257C449.508 96.2923 447.802 99.268 444.011 107.078C431.212 133.441 426.486 136.478 419.241 137.202C405.857 138.538 415.967 151.722 407.107 166.633C398.246 181.545 407.658 185.891 392.314 204.384C376.971 222.877 362.155 213.881 368.548 230.203C372.258 239.678 360.212 236.38 350.472 240.346C343.876 243.032 342.537 258.953 339.341 265.473C331.853 280.748 336.807 293.769 320.137 293.331C306.01 292.96 335.227 322.253 314.432 326.824C308.176 328.199 292.627 333.848 288.373 338.549C284.12 343.249 273.757 353.406 266.337 356.428C257.061 360.204 249.07 351.108 233.315 360.307C227.556 363.669 219.549 358.12 216.305 359.441C213.71 360.497 207.06 358.119 197.056 358.667C187.053 359.214 181.593 346.092 181.593 346.092C178.994 344.362 167.96 345.797 161.46 345.662C147.059 345.361 162.176 337.886 151.939 333.706C128.685 324.21 113.574 335.969 99.1197 325.156C97.1142 325.778 92.8545 327.552 91.86 329.671C90.6169 332.321 91.0008 337.013 93.8239 336.348Z" fill="#E1213E"/>
</g>
</svg>
