<svg width="467" height="285" viewBox="0 0 467 285" fill="none" xmlns="http://www.w3.org/2000/svg">
	<path d="M237.551 173.944C256.197 224.755 312.506 250.829 363.313 232.184C414.007 213.581 440.197 157.229 421.553 106.422L329.552 140.183L295.791 48.1822C244.98 66.828 218.905 123.134 237.551 173.944Z" fill="#252C37" />
	<path fill-rule="evenodd" clip-rule="evenodd" d="M329.845 119.471C330.473 120.897 330.896 122.146 331.193 123.023C331.44 123.751 331.6 124.222 331.717 124.326C332.3 125.753 333.424 127.197 333.888 127.603C334.109 127.797 334.529 127.838 335.026 127.783C338.889 127.523 350.346 122.539 351.376 122.066C352.569 121.518 368.165 116.101 372.036 115.419C375.907 114.738 391.04 109.832 393.646 108.237C395.523 107.088 401.646 104.713 405.907 103.06C407.56 102.419 408.932 101.887 409.667 101.577C410.353 101.288 411.743 100.713 413.43 100.015L413.432 100.014L413.434 100.013C418.219 98.0335 425.38 95.0707 425.551 94.8816C426.596 94.474 427.655 93.7796 428.313 93.2554C428.835 93.1355 429.14 92.7821 429.12 92.5454C428.618 91.7438 428.343 91.3935 428.092 91.0727C427.643 90.5009 427.268 90.0226 425.808 87.2504C424.182 84.1621 421.011 79.9209 417.957 75.8371C415.661 72.7673 413.432 69.7864 411.976 67.4511C408.583 62.0093 395.713 48.6934 393.087 46.901C390.462 45.1086 371.657 36.1538 370.473 35.7744C370.182 35.6813 369.488 35.4325 368.533 35.0903C364.399 33.6084 355.378 30.3747 353.069 30.4439C350.559 30.5191 344.33 29.6088 341.314 29.1681C340.531 29.0537 339.965 28.971 339.736 28.9452C338.431 28.7986 327.218 28.2128 324.699 28.6046C323.492 28.7924 322.217 29.1275 320.99 29.4498C319.657 29.8 318.382 30.1351 317.314 30.2496C315.263 30.4695 312.275 31.0334 310.867 31.5501C310.163 31.8085 308.243 32.38 306.323 32.9515C304.402 33.523 302.482 34.0945 301.778 34.3529C301.646 34.4014 301.527 34.4491 301.421 34.4965C301.384 34.5018 301.346 34.5113 301.308 34.5255C301.067 34.6139 300.812 34.6839 300.57 34.7506C299.654 35.0026 298.908 35.2079 299.688 36.185C300.386 37.0593 300.555 37.7576 300.716 38.4237C300.783 38.6991 300.848 38.969 300.949 39.2436C301.028 39.4597 301.143 39.8719 301.284 40.3776C301.633 41.6295 302.141 43.4548 302.666 44.2986C303.36 45.4162 303.97 48.1123 304.625 51.0064C305.422 54.5301 306.285 58.3474 307.449 59.9673C309.569 62.9176 315.277 78.107 315.545 82.0288C315.792 85.6661 321.297 100.976 322.933 103.556C324.112 105.415 326.584 111.5 328.303 115.734C328.97 117.377 329.524 118.741 329.845 119.471Z" fill="#17D0A8" />
	<path d="M275.634 224.025C273.849 224.705 271.373 226.214 268.701 227.842C263.637 230.928 257.868 234.443 254.757 233.566C250.005 232.226 241.943 214.524 241.943 214.524L241.951 214.504C239.201 211.385 236.659 209.069 234.926 208.811C231.837 208.35 231.856 205.741 231.875 203.151C231.89 201.121 231.905 199.104 230.421 198.145C227.044 195.964 222.757 192.739 220.851 184.208C218.945 175.676 204.568 161.129 196.608 159.246C190.445 157.788 181.249 140.468 175.253 129.175C172.496 123.981 170.415 120.062 169.617 119.547C169.224 119.293 168.38 118.702 167.201 117.876C161.277 113.727 146.904 103.659 138.861 100.742L135.66 100.372C130.646 97.9368 114.802 116.115 103.676 121.894C98.4223 124.624 93.8239 127.013 91.1437 127.874C87.349 129.094 85.459 130.446 84.08 131.432C82.4226 132.618 81.5032 133.275 78.902 132.542C76.4173 131.841 68.0859 140.186 62.5168 143.418C60.5407 144.565 58.7422 145.609 57.3851 146.301C52.4439 144.907 35.0646 163.998 29.1177 169.626C27.5233 171.135 27.3944 171.369 27.3096 171.524C27.1967 171.729 27.1619 171.792 23.8529 174.53C22.0899 175.989 19.7958 178.001 17.3886 180.113C11.8832 184.943 5.78619 190.291 4.09879 190.722C-0.302776 191.844 -0.240939 191.71 0.320294 190.608C1.38074 189.641 2.94278 188.515 4.77315 187.196C9.86135 183.53 17.0231 178.37 21.2474 170.961C23.3744 167.23 28.3156 160.614 32.4828 157.694C35.5463 155.547 39.152 153.021 43.2864 149.234C48.3417 144.603 61.4734 138.005 74.9113 127.639C86.1544 121.99 96.4927 116.796 98.5828 114.063C101.547 110.186 112.256 96.5291 119.607 94.7461C123.554 93.4593 130.623 91.5513 132.793 91.6799C134.184 91.7624 141.045 92.7119 142.866 94.8006C143.644 94.8467 166.302 108.57 169.878 112.248C170.878 113.276 172.609 115.277 174.695 117.686C180.07 123.895 187.797 132.82 191.398 134.817C196.396 137.589 212.671 161.333 215.156 168.413C217.641 175.493 237.914 190.666 239.669 192.256C240.254 192.786 241.726 195.674 243.612 199.372C246.797 205.618 251.161 214.177 254.421 217.596L255.04 218.194C255.304 218.425 255.559 218.616 255.803 218.761C257.716 218.37 259.076 218.754 260.544 219.168C263.551 220.016 267.006 220.99 276.586 215.677C281.244 213.093 282.043 211.508 282.666 210.272C283.153 209.307 283.532 208.555 285.558 207.706C286.892 207.147 289.341 204.929 292.149 202.386C297.115 197.888 300.76 201.036 303.787 201.89C306.81 202.742 323.439 190.27 329.235 184.194C331.745 181.563 335.115 178.51 338.837 175.138L338.839 175.136C340.488 173.642 342.205 172.086 343.948 170.477C345.737 168.824 348.549 165.647 351.49 162.324C357.876 155.109 364.867 147.209 363.303 152.755C363.129 153.374 364.292 152.991 365.388 152.63C366.419 152.291 367.391 151.971 367.138 152.521C367.713 153.483 363.664 157.519 358.825 162.341C355.703 165.452 352.252 168.892 349.503 172.044C345.544 176.584 340.559 179.844 335.499 183.152C329.365 187.163 323.123 191.245 318.471 197.765C309.99 209.651 280.802 222.056 275.634 224.025Z" fill="#17D0A8" />
</svg>
