<svg width="147" height="38" viewBox="0 0 147 38" fill="none" xmlns="http://www.w3.org/2000/svg">
<path d="M25.351 0.461203L48.8827 36.896C49.2628 37.4846 48.6532 38.2081 47.9996 37.944C45.3128 36.8581 40.7929 35.0311 38.8803 34.2575C37.8586 33.8445 26.004 29.0508 26.004 29.0508L24.4999 28.4151L22.996 29.0508C22.996 29.0508 11.1414 33.8445 10.1197 34.2575C8.20728 35.031 3.68716 36.8581 1.00038 37.944C0.346832 38.2081 -0.262794 37.4846 0.117325 36.896L23.6488 0.461203C24.0461 -0.153734 24.9539 -0.153734 25.3512 0.461203H25.351ZM17.7243 25.6701L20.282 27.6585L23.7257 23.5944C24.1295 23.1179 24.8701 23.1179 25.2738 23.5944L28.7175 27.6585L31.2753 25.6701C31.6422 25.385 32.1588 25.3854 32.5251 25.6714L35.1265 27.7026L25.383 10.3286C24.9983 9.64256 24.0012 9.64256 23.6166 10.3286L13.8731 27.7026L16.4745 25.6714C16.8408 25.3854 17.3574 25.3848 17.7243 25.6701Z" fill="#FCFEFF"/>
<path d="M73.4 10.59L66.5 27H61.76L71.12 6H75.71L85.1 27H80.27L73.4 10.59ZM96.0451 11.19V14.64H91.9651V21.45C91.9651 22.89 92.7151 23.67 94.0051 23.67C94.7251 23.67 95.4151 23.46 95.9551 23.07L97.1551 26.22C96.1951 26.88 94.8151 27.21 93.4051 27.21C89.6551 27.21 87.4951 25.32 87.4951 21.54V14.64H84.9751V11.19H87.4951V7.32H91.9651V11.19H96.0451ZM102.646 17.55H110.836C110.536 15.45 108.946 14.07 106.726 14.07C104.536 14.07 102.976 15.45 102.646 17.55ZM107.296 27.21C101.806 27.21 98.2055 23.76 98.2055 18.93C98.2055 14.13 101.836 10.68 106.726 10.68C111.466 10.68 115.036 13.86 115.036 19.02C115.036 19.35 115.006 19.86 114.976 20.22H102.676C103.126 22.32 104.896 23.64 107.446 23.64C109.156 23.64 110.446 23.1 111.556 22.02L113.926 24.63C112.456 26.31 110.206 27.21 107.296 27.21ZM122.743 19.35V27H118.303V10.89H122.533V13.08C123.673 11.49 125.593 10.68 128.143 10.68V14.82C127.753 14.76 127.453 14.73 127.123 14.73C124.483 14.73 122.743 16.23 122.743 19.35ZM139.563 21.93V20.22H136.203C133.893 20.22 133.233 21.06 133.233 22.17C133.233 23.4 134.253 24.18 135.963 24.18C137.583 24.18 138.993 23.43 139.563 21.93ZM134.883 27.21C131.133 27.21 128.883 25.17 128.883 22.35C128.883 19.56 130.833 17.55 135.753 17.55H139.563V17.49C139.563 15.45 138.333 14.25 135.753 14.25C134.043 14.25 132.243 14.82 131.073 15.75L129.453 12.63C131.193 11.34 133.803 10.68 136.353 10.68C141.213 10.68 144.033 12.93 144.033 17.73V27H139.833V25.02C138.933 26.46 137.253 27.21 134.883 27.21Z" fill="#FCFEFF"/>
</svg>
