<svg width="216" height="38" viewBox="0 0 216 38" fill="none" xmlns="http://www.w3.org/2000/svg">
<path d="M25.351 0.461203L48.8827 36.896C49.2628 37.4846 48.6532 38.2081 47.9996 37.944C45.3128 36.8581 40.7929 35.0311 38.8803 34.2575C37.8586 33.8445 26.004 29.0508 26.004 29.0508L24.4999 28.4151L22.996 29.0508C22.996 29.0508 11.1414 33.8445 10.1197 34.2575C8.20728 35.031 3.68716 36.8581 1.00038 37.944C0.346832 38.2081 -0.262794 37.4846 0.117325 36.896L23.6488 0.461203C24.0461 -0.153734 24.9539 -0.153734 25.3512 0.461203H25.351ZM17.7243 25.6701L20.282 27.6585L23.7257 23.5944C24.1295 23.1179 24.8701 23.1179 25.2738 23.5944L28.7175 27.6585L31.2753 25.6701C31.6422 25.385 32.1588 25.3854 32.5251 25.6714L35.1265 27.7026L25.383 10.3286C24.9983 9.64256 24.0012 9.64256 23.6166 10.3286L13.8731 27.7026L16.4745 25.6714C16.8408 25.3854 17.3574 25.3848 17.7243 25.6701Z" fill="#FCFEFF"/>
<path d="M66.5 27H61.76L71.12 6H75.71L85.1 27H80.27L73.4 10.59L66.5 27ZM87.4316 27V6H92.0516V23.19H102.672V27H87.4316ZM107.865 27V9.81H101.085V6H119.265V9.81H112.485V27H107.865ZM121.973 27V6H126.593V27H121.973ZM136.078 27V9.81H129.298V6H147.478V9.81H140.698V27H136.078ZM159.074 27.33C157.594 27.33 156.274 27.12 155.114 26.7C153.954 26.28 152.964 25.67 152.144 24.87C151.344 24.05 150.724 23.05 150.284 21.87C149.864 20.67 149.654 19.3 149.654 17.76V6H154.274V17.61C154.274 19.65 154.694 21.13 155.534 22.05C156.374 22.95 157.564 23.4 159.104 23.4C160.644 23.4 161.834 22.95 162.674 22.05C163.514 21.13 163.934 19.65 163.934 17.61V6H168.494V17.76C168.494 19.3 168.274 20.67 167.834 21.87C167.414 23.05 166.794 24.05 165.974 24.87C165.174 25.67 164.194 26.28 163.034 26.7C161.874 27.12 160.554 27.33 159.074 27.33ZM178.096 16.5V23.19H182.686C183.766 23.19 184.736 23.04 185.596 22.74C186.476 22.42 187.226 21.97 187.846 21.39C188.466 20.79 188.946 20.08 189.286 19.26C189.626 18.44 189.796 17.52 189.796 16.5C189.796 15.48 189.626 14.56 189.286 13.74C188.946 12.92 188.466 12.22 187.846 11.64C187.226 11.04 186.476 10.59 185.596 10.29C184.736 9.97 183.766 9.81 182.686 9.81H173.476V6H182.926C184.646 6 186.206 6.25 187.606 6.75C189.026 7.25 190.246 7.96 191.266 8.88C192.286 9.78 193.076 10.88 193.636 12.18C194.196 13.46 194.476 14.9 194.476 16.5C194.476 18.08 194.196 19.52 193.636 20.82C193.076 22.12 192.286 23.23 191.266 24.15C190.246 25.05 189.026 25.75 187.606 26.25C186.206 26.75 184.646 27 182.926 27H173.476V16.5H178.096ZM198.262 14.52H213.982V18.15H198.262V14.52ZM198.262 6H213.982V9.75H198.262V6ZM198.262 27H213.982V23.25H198.262V27Z" fill="#FCFEFF"/>
</svg>
