<?xml version="1.0" encoding="utf-8"?>
<!-- Generator: Adobe Illustrator 17.1.0, SVG Export Plug-In . SVG Version: 6.00 Build 0)  -->
<!DOCTYPE svg PUBLIC "-//W3C//DTD SVG 1.1//EN" "http://www.w3.org/Graphics/SVG/1.1/DTD/svg11.dtd">
<svg version="1.1" id="Layer_1" xmlns="http://www.w3.org/2000/svg" xmlns:xlink="http://www.w3.org/1999/xlink" x="0px" y="0px"
	 viewBox="0 0 900 600" enable-background="new 0 0 900 600" xml:space="preserve">
<path fill="none" d="M0,0h900v600H0V0z"/>
<path fill="#F0335F" d="M561.1,108c-0.5-0.2-0.9-0.3-1.4-0.5c-0.2,0-0.3-0.1-0.5-0.1c-0.2,0-0.3-0.1-0.5-0.1c-0.2,0-0.3-0.1-0.5-0.1
	c-0.2,0-0.3-0.1-0.5-0.1c-0.3-0.1-0.7-0.1-1-0.2c-0.6-0.1-1.2-0.1-1.8-0.2c-0.1,0-0.2,0-0.4,0c-0.4,0-0.7,0-1.1,0H386.7
	c-1.5,0-3,0.2-4.5,0.5c-9.5,1.9-16.8,9.9-17.8,19.8c-0.1,0.8-0.1,1.5-0.1,2.3v341.6c0,9.8,6.2,18.1,14.8,21.2c0,0,0.1,0,0.1,0
	c0.4,0.2,0.9,0.3,1.3,0.4c0.2,0,0.3,0.1,0.5,0.1c0.2,0,0.3,0.1,0.5,0.1c0.3,0.1,0.7,0.2,1,0.2c0.2,0,0.4,0.1,0.6,0.1l0.5,0.1
	c0.2,0,0.4,0.1,0.6,0.1c0.1,0,0.3,0,0.4,0c0.2,0,0.5,0,0.7,0.1c0.1,0,0.2,0,0.4,0c0.4,0,0.7,0,1.1,0h166.7c0.8,0,1.5,0,2.3-0.1
	c10.6-1.1,19-9.5,20.1-20.1c0.1-0.8,0.1-1.5,0.1-2.3V129.2C575.9,119.4,569.7,111.1,561.1,108L561.1,108z"/>
<path fill="#FFFFFF" d="M412.7,336.3c-0.8,0.4-1.8,0.1-2.2-0.7c-0.2-0.3-0.2-0.7-0.2-1l0.9-5l-3.7-3.5c-0.6-0.6-0.7-1.6-0.1-2.3
	c0.3-0.3,0.6-0.4,0.9-0.5l5.1-0.7l2.3-4.6c0.4-0.8,1.4-1.1,2.2-0.7c0.3,0.2,0.6,0.4,0.7,0.7l2.3,4.6l5.1,0.7
	c0.9,0.1,1.5,0.9,1.4,1.8c-0.1,0.4-0.2,0.7-0.5,1l-3.7,3.5l0.9,5c0.2,0.9-0.4,1.7-1.3,1.9c-0.4,0.1-0.7,0-1-0.2l-4.6-2.4
	L412.7,336.3z M438.7,336.3c-0.8,0.4-1.8,0.1-2.2-0.7c-0.2-0.3-0.2-0.7-0.2-1l0.9-5l-3.7-3.5c-0.6-0.6-0.7-1.6-0.1-2.3
	c0.3-0.3,0.6-0.4,0.9-0.5l5.1-0.7l2.3-4.6c0.4-0.8,1.4-1.1,2.2-0.7c0.3,0.2,0.6,0.4,0.7,0.7l2.3,4.6l5.1,0.7
	c0.9,0.1,1.5,0.9,1.4,1.8c-0.1,0.4-0.2,0.7-0.5,1l-3.7,3.5l0.9,5c0.2,0.9-0.4,1.7-1.3,1.9c-0.4,0.1-0.7,0-1-0.2l-4.6-2.4
	L438.7,336.3z M464.7,336.3c-0.8,0.4-1.8,0.1-2.2-0.7c-0.2-0.3-0.2-0.7-0.2-1l0.9-5l-3.7-3.5c-0.6-0.6-0.7-1.6-0.1-2.3
	c0.3-0.3,0.6-0.4,0.9-0.5l5.1-0.7l2.3-4.6c0.4-0.8,1.4-1.1,2.2-0.7c0.3,0.2,0.6,0.4,0.7,0.7l2.3,4.6l5.1,0.7
	c0.9,0.1,1.5,0.9,1.4,1.8c-0.1,0.4-0.2,0.7-0.5,1l-3.7,3.5l0.9,5c0.2,0.9-0.4,1.7-1.3,1.9c-0.4,0.1-0.7,0-1-0.2l-4.6-2.4
	L464.7,336.3z M491.7,336.3c-0.8,0.4-1.8,0.1-2.2-0.7c-0.2-0.3-0.2-0.7-0.2-1l0.9-5l-3.7-3.5c-0.6-0.6-0.7-1.6-0.1-2.3
	c0.3-0.3,0.6-0.4,0.9-0.5l5.1-0.7l2.3-4.6c0.4-0.8,1.4-1.1,2.2-0.7c0.3,0.2,0.6,0.4,0.7,0.7l2.3,4.6l5.1,0.7
	c0.9,0.1,1.5,0.9,1.4,1.8c-0.1,0.4-0.2,0.7-0.5,1l-3.7,3.5l0.9,5c0.2,0.9-0.4,1.7-1.3,1.9c-0.4,0.1-0.7,0-1-0.2l-4.6-2.4
	L491.7,336.3z M518.7,336.3c-0.8,0.4-1.8,0.1-2.2-0.7c-0.2-0.3-0.2-0.7-0.2-1l0.9-5l-3.7-3.5c-0.6-0.6-0.7-1.6-0.1-2.3
	c0.3-0.3,0.6-0.4,0.9-0.5l5.1-0.7l2.3-4.6c0.4-0.8,1.4-1.1,2.2-0.7c0.3,0.2,0.6,0.4,0.7,0.7l2.3,4.6l5.1,0.7
	c0.9,0.1,1.5,0.9,1.4,1.8c-0.1,0.4-0.2,0.7-0.5,1l-3.7,3.5l0.9,5c0.2,0.9-0.4,1.7-1.3,1.9c-0.4,0.1-0.7,0-1-0.2l-4.6-2.4
	L518.7,336.3L518.7,336.3z"/>
<circle fill="#E1E4E5" cx="692.4" cy="269.9" r="4.9"/>
<circle fill="#E1E4E5" cx="178.2" cy="300" r="4.9"/>
<circle fill="#E1E4E5" cx="591.9" cy="176.9" r="4.9"/>
<path fill="none" stroke="#E1E4E5" stroke-width="4" stroke-linecap="round" stroke-linejoin="round" d="M620.3,307.6l-7.6-7.6
	l7.6-7.6l7.6,7.6L620.3,307.6z"/>
<path fill="#F0335F" stroke="#F0335F" stroke-width="13.417" stroke-linecap="round" stroke-linejoin="round" d="M322.1,341.3H204.9
	c-5.1,0-9.3,3.9-9.6,9l-7.7,115.3c-0.7,11.1,8.1,20.6,19.3,20.6h113.3c11.2,0,20-9.5,19.3-20.6l-7.7-115.3
	C331.4,345.3,327.2,341.3,322.1,341.3z"/>
<path fill="#FFFFFF" d="M250.7,436.5c-2.2,1.1-4.9,0.3-6.1-1.9c-0.5-0.9-0.6-1.9-0.4-2.9l2.4-13.9l-10.2-9.8
	c-1.8-1.7-1.9-4.6-0.1-6.4c0.7-0.7,1.6-1.2,2.6-1.3l14.2-2l6.4-12.8c1.1-2.2,3.8-3.1,6-2c0.9,0.4,1.6,1.2,2,2l6.4,12.8l14.2,2
	c2.5,0.3,4.2,2.6,3.8,5.1c-0.1,1-0.6,1.9-1.3,2.6l-10.2,9.8l2.4,13.9c0.4,2.4-1.2,4.8-3.6,5.2c-1,0.2-2,0-2.9-0.4l-12.8-6.6
	L250.7,436.5L250.7,436.5z"/>
<path fill="none" stroke="#F0335F" stroke-width="13.417" stroke-linecap="round" stroke-linejoin="round" d="M292.5,359v-38.6l0,0
	c0-16-13-29-29-29h0c-16,0-29,13-29,29V359"/>
<path fill="#E1E4E5" d="M331.2,215.2c-0.6,0.3-1.3,0.1-1.6-0.5c-0.1-0.2-0.2-0.5-0.1-0.8l0.6-3.7l-2.7-2.6c-0.5-0.5-0.5-1.2,0-1.7
	c0.2-0.2,0.4-0.3,0.7-0.4l3.8-0.5l1.7-3.4c0.3-0.6,1-0.8,1.6-0.5c0.2,0.1,0.4,0.3,0.5,0.5l1.7,3.4l3.8,0.5c0.7,0.1,1.1,0.7,1,1.4
	c0,0.3-0.2,0.5-0.4,0.7l-2.7,2.6l0.6,3.7c0.1,0.6-0.3,1.3-1,1.4c-0.3,0-0.5,0-0.8-0.1l-3.4-1.8L331.2,215.2L331.2,215.2z
	 M603.7,229.3c-0.8,0.4-1.8,0.1-2.2-0.7c-0.2-0.3-0.2-0.7-0.2-1l0.9-5l-3.7-3.5c-0.6-0.6-0.7-1.6-0.1-2.3c0.3-0.3,0.6-0.4,0.9-0.5
	l5.1-0.7l2.3-4.6c0.4-0.8,1.4-1.1,2.2-0.7c0.3,0.2,0.6,0.4,0.7,0.7l2.3,4.6l5.1,0.7c0.9,0.1,1.5,0.9,1.4,1.8c-0.1,0.4-0.2,0.7-0.5,1
	l-3.7,3.5l0.9,5c0.2,0.9-0.4,1.7-1.3,1.9c-0.4,0.1-0.7,0-1-0.2l-4.6-2.4L603.7,229.3L603.7,229.3z"/>
<path fill="#FFFFFF" d="M506.8,219.7v47.8c0.1,5-3.3,9.4-8.1,10.8c-16.7,4-34.1,4-50.8,0c-4.8-1.3-8.2-5.7-8.1-10.8v-47.8"/>
<path fill="none" stroke="#FFFFFF" stroke-width="7.76" stroke-linecap="round" stroke-linejoin="round" d="M506.8,219.7v47.8
	c0.1,5-3.3,9.4-8.1,10.8c-16.7,4-34.1,4-50.8,0c-4.8-1.3-8.2-5.7-8.1-10.8v-47.8"/>
<path fill="#FFFFFF" d="M506.8,230.9l18-4.2c3-0.7,4.9-3.7,4.2-6.7c0-0.1,0-0.2-0.1-0.2l-6.8-23.7c-1.8-6.2-6.1-11.3-12-14.1
	l-10-4.7c-3-1.4-6.2-2.1-9.5-2.1h-34.7c-3.3,0-6.5,0.7-9.5,2.1l-10,4.7c-5.8,2.7-10.2,7.9-12,14.1l-6.8,23.7c-0.8,3,0.9,6.1,3.8,6.9
	c0.1,0,0.2,0,0.3,0.1l18,4.2"/>
<path fill="none" stroke="#FFFFFF" stroke-width="7.76" stroke-linecap="round" stroke-linejoin="round" d="M506.8,230.9l18-4.2
	c3-0.7,4.9-3.7,4.2-6.7c0-0.1,0-0.2-0.1-0.2l-6.8-23.7c-1.8-6.2-6.1-11.3-12-14.1l-10-4.7c-3-1.4-6.2-2.1-9.5-2.1h-34.7
	c-3.3,0-6.5,0.7-9.5,2.1l-10,4.7c-5.8,2.7-10.2,7.9-12,14.1l-6.8,23.7c-0.8,3,0.9,6.1,3.8,6.9c0.1,0,0.2,0,0.3,0.1l18,4.2"/>
<path fill="#F0335F" stroke="#F0335F" stroke-width="10.25" stroke-linecap="round" stroke-linejoin="round" d="M716.8,487.9h-88.6
	c-12.7,0-22.8-10.7-22.1-23.4l4.5-81.6c0.9-15.6,13.8-27.9,29.5-27.9H705c15.7,0,28.6,12.2,29.5,27.9l4.5,81.6
	C739.7,477.2,729.6,487.9,716.8,487.9z"/>
<path fill="none" stroke="#FFFFFF" stroke-width="8.625" stroke-linecap="round" stroke-linejoin="round" d="M695.2,376.1
	c0,11.3-10.2,20.5-22.7,20.5c-12.5,0-22.7-9.2-22.7-20.5"/>
<path fill="#FFFFFF" d="M525,411H411c-2.2,0-4,1.8-4,4l0,0c0,2.2,1.8,4,4,4h114c2.2,0,4-1.8,4-4l0,0C529,412.8,527.2,411,525,411z"
	/>
<path fill="#FFFFFF" d="M516,387H411c-2.2,0-4,1.8-4,4l0,0c0,2.2,1.8,4,4,4h105c2.2,0,4-1.8,4-4l0,0C520,388.8,518.2,387,516,387z"
	/>
<path fill="#FFFFFF" d="M530,363H411c-2.2,0-4,1.8-4,4l0,0c0,2.2,1.8,4,4,4h119c2.2,0,4-1.8,4-4l0,0C534,364.8,532.2,363,530,363z"
	/>
<path fill="#F0335F" d="M687.5,235c-17.9,0-32.5-14.6-32.5-32.5s14.6-32.5,32.5-32.5s32.5,14.6,32.5,32.5S705.4,235,687.5,235z"/>
<path fill="none" stroke="#FFFFFF" stroke-width="4.883" stroke-linecap="round" stroke-linejoin="round" d="M698.3,197.6
	l-13.5,13.8l-8.1-8.3"/>
<path fill="#F0335F" d="M626.5,175c-10.2,0-18.5-8.3-18.5-18.5s8.3-18.5,18.5-18.5s18.5,8.3,18.5,18.5S636.7,175,626.5,175z"/>
<path fill="none" stroke="#FFFFFF" stroke-width="2.892" stroke-linecap="round" stroke-linejoin="round" d="M632.7,153.7l-7.7,7.8
	l-4.6-4.7"/>
<path fill="#F0335F" d="M233,186h60c11,0,20,9,20,20v35.6c0,11-9,20-20,20h-60c-11,0-20-9-20-20V206C213,195,222,186,233,186z"/>
<path fill="#F0335F" d="M267.5,247.8l5,5c2.7,2.7,2.7,7.2,0,9.9l-5,5c-2.7,2.7-7.2,2.7-9.9,0l-5-5c-2.7-2.7-2.7-7.2,0-9.9l5-5
	C260.4,245.1,264.8,245.1,267.5,247.8z"/>
<path fill="#FFFFFF" d="M273.2,202.3c8.7,0,14.6,8.2,14.6,15.8c0,15.5-24.3,28.1-24.8,28.1c-0.4,0-24.8-12.6-24.8-28.1
	c0-7.6,5.9-15.8,14.6-15.8c5,0,8.3,2.5,10.2,4.7C264.9,204.7,268.2,202.3,273.2,202.3L273.2,202.3z"/>
</svg>
