<svg width="808" height="749" viewBox="0 0 808 749" fill="none" xmlns="http://www.w3.org/2000/svg">
	<path d="M224.815 676.931C229.282 678.366 252.385 682.59 252.947 682.519C255.339 683.36 258.341 683.552 259.347 683.425C261.034 683.212 264.479 683.348 266.341 682.255C267.724 681.444 256.338 679.456 254.208 678.932C246.542 677.043 227.518 673.447 224.88 672.923C222.243 672.399 182.709 657.967 174.901 654.953C167.092 651.94 153.479 645.946 147.533 641.841C141.586 637.736 136.874 636.617 133.357 635.918C129.841 635.22 128.71 630.792 124.456 631.043C120.203 631.295 99.0271 621.971 96.073 621.202C93.1189 620.432 72.675 614.72 68.805 614.007C64.451 613.204 43.012 597.021 34.6085 596.083C26.2051 595.145 27.0901 595.811 23.3573 592.997C19.063 589.76 14.7218 588.591 11.2159 585.499C6.94313 581.731 10.4154 578.336 14.7158 573.499C18.7151 569.002 25.2146 566.002 29.2146 563.502C33.2146 561.002 39.6282 552.619 45.2146 551.502C50.2136 550.503 46.2146 549.002 42.7146 549.502C33.1006 550.876 24.714 563.004 15.7146 569.502C7.56418 575.387 -0.428546 576.529 4.71583 583.999C9.86021 591.469 26.3917 603.406 31.5954 603.891C36.799 604.377 69.5195 621.003 71.3487 621.915C73.178 622.826 98.0503 627.808 102.692 628.365C107.333 628.921 128.088 639.441 130.163 640.036C132.238 640.631 157.493 650.582 163.052 653.879C168.611 657.177 192.741 667.27 197.699 668.072C202.657 668.874 220.349 675.495 224.815 676.931Z" fill="url(#paint0_linear_104_126)" />
	<path d="M460.5 549.107C458.454 548.418 434.645 535.303 431.072 534.25C427.5 533.197 428.515 538.544 431.072 538.107C434 537.607 440 543.107 440 543.107L446.026 546.984C451.779 551.357 456.435 552.69 459.916 553.548C463.397 554.407 464.324 558.882 468.585 558.825C472.845 558.768 493.573 569.049 496.489 569.952C499.405 570.856 519.566 577.496 523.4 578.385C527.713 579.386 543.622 580.977 551.001 585.107C558 589.025 558.4 590.625 562 593.607C566.142 597.037 562 604.107 559.5 605.107C554.211 607.222 540.677 617.412 536.16 622.047C531.96 626.357 525.33 629.056 521.22 631.371C517.11 633.686 510.32 641.767 504.688 642.628C499.649 643.398 503.575 645.08 507.094 644.74C516.761 643.807 525.693 632.074 534.98 625.994C543.39 620.488 544.001 620.606 551.001 614.606C558.001 608.607 572 601.024 567 592.607C564.331 588.113 556.786 584.602 555 583.607C553.214 582.613 489.111 559.592 484.5 558.825C479.889 558.057 462.546 549.796 460.5 549.107Z" fill="url(#paint1_linear_104_126)" />
	<mask id="mask0_104_126" style="mask-type:alpha" maskUnits="userSpaceOnUse" x="153" y="0" width="655" height="544">
		<path d="M406.5 285.5V463.5L433.5 513.5L728.5 544L807.5 365L206 0.5L153 254.5C212.833 253.167 339.1 250.5 365.5 250.5C391.9 250.5 403.833 273.833 406.5 285.5Z" fill="#D9D9D9" />
	</mask>
	<g mask="url(#mask0_104_126)">
		<path fill-rule="evenodd" clip-rule="evenodd" d="M292.533 102.294C293.422 102.495 321.747 124.166 327.353 128.68C328.92 129.941 331.731 132.354 335.116 135.259L335.117 135.26C343.844 142.749 356.387 153.514 361.285 156.291C368.083 160.145 396.67 187.942 402.55 195.764C407.791 202.738 434.083 221.932 441.609 227.426L441.614 227.429C442.527 228.096 443.163 228.56 443.451 228.776C444.316 229.425 447.368 232.684 451.314 236.9C459.481 245.624 471.481 258.443 475.867 260.684C482.372 264.009 509.465 293.323 511.526 295.644C513.587 297.965 553.478 328.089 560.872 331.615C568.266 335.14 604.157 364.883 614.158 377.348C623.741 389.293 647.176 410.175 659.099 420.8L659.1 420.801L659.102 420.802C659.62 421.264 660.116 421.706 660.588 422.127C663.174 424.433 665.497 426.267 667.608 427.935C671.059 430.66 673.945 432.94 676.5 436.107C676.647 437.104 675.613 440.307 672.582 439.692C672.397 439.68 672.203 439.652 672 439.607C667.5 438.607 655.5 434.915 651.5 433.607C649.897 433.083 648.929 432.551 647.953 432.013C646.198 431.048 644.417 430.067 638.872 429.097C630.391 427.612 611.871 421.118 610.008 419.186C608.146 417.253 597.092 415.675 594.5 416.107L594.506 416.088C594.082 416.206 593.446 416.216 592.432 416.138C589.681 415.926 588.401 417.176 587.236 418.313C586.781 418.757 586.344 419.183 585.844 419.499C582.993 421.3 576.531 429.578 575.172 432.535C573.434 435.95 569.703 443.522 568.679 446.49C568.147 448.03 567.832 448.733 567.483 449.514C566.99 450.615 566.428 451.87 565.093 455.842C562.81 462.633 551.748 475.095 549.736 476.063C547.723 477.031 543.026 485.177 542 487.107C541.73 487.616 541.444 488.255 541.12 488.979C540.215 491.002 539.011 493.694 537 496.107C534.913 498.612 531.779 499.026 529.056 499.385C528.614 499.443 528.182 499.5 527.768 499.564C527.267 499.742 526.76 499.741 526.288 499.482C525.152 499.085 524.041 497.981 523.053 496.862C518.463 493.544 510.867 489.354 507.916 488.718C505.964 488.298 505.083 487.663 504.077 486.938C502.706 485.949 501.104 484.793 496.24 483.786C487.807 482.04 471.344 470.636 469.899 468.374C468.455 466.111 459.871 459.455 457.42 458.509C456.65 458.212 454.83 457.058 452.535 455.603C447.518 452.421 440.236 447.803 436.725 447.573C433.858 447.385 433.818 446.208 433.779 445.041C433.748 444.125 433.717 443.215 432.323 442.793C429.151 441.831 425.115 440.404 423.163 436.57C421.933 434.151 417.477 432.314 413.015 430.474C410.402 429.397 407.787 428.318 405.816 427.122C402.385 425.039 397.323 426.966 393.512 428.416C392.813 428.682 392.156 428.932 391.558 429.138C391.448 430.142 390.976 430.558 388.5 431.108C385.263 431.827 384.228 433.712 383.286 435.427C382.919 436.096 382.565 436.74 382.1 437.278C379.452 440.347 374.918 452.126 374.389 456.001C374.009 458.148 372.544 461.298 371.093 464.421C369.478 467.895 367.879 471.334 367.805 473.321C367.733 475.278 367.617 476.196 367.488 477.216C367.307 478.654 367.1 480.294 366.954 485.329C366.705 493.937 358.345 512.137 356.369 513.954C354.394 515.77 349.336 525.383 348.832 527.962C348.797 528.138 348.75 528.376 348.692 528.668C347.904 532.63 345.148 546.499 345.671 551.246C345.986 554.102 344.834 554.346 343.691 554.589C342.795 554.779 341.905 554.968 341.731 556.414C341.337 559.705 333.426 574.517 329.99 577.107C328.498 578.232 319.49 574.643 309.59 570.698C298.792 566.395 286.933 561.67 282.607 562.176C281.718 563.194 281.035 563.701 280.5 562.607C279.783 561.143 255.05 554.534 252 554.107C249.297 553.729 246.076 554.484 242.374 555.35C237.668 556.453 232.185 557.737 226 557.107C220.866 556.585 220.504 536.94 220.247 523.02C220.146 517.524 220.061 512.921 219.706 510.738C218.45 503.024 222.198 463.327 224.61 453.844C227.023 444.36 226.97 404.026 226.857 400.708C226.821 399.627 227.449 395.206 228.261 389.489C229.942 377.657 232.413 360.274 231.411 355.451C229.926 348.298 235.794 308.815 236.311 305.755C236.829 302.694 235.178 256.002 233.292 248.03C231.406 240.059 230.689 193.298 234.137 177.693C235.561 171.243 236.985 161.488 238.48 151.236C240.603 136.684 242.873 121.131 245.5 112.608C249.082 100.986 258.5 92.1082 268 92.1084C268.299 92.1084 268.584 92.1179 268.854 92.1361C268.903 92.1247 268.952 92.115 269 92.1072C271.723 91.6592 275.439 92.711 278.231 93.5012C279.095 93.7456 279.87 93.965 280.5 94.1072C282.09 94.4663 289.584 99.7724 292.533 102.294ZM268.185 96.9775C267.813 97.0341 267.418 97.0783 267 97.1082C253.004 98.1078 249.72 120.507 248.156 131.177C248.027 132.053 247.91 132.85 247.8 133.549C247.354 136.381 246.949 139.168 246.561 141.843C245.684 147.88 244.89 153.347 243.889 157.472C241.579 166.997 239.991 192.744 240.713 199.366C241.319 207.468 242.829 225.103 244.017 230.825C244.634 233.794 244.817 235.345 245.02 237.068C245.307 239.496 245.634 242.266 247.272 249.829C250.071 262.756 245.997 301.868 244.102 308.291C242.208 314.714 239.157 338.334 239.44 343.032C239.529 344.506 239.193 348.965 238.77 354.583C237.844 366.869 236.5 384.703 238.267 389.019C239.71 392.544 238.309 395.111 236.92 397.657C235.831 399.654 234.748 401.638 235.049 404.063C235.733 409.579 236.359 417.034 232.858 427.381C230.268 435.034 229.817 448.79 229.43 460.596C229.293 464.75 229.165 468.664 228.954 471.984C228.144 484.742 225.668 551.249 229.5 549.607C236.5 546.607 246.5 545.107 267.5 551.607C268.231 551.834 269.755 552.239 271.648 552.741C275.103 553.659 279.786 554.903 283.113 555.982C287.977 556.929 297.046 560.287 305.93 563.575C317.48 567.851 328.716 572.01 329.99 570.608C332.69 567.637 337.183 550.347 337.589 548.591C337.681 548.192 337.979 547.164 338.386 545.759C339.77 540.984 342.417 531.849 342.551 528.205C342.725 523.49 351.613 507.997 352.337 506.843C353.061 505.689 359.265 479.384 359.329 473.957C359.393 468.53 368.852 444.387 373 439.108C375.007 436.554 375.657 435.418 376.133 434.586C376.641 433.698 376.951 433.156 378.5 431.608C378.97 431.138 379.351 430.739 379.684 430.391C381.123 428.885 381.657 428.326 384.5 427.108C384.67 427.035 385.065 426.799 385.589 426.485L385.591 426.484C386.783 425.77 388.645 424.656 390.068 424.142C392.549 421.989 395.83 420.716 399.316 421.622C399.839 421.758 400.423 421.905 401.051 422.063L401.057 422.064C406.06 423.321 413.876 425.285 416.055 428.106C418.244 430.938 434.838 437.674 439.588 439.603C440.166 439.837 440.568 440.001 440.748 440.077C441.288 440.307 442.847 441.577 444.863 443.22C449.035 446.619 455.165 451.613 458.275 452.282C462.887 453.276 476.594 464.728 477.604 465.642C478.614 466.557 503.434 477.252 508.767 478.261C511.046 478.692 514.033 481.104 517.228 483.684C521.456 487.098 526.05 490.808 529.856 490.616C529.987 490.552 530.121 490.486 530.258 490.418C532.77 489.18 536.174 487.502 537 485.107C538.28 481.396 547.392 470.17 548.248 469.427C549.104 468.684 560.413 449.248 561.778 444.944C563.143 440.64 573.577 421.949 578.157 418.752C580.373 417.205 581.166 416.458 581.746 415.911C582.366 415.328 582.743 414.971 584.351 414.114C584.839 413.854 585.239 413.629 585.588 413.432C587.099 412.582 587.659 412.266 590.217 411.985C590.37 411.968 590.742 411.876 591.237 411.752C592.764 411.372 595.458 410.701 596.483 411.073C601.891 410.829 615.887 414.312 617.022 414.988C618.193 415.685 649.573 428.671 655 428.607C656.948 428.585 656.21 426.839 654.878 424.888C651.591 421.63 648.471 418.381 645.998 415.658C642.773 412.107 637.99 408.725 633.594 405.617C629.434 402.676 625.621 399.981 623.805 397.62C617.829 389.85 600.113 374.194 594.5 370.607C591.849 368.784 587.888 365.708 583.748 362.492L583.746 362.491L583.743 362.488C577.43 357.586 570.702 352.36 567.56 350.754C564.86 349.374 563.536 348.545 562.066 347.624C559.994 346.326 557.63 344.845 550.71 341.382C538.882 335.464 508.486 305.628 504.667 300.127C500.849 294.625 484.353 277.446 480.514 274.724C479.31 273.869 476.046 270.814 471.932 266.963C462.938 258.543 449.882 246.32 445.411 244.992C441.759 243.908 440.637 241.208 439.523 238.53C438.649 236.43 437.781 234.343 435.703 233.058C430.976 230.135 424.774 225.95 418.904 216.738C415.109 210.78 406.277 204.025 397.958 197.663C393.414 194.187 389.023 190.829 385.69 187.782C376.255 179.156 327.889 136.688 324.343 134.495C323.655 134.069 321.493 132.296 318.372 129.734C306.117 119.678 279.062 97.4763 268.185 96.9775Z" fill="url(#paint2_linear_104_126)" />
	</g>
	<mask id="mask1_104_126" style="mask-type:alpha" maskUnits="userSpaceOnUse" x="72" y="203" width="414" height="516">
		<path d="M72.5 203.648H485.5V718.148L81 556.148L72.5 203.648Z" fill="#D9D9D9" />
	</mask>
	<g mask="url(#mask1_104_126)">
		<rect x="93.5" y="251.648" width="313" height="472" rx="41" stroke="#252C37" stroke-width="10" />
		<circle cx="124.5" cy="282.648" r="8" fill="#252C37" />
		<path d="M374 284H370V279H371V278H373V279H374V284Z" fill="white" stroke="white" stroke-linejoin="round" />
		<path d="M366 278L359 284H366V278Z" fill="white" stroke="white" stroke-linejoin="round" />
		<path d="M139.584 286V279.906L138.319 280.203V279.125L140.178 278.3H141.047V286H139.584ZM145.697 286.132C144.986 286.132 144.377 285.967 143.871 285.637C143.365 285.3 142.973 284.834 142.694 284.24C142.423 283.639 142.287 282.942 142.287 282.15C142.287 281.365 142.423 280.672 142.694 280.071C142.973 279.47 143.365 279.004 143.871 278.674C144.377 278.337 144.986 278.168 145.697 278.168C146.408 278.168 147.017 278.337 147.523 278.674C148.029 279.004 148.418 279.47 148.689 280.071C148.968 280.672 149.107 281.365 149.107 282.15C149.107 282.942 148.968 283.639 148.689 284.24C148.418 284.834 148.029 285.3 147.523 285.637C147.017 285.967 146.408 286.132 145.697 286.132ZM145.697 284.867C146.276 284.867 146.749 284.625 147.116 284.141C147.483 283.657 147.666 282.993 147.666 282.15C147.666 281.307 147.483 280.643 147.116 280.159C146.749 279.675 146.276 279.433 145.697 279.433C145.11 279.433 144.634 279.675 144.267 280.159C143.908 280.643 143.728 281.307 143.728 282.15C143.728 282.993 143.908 283.657 144.267 284.141C144.634 284.625 145.11 284.867 145.697 284.867ZM150.922 286.077C150.665 286.077 150.452 285.996 150.284 285.835C150.122 285.674 150.042 285.479 150.042 285.252C150.042 285.017 150.122 284.819 150.284 284.658C150.452 284.497 150.665 284.416 150.922 284.416C151.178 284.416 151.387 284.497 151.549 284.658C151.717 284.819 151.802 285.017 151.802 285.252C151.802 285.479 151.717 285.674 151.549 285.835C151.387 285.996 151.178 286.077 150.922 286.077ZM150.922 282.073C150.665 282.073 150.452 281.992 150.284 281.831C150.122 281.67 150.042 281.475 150.042 281.248C150.042 281.013 150.122 280.815 150.284 280.654C150.452 280.493 150.665 280.412 150.922 280.412C151.178 280.412 151.387 280.493 151.549 280.654C151.717 280.815 151.802 281.013 151.802 281.248C151.802 281.475 151.717 281.67 151.549 281.831C151.387 281.992 151.178 282.073 150.922 282.073ZM156.171 286.132C155.459 286.132 154.851 285.967 154.345 285.637C153.839 285.3 153.446 284.834 153.168 284.24C152.896 283.639 152.761 282.942 152.761 282.15C152.761 281.365 152.896 280.672 153.168 280.071C153.446 279.47 153.839 279.004 154.345 278.674C154.851 278.337 155.459 278.168 156.171 278.168C156.882 278.168 157.491 278.337 157.997 278.674C158.503 279.004 158.891 279.47 159.163 280.071C159.441 280.672 159.581 281.365 159.581 282.15C159.581 282.942 159.441 283.639 159.163 284.24C158.891 284.834 158.503 285.3 157.997 285.637C157.491 285.967 156.882 286.132 156.171 286.132ZM156.171 284.867C156.75 284.867 157.223 284.625 157.59 284.141C157.956 283.657 158.14 282.993 158.14 282.15C158.14 281.307 157.956 280.643 157.59 280.159C157.223 279.675 156.75 279.433 156.171 279.433C155.584 279.433 155.107 279.675 154.741 280.159C154.381 280.643 154.202 281.307 154.202 282.15C154.202 282.993 154.381 283.657 154.741 284.141C155.107 284.625 155.584 284.867 156.171 284.867ZM163.98 286.132C163.269 286.132 162.66 285.967 162.154 285.637C161.648 285.3 161.256 284.834 160.977 284.24C160.706 283.639 160.57 282.942 160.57 282.15C160.57 281.365 160.706 280.672 160.977 280.071C161.256 279.47 161.648 279.004 162.154 278.674C162.66 278.337 163.269 278.168 163.98 278.168C164.692 278.168 165.3 278.337 165.806 278.674C166.312 279.004 166.701 279.47 166.972 280.071C167.251 280.672 167.39 281.365 167.39 282.15C167.39 282.942 167.251 283.639 166.972 284.24C166.701 284.834 166.312 285.3 165.806 285.637C165.3 285.967 164.692 286.132 163.98 286.132ZM163.98 284.867C164.56 284.867 165.033 284.625 165.399 284.141C165.766 283.657 165.949 282.993 165.949 282.15C165.949 281.307 165.766 280.643 165.399 280.159C165.033 279.675 164.56 279.433 163.98 279.433C163.394 279.433 162.917 279.675 162.55 280.159C162.191 280.643 162.011 281.307 162.011 282.15C162.011 282.993 162.191 283.657 162.55 284.141C162.917 284.625 163.394 284.867 163.98 284.867Z" fill="white" />
		<path d="M354 284.325L350 279.325C353.2 276.925 356.667 278.325 358 279.325L354 284.325Z" fill="white" stroke="white" stroke-linejoin="round" />
		<rect x="124.5" y="301.648" width="251" height="93" rx="5" fill="#252C37" />
		<path d="M138.748 318V310.3H141.377C142.279 310.3 143.02 310.461 143.599 310.784C144.186 311.099 144.618 311.547 144.897 312.126C145.183 312.698 145.326 313.373 145.326 314.15C145.326 314.927 145.183 315.606 144.897 316.185C144.618 316.757 144.186 317.204 143.599 317.527C143.02 317.842 142.279 318 141.377 318H138.748ZM140.156 316.79H141.311C141.956 316.79 142.466 316.687 142.84 316.482C143.214 316.269 143.482 315.969 143.643 315.58C143.804 315.184 143.885 314.707 143.885 314.15C143.885 313.6 143.804 313.127 143.643 312.731C143.482 312.335 143.214 312.031 142.84 311.818C142.466 311.605 141.956 311.499 141.311 311.499H140.156V316.79ZM149.153 318.132C148.625 318.132 148.149 318.011 147.723 317.769C147.305 317.527 146.972 317.193 146.722 316.768C146.48 316.335 146.359 315.837 146.359 315.272C146.359 314.707 146.484 314.212 146.733 313.787C146.983 313.354 147.316 313.017 147.734 312.775C148.16 312.533 148.636 312.412 149.164 312.412C149.685 312.412 150.154 312.533 150.572 312.775C150.998 313.017 151.331 313.354 151.573 313.787C151.823 314.212 151.947 314.707 151.947 315.272C151.947 315.837 151.823 316.335 151.573 316.768C151.331 317.193 150.998 317.527 150.572 317.769C150.147 318.011 149.674 318.132 149.153 318.132ZM149.153 316.911C149.52 316.911 149.839 316.775 150.11 316.504C150.382 316.225 150.517 315.815 150.517 315.272C150.517 314.729 150.382 314.322 150.11 314.051C149.839 313.772 149.524 313.633 149.164 313.633C148.79 313.633 148.468 313.772 148.196 314.051C147.932 314.322 147.8 314.729 147.8 315.272C147.8 315.815 147.932 316.225 148.196 316.504C148.468 316.775 148.787 316.911 149.153 316.911ZM153.206 318V312.544H154.449L154.57 313.281C154.746 313.017 154.977 312.808 155.263 312.654C155.557 312.493 155.894 312.412 156.275 312.412C157.119 312.412 157.716 312.738 158.068 313.391C158.266 313.09 158.53 312.852 158.86 312.676C159.198 312.5 159.564 312.412 159.96 312.412C160.672 312.412 161.218 312.625 161.599 313.05C161.981 313.475 162.171 314.099 162.171 314.92V318H160.763V315.052C160.763 314.583 160.672 314.223 160.488 313.974C160.312 313.725 160.037 313.6 159.663 313.6C159.282 313.6 158.974 313.739 158.739 314.018C158.512 314.297 158.398 314.685 158.398 315.184V318H156.99V315.052C156.99 314.583 156.899 314.223 156.715 313.974C156.532 313.725 156.25 313.6 155.868 313.6C155.494 313.6 155.19 313.739 154.955 314.018C154.728 314.297 154.614 314.685 154.614 315.184V318H153.206ZM166.159 318.132C165.609 318.132 165.121 318.015 164.696 317.78C164.271 317.545 163.937 317.215 163.695 316.79C163.453 316.365 163.332 315.873 163.332 315.316C163.332 314.751 163.449 314.249 163.684 313.809C163.926 313.369 164.256 313.028 164.674 312.786C165.099 312.537 165.598 312.412 166.17 312.412C166.705 312.412 167.178 312.529 167.589 312.764C168 312.999 168.319 313.321 168.546 313.732C168.781 314.135 168.898 314.586 168.898 315.085C168.898 315.166 168.894 315.25 168.887 315.338C168.887 315.426 168.883 315.518 168.876 315.613H164.729C164.758 316.038 164.905 316.372 165.169 316.614C165.44 316.856 165.767 316.977 166.148 316.977C166.434 316.977 166.672 316.915 166.863 316.79C167.061 316.658 167.208 316.489 167.303 316.284H168.733C168.63 316.629 168.458 316.944 168.216 317.23C167.981 317.509 167.688 317.729 167.336 317.89C166.991 318.051 166.599 318.132 166.159 318.132ZM166.17 313.556C165.825 313.556 165.521 313.655 165.257 313.853C164.993 314.044 164.824 314.337 164.751 314.733H167.468C167.446 314.374 167.314 314.088 167.072 313.875C166.83 313.662 166.529 313.556 166.17 313.556ZM170.082 318V312.544H171.325L171.435 313.468C171.604 313.145 171.846 312.889 172.161 312.698C172.484 312.507 172.862 312.412 173.294 312.412C173.969 312.412 174.493 312.625 174.867 313.05C175.241 313.475 175.428 314.099 175.428 314.92V318H174.02V315.052C174.02 314.583 173.925 314.223 173.734 313.974C173.544 313.725 173.247 313.6 172.843 313.6C172.447 313.6 172.121 313.739 171.864 314.018C171.615 314.297 171.49 314.685 171.49 315.184V318H170.082ZM177.534 311.697C177.277 311.697 177.064 311.62 176.896 311.466C176.734 311.312 176.654 311.118 176.654 310.883C176.654 310.648 176.734 310.458 176.896 310.311C177.064 310.157 177.277 310.08 177.534 310.08C177.79 310.08 177.999 310.157 178.161 310.311C178.329 310.458 178.414 310.648 178.414 310.883C178.414 311.118 178.329 311.312 178.161 311.466C177.999 311.62 177.79 311.697 177.534 311.697ZM176.83 318V312.544H178.238V318H176.83ZM182.38 318.132C181.823 318.132 181.332 318.011 180.906 317.769C180.481 317.527 180.144 317.19 179.894 316.757C179.652 316.324 179.531 315.829 179.531 315.272C179.531 314.715 179.652 314.22 179.894 313.787C180.144 313.354 180.481 313.017 180.906 312.775C181.332 312.533 181.823 312.412 182.38 312.412C183.077 312.412 183.664 312.595 184.14 312.962C184.617 313.321 184.921 313.82 185.053 314.458H183.568C183.495 314.194 183.348 313.989 183.128 313.842C182.916 313.688 182.663 313.611 182.369 313.611C181.981 313.611 181.651 313.758 181.379 314.051C181.108 314.344 180.972 314.751 180.972 315.272C180.972 315.793 181.108 316.2 181.379 316.493C181.651 316.786 181.981 316.933 182.369 316.933C182.663 316.933 182.916 316.86 183.128 316.713C183.348 316.566 183.495 316.357 183.568 316.086H185.053C184.921 316.702 184.617 317.197 184.14 317.571C183.664 317.945 183.077 318.132 182.38 318.132ZM188.184 318.132C187.715 318.132 187.33 318.059 187.029 317.912C186.728 317.758 186.505 317.556 186.358 317.307C186.211 317.058 186.138 316.783 186.138 316.482C186.138 315.976 186.336 315.565 186.732 315.25C187.128 314.935 187.722 314.777 188.514 314.777H189.9V314.645C189.9 314.271 189.794 313.996 189.581 313.82C189.368 313.644 189.104 313.556 188.789 313.556C188.503 313.556 188.254 313.626 188.041 313.765C187.828 313.897 187.696 314.095 187.645 314.359H186.27C186.307 313.963 186.439 313.618 186.666 313.325C186.901 313.032 187.201 312.808 187.568 312.654C187.935 312.493 188.345 312.412 188.8 312.412C189.577 312.412 190.19 312.606 190.637 312.995C191.084 313.384 191.308 313.934 191.308 314.645V318H190.109L189.977 317.12C189.816 317.413 189.588 317.655 189.295 317.846C189.009 318.037 188.639 318.132 188.184 318.132ZM188.503 317.032C188.906 317.032 189.218 316.9 189.438 316.636C189.665 316.372 189.808 316.046 189.867 315.657H188.668C188.294 315.657 188.026 315.727 187.865 315.866C187.704 315.998 187.623 316.163 187.623 316.361C187.623 316.574 187.704 316.739 187.865 316.856C188.026 316.973 188.239 317.032 188.503 317.032ZM196.142 318V311.906L194.877 312.203V311.125L196.736 310.3H197.605V318H196.142ZM201.815 318.132C201.287 318.132 200.81 318.04 200.385 317.857C199.959 317.666 199.618 317.399 199.362 317.054C199.112 316.709 198.988 316.31 198.988 315.855C198.988 315.386 199.109 314.975 199.351 314.623C199.6 314.271 199.926 314.018 200.33 313.864C199.978 313.71 199.699 313.49 199.494 313.204C199.288 312.911 199.186 312.584 199.186 312.225C199.186 311.858 199.285 311.521 199.483 311.213C199.681 310.898 199.974 310.645 200.363 310.454C200.759 310.263 201.243 310.168 201.815 310.168C202.387 310.168 202.867 310.263 203.256 310.454C203.644 310.645 203.938 310.898 204.136 311.213C204.334 311.521 204.433 311.858 204.433 312.225C204.433 312.577 204.326 312.903 204.114 313.204C203.908 313.497 203.633 313.717 203.289 313.864C203.699 314.018 204.026 314.271 204.268 314.623C204.51 314.975 204.631 315.386 204.631 315.855C204.631 316.31 204.506 316.709 204.257 317.054C204.007 317.399 203.666 317.666 203.234 317.857C202.808 318.04 202.335 318.132 201.815 318.132ZM201.815 313.446C202.196 313.446 202.497 313.347 202.717 313.149C202.937 312.951 203.047 312.698 203.047 312.39C203.047 312.053 202.937 311.789 202.717 311.598C202.504 311.407 202.203 311.312 201.815 311.312C201.419 311.312 201.114 311.407 200.902 311.598C200.689 311.789 200.583 312.053 200.583 312.39C200.583 312.705 200.689 312.962 200.902 313.16C201.122 313.351 201.426 313.446 201.815 313.446ZM201.815 316.955C202.284 316.955 202.64 316.841 202.882 316.614C203.124 316.379 203.245 316.086 203.245 315.734C203.245 315.345 203.116 315.041 202.86 314.821C202.61 314.601 202.262 314.491 201.815 314.491C201.367 314.491 201.012 314.601 200.748 314.821C200.491 315.041 200.363 315.345 200.363 315.734C200.363 316.086 200.484 316.379 200.726 316.614C200.975 316.841 201.338 316.955 201.815 316.955ZM208.857 318V313.721H208.109V312.544H208.857V311.906C208.857 311.246 209.022 310.777 209.352 310.498C209.689 310.219 210.144 310.08 210.716 310.08H211.321V311.279H210.936C210.694 311.279 210.521 311.327 210.419 311.422C210.316 311.517 210.265 311.679 210.265 311.906V312.544H211.442V313.721H210.265V318H208.857ZM214.993 318.132C214.443 318.132 213.955 318.015 213.53 317.78C213.105 317.545 212.771 317.215 212.529 316.79C212.287 316.365 212.166 315.873 212.166 315.316C212.166 314.751 212.283 314.249 212.518 313.809C212.76 313.369 213.09 313.028 213.508 312.786C213.933 312.537 214.432 312.412 215.004 312.412C215.539 312.412 216.012 312.529 216.423 312.764C216.834 312.999 217.153 313.321 217.38 313.732C217.615 314.135 217.732 314.586 217.732 315.085C217.732 315.166 217.728 315.25 217.721 315.338C217.721 315.426 217.717 315.518 217.71 315.613H213.563C213.592 316.038 213.739 316.372 214.003 316.614C214.274 316.856 214.601 316.977 214.982 316.977C215.268 316.977 215.506 316.915 215.697 316.79C215.895 316.658 216.042 316.489 216.137 316.284H217.567C217.464 316.629 217.292 316.944 217.05 317.23C216.815 317.509 216.522 317.729 216.17 317.89C215.825 318.051 215.433 318.132 214.993 318.132ZM215.004 313.556C214.659 313.556 214.355 313.655 214.091 313.853C213.827 314.044 213.658 314.337 213.585 314.733H216.302C216.28 314.374 216.148 314.088 215.906 313.875C215.664 313.662 215.363 313.556 215.004 313.556ZM222.15 318.132C221.74 318.132 221.38 318.055 221.072 317.901C220.764 317.747 220.515 317.531 220.324 317.252L220.17 318H218.916V310.08H220.324V313.325C220.5 313.083 220.731 312.87 221.017 312.687C221.311 312.504 221.688 312.412 222.15 312.412C222.664 312.412 223.122 312.537 223.525 312.786C223.929 313.035 224.248 313.376 224.482 313.809C224.717 314.242 224.834 314.733 224.834 315.283C224.834 315.833 224.717 316.324 224.482 316.757C224.248 317.182 223.929 317.52 223.525 317.769C223.122 318.011 222.664 318.132 222.15 318.132ZM221.853 316.9C222.301 316.9 222.671 316.75 222.964 316.449C223.258 316.148 223.404 315.76 223.404 315.283C223.404 314.806 223.258 314.414 222.964 314.106C222.671 313.798 222.301 313.644 221.853 313.644C221.399 313.644 221.025 313.798 220.731 314.106C220.445 314.407 220.302 314.795 220.302 315.272C220.302 315.749 220.445 316.141 220.731 316.449C221.025 316.75 221.399 316.9 221.853 316.9Z" fill="#D3DDDF" />
		<circle cx="147" cy="338.148" r="12.5" fill="#6B7172" />
		<circle cx="188" cy="338.148" r="12.5" fill="#CC2755" />
		<circle cx="229" cy="338.148" r="12.5" fill="#6B7172" />
		<circle cx="270" cy="338.148" r="12.5" fill="#CC2755" />
		<circle cx="311" cy="338.148" r="12.5" fill="#6B7172" />
		<circle cx="352" cy="338.148" r="12.5" fill="#6B7172" />
		<rect x="175.5" y="365.648" width="156" height="4" rx="2" fill="#6B7072" />
		<rect x="167.5" y="365.648" width="54" height="4" rx="2" fill="#CC2755" />
		<rect x="234.5" y="384.648" width="30" height="4" rx="2" fill="#6B7172" />
		<circle cx="221.5" cy="367.648" r="6" fill="#CC2755" />
		<path d="M130.248 415.648V407.948H131.656L135.275 413.371V407.948H136.683V415.648H135.275L131.656 410.236V415.648H130.248ZM140.761 415.78C140.233 415.78 139.756 415.659 139.331 415.417C138.913 415.175 138.579 414.842 138.33 414.416C138.088 413.984 137.967 413.485 137.967 412.92C137.967 412.356 138.091 411.861 138.341 411.435C138.59 411.003 138.924 410.665 139.342 410.423C139.767 410.181 140.244 410.06 140.772 410.06C141.292 410.06 141.762 410.181 142.18 410.423C142.605 410.665 142.939 411.003 143.181 411.435C143.43 411.861 143.555 412.356 143.555 412.92C143.555 413.485 143.43 413.984 143.181 414.416C142.939 414.842 142.605 415.175 142.18 415.417C141.754 415.659 141.281 415.78 140.761 415.78ZM140.761 414.559C141.127 414.559 141.446 414.424 141.718 414.152C141.989 413.874 142.125 413.463 142.125 412.92C142.125 412.378 141.989 411.971 141.718 411.699C141.446 411.421 141.131 411.281 140.772 411.281C140.398 411.281 140.075 411.421 139.804 411.699C139.54 411.971 139.408 412.378 139.408 412.92C139.408 413.463 139.54 413.874 139.804 414.152C140.075 414.424 140.394 414.559 140.761 414.559ZM147.03 415.648C146.458 415.648 145.999 415.509 145.655 415.23C145.31 414.952 145.138 414.457 145.138 413.745V411.369H144.203V410.192H145.138L145.303 408.729H146.546V410.192H148.02V411.369H146.546V413.756C146.546 414.02 146.601 414.204 146.711 414.306C146.828 414.402 147.026 414.449 147.305 414.449H147.987V415.648H147.03ZM149.988 409.345C149.731 409.345 149.518 409.268 149.35 409.114C149.188 408.96 149.108 408.766 149.108 408.531C149.108 408.297 149.188 408.106 149.35 407.959C149.518 407.805 149.731 407.728 149.988 407.728C150.244 407.728 150.453 407.805 150.615 407.959C150.783 408.106 150.868 408.297 150.868 408.531C150.868 408.766 150.783 408.96 150.615 409.114C150.453 409.268 150.244 409.345 149.988 409.345ZM149.284 415.648V410.192H150.692V415.648H149.284ZM152.414 415.648V411.369H151.666V410.192H152.414V409.554C152.414 408.894 152.579 408.425 152.909 408.146C153.247 407.868 153.701 407.728 154.273 407.728H154.878V408.927H154.493C154.251 408.927 154.079 408.975 153.976 409.07C153.874 409.166 153.822 409.327 153.822 409.554V410.192H157.342V415.648H155.934V411.369H153.822V415.648H152.414ZM156.649 409.411C156.393 409.411 156.18 409.334 156.011 409.18C155.85 409.026 155.769 408.832 155.769 408.597C155.769 408.363 155.85 408.172 156.011 408.025C156.18 407.871 156.393 407.794 156.649 407.794C156.906 407.794 157.115 407.871 157.276 408.025C157.445 408.172 157.529 408.363 157.529 408.597C157.529 408.832 157.445 409.026 157.276 409.18C157.115 409.334 156.906 409.411 156.649 409.411ZM161.505 415.78C160.948 415.78 160.457 415.659 160.031 415.417C159.606 415.175 159.269 414.838 159.019 414.405C158.777 413.973 158.656 413.478 158.656 412.92C158.656 412.363 158.777 411.868 159.019 411.435C159.269 411.003 159.606 410.665 160.031 410.423C160.457 410.181 160.948 410.06 161.505 410.06C162.202 410.06 162.789 410.244 163.265 410.61C163.742 410.97 164.046 411.468 164.178 412.106H162.693C162.62 411.842 162.473 411.637 162.253 411.49C162.041 411.336 161.788 411.259 161.494 411.259C161.106 411.259 160.776 411.406 160.504 411.699C160.233 411.993 160.097 412.4 160.097 412.92C160.097 413.441 160.233 413.848 160.504 414.141C160.776 414.435 161.106 414.581 161.494 414.581C161.788 414.581 162.041 414.508 162.253 414.361C162.473 414.215 162.62 414.006 162.693 413.734H164.178C164.046 414.35 163.742 414.845 163.265 415.219C162.789 415.593 162.202 415.78 161.505 415.78ZM165.428 415.648V407.728H166.836V411.028C167.019 410.728 167.265 410.493 167.573 410.324C167.888 410.148 168.248 410.06 168.651 410.06C169.326 410.06 169.846 410.273 170.213 410.698C170.587 411.124 170.774 411.747 170.774 412.568V415.648H169.377V412.7C169.377 412.231 169.282 411.872 169.091 411.622C168.908 411.373 168.614 411.248 168.211 411.248C167.815 411.248 167.485 411.388 167.221 411.666C166.964 411.945 166.836 412.334 166.836 412.832V415.648H165.428ZM174.771 415.78C174.221 415.78 173.734 415.663 173.308 415.428C172.883 415.194 172.549 414.864 172.307 414.438C172.065 414.013 171.944 413.522 171.944 412.964C171.944 412.4 172.062 411.897 172.296 411.457C172.538 411.017 172.868 410.676 173.286 410.434C173.712 410.185 174.21 410.06 174.782 410.06C175.318 410.06 175.791 410.178 176.201 410.412C176.612 410.647 176.931 410.97 177.158 411.38C177.393 411.784 177.51 412.235 177.51 412.733C177.51 412.814 177.507 412.898 177.499 412.986C177.499 413.074 177.496 413.166 177.488 413.261H173.341C173.371 413.687 173.517 414.02 173.781 414.262C174.053 414.504 174.379 414.625 174.76 414.625C175.046 414.625 175.285 414.563 175.475 414.438C175.673 414.306 175.82 414.138 175.915 413.932H177.345C177.243 414.277 177.07 414.592 176.828 414.878C176.594 415.157 176.3 415.377 175.948 415.538C175.604 415.7 175.211 415.78 174.771 415.78ZM174.782 411.204C174.438 411.204 174.133 411.303 173.869 411.501C173.605 411.692 173.437 411.985 173.363 412.381H176.08C176.058 412.022 175.926 411.736 175.684 411.523C175.442 411.311 175.142 411.204 174.782 411.204ZM179.299 415.725C179.043 415.725 178.83 415.645 178.661 415.483C178.5 415.322 178.419 415.128 178.419 414.9C178.419 414.666 178.5 414.468 178.661 414.306C178.83 414.145 179.043 414.064 179.299 414.064C179.556 414.064 179.765 414.145 179.926 414.306C180.095 414.468 180.179 414.666 180.179 414.9C180.179 415.128 180.095 415.322 179.926 415.483C179.765 415.645 179.556 415.725 179.299 415.725ZM179.299 411.721C179.043 411.721 178.83 411.641 178.661 411.479C178.5 411.318 178.419 411.124 178.419 410.896C178.419 410.662 178.5 410.464 178.661 410.302C178.83 410.141 179.043 410.06 179.299 410.06C179.556 410.06 179.765 410.141 179.926 410.302C180.095 410.464 180.179 410.662 180.179 410.896C180.179 411.124 180.095 411.318 179.926 411.479C179.765 411.641 179.556 411.721 179.299 411.721Z" fill="white" />
	</g>
	<defs>
		<linearGradient id="paint0_linear_104_126" x1="-6.64805e-06" y1="538.5" x2="163" y2="765" gradientUnits="userSpaceOnUse">
			<stop stop-color="#6B7072" />
			<stop offset="1" stop-color="#6B7072" stop-opacity="0" />
		</linearGradient>
		<linearGradient id="paint1_linear_104_126" x1="365" y1="484.5" x2="556" y2="671.5" gradientUnits="userSpaceOnUse">
			<stop stop-color="#6B7072" />
			<stop offset="1" stop-color="#6B7072" stop-opacity="0" />
		</linearGradient>
		<linearGradient id="paint2_linear_104_126" x1="182.5" y1="106" x2="538" y2="556" gradientUnits="userSpaceOnUse">
			<stop stop-color="#CC2755" />
			<stop offset="1" stop-color="#CC2755" stop-opacity="0" />
		</linearGradient>
	</defs>
</svg>
