<svg width="694" height="686" viewBox="0 0 694 686" fill="none" xmlns="http://www.w3.org/2000/svg">
	<path d="M224.815 613.931C229.282 615.366 252.385 619.59 252.947 619.519C255.339 620.36 258.341 620.552 259.347 620.425C261.034 620.212 264.479 620.348 266.341 619.255C267.724 618.444 256.338 616.456 254.208 615.932C246.542 614.043 227.518 610.447 224.88 609.923C222.243 609.399 182.709 594.967 174.901 591.953C167.092 588.94 153.479 582.946 147.533 578.841C141.586 574.736 136.874 573.617 133.357 572.918C129.841 572.22 128.71 567.792 124.456 568.043C120.203 568.295 99.0271 558.971 96.073 558.202C93.1189 557.432 72.675 551.72 68.805 551.007C64.451 550.204 43.012 534.021 34.6085 533.083C26.2051 532.145 27.0901 532.811 23.3573 529.997C19.063 526.76 14.7218 525.591 11.2159 522.499C6.94313 518.731 10.4154 515.336 14.7158 510.499C18.7151 506.002 25.2146 503.002 29.2146 500.502C33.2146 498.002 39.6282 489.619 45.2146 488.502C50.2136 487.503 46.2146 486.002 42.7146 486.502C33.1006 487.876 24.714 500.004 15.7146 506.502C7.56418 512.387 -0.428546 513.529 4.71583 520.999C9.86021 528.469 26.3917 540.406 31.5954 540.891C36.799 541.377 69.5195 558.003 71.3487 558.915C73.178 559.826 98.0503 564.808 102.692 565.365C107.333 565.921 128.088 576.441 130.163 577.036C132.238 577.631 157.493 587.582 163.052 590.879C168.611 594.177 192.741 604.27 197.699 605.072C202.657 605.874 220.349 612.495 224.815 613.931Z" fill="url(#paint0_linear_104_126)" />
	<path d="M460.5 486.107C458.454 485.418 434.645 472.303 431.072 471.25C427.5 470.197 428.515 475.544 431.072 475.107C434 474.607 440 480.107 440 480.107L446.026 483.984C451.779 488.357 456.435 489.69 459.916 490.548C463.397 491.407 464.324 495.882 468.585 495.825C472.845 495.768 493.573 506.049 496.489 506.952C499.405 507.856 519.566 514.496 523.4 515.385C527.713 516.386 543.622 517.977 551.001 522.107C558 526.025 558.4 527.625 562 530.607C566.142 534.037 562 541.107 559.5 542.107C554.211 544.222 540.677 554.412 536.16 559.047C531.96 563.357 525.33 566.056 521.22 568.371C517.11 570.686 510.32 578.767 504.688 579.628C499.649 580.398 503.575 582.08 507.094 581.74C516.761 580.807 525.693 569.074 534.98 562.994C543.39 557.488 544.001 557.606 551.001 551.606C558.001 545.607 572 538.024 567 529.607C564.331 525.113 556.786 521.602 555 520.607C553.214 519.613 489.111 496.592 484.5 495.825C479.889 495.057 462.546 486.796 460.5 486.107Z" fill="url(#paint1_linear_104_126)" />
	<mask id="mask0_104_126" style="mask-type:alpha" maskUnits="userSpaceOnUse" x="197" y="0" width="497" height="454">
		<path d="M406.5 222.5V400.5L533 454L590.5 427L694 371.5L256.5 0.5L197 189C256.833 187.667 339.1 187.5 365.5 187.5C391.9 187.5 403.833 210.833 406.5 222.5Z" fill="#D9D9D9" />
	</mask>
	<g mask="url(#mask0_104_126)">
		<path fill-rule="evenodd" clip-rule="evenodd" d="M292.533 39.2942C293.422 39.4949 321.747 61.1664 327.353 65.6799C328.92 66.9414 331.731 69.3536 335.116 72.2589L335.117 72.2598C343.844 79.7489 356.387 90.5136 361.285 93.2907C368.083 97.1455 396.67 124.942 402.55 132.764C407.791 139.738 434.083 158.932 441.609 164.426L441.614 164.429C442.527 165.096 443.163 165.56 443.451 165.776C444.316 166.425 447.368 169.684 451.314 173.9C459.481 182.624 471.481 195.443 475.867 197.684C482.372 201.009 509.465 230.323 511.526 232.644C513.587 234.965 553.478 265.089 560.872 268.615C568.266 272.14 604.157 301.883 614.158 314.348C623.741 326.293 647.176 347.175 659.099 357.8L659.1 357.801L659.102 357.802C659.62 358.264 660.116 358.706 660.588 359.127C663.174 361.433 665.497 363.267 667.608 364.935C671.059 367.66 673.945 369.94 676.5 373.107C676.647 374.104 675.613 377.307 672.582 376.692C672.397 376.68 672.203 376.652 672 376.607C667.5 375.607 655.5 371.915 651.5 370.607C649.897 370.083 648.929 369.551 647.953 369.013C646.198 368.048 644.417 367.067 638.872 366.097C630.391 364.612 611.871 358.118 610.008 356.186C608.146 354.253 597.092 352.675 594.5 353.107L594.506 353.088C594.082 353.206 593.446 353.216 592.432 353.138C589.681 352.926 588.401 354.176 587.236 355.313C586.781 355.757 586.344 356.183 585.844 356.499C582.993 358.3 576.531 366.578 575.172 369.535C573.434 372.95 569.703 380.522 568.679 383.49C568.147 385.03 567.832 385.733 567.483 386.514C566.99 387.615 566.428 388.87 565.093 392.842C562.81 399.633 551.748 412.095 549.736 413.063C547.723 414.031 543.026 422.177 542 424.107C541.73 424.616 541.444 425.255 541.12 425.979C540.215 428.002 539.011 430.694 537 433.107C534.913 435.612 531.779 436.026 529.056 436.385C528.614 436.443 528.182 436.5 527.768 436.564C527.267 436.742 526.76 436.741 526.288 436.482C525.152 436.085 524.041 434.981 523.053 433.862C518.463 430.544 510.867 426.354 507.916 425.718C505.964 425.298 505.083 424.663 504.077 423.938C502.706 422.949 501.104 421.793 496.24 420.786C487.807 419.04 471.344 407.636 469.899 405.374C468.455 403.111 459.871 396.455 457.42 395.509C456.65 395.212 454.83 394.058 452.535 392.603C447.518 389.421 440.236 384.803 436.725 384.573C433.858 384.385 433.818 383.208 433.779 382.041C433.748 381.125 433.717 380.215 432.323 379.793C429.151 378.831 425.115 377.404 423.163 373.57C421.933 371.151 417.477 369.314 413.015 367.474C410.402 366.397 407.787 365.318 405.816 364.122C402.385 362.039 397.323 363.966 393.512 365.416C392.813 365.682 392.156 365.932 391.558 366.138C391.448 367.142 390.976 367.558 388.5 368.108C385.263 368.827 384.228 370.712 383.286 372.427C382.919 373.096 382.565 373.74 382.1 374.278C379.452 377.347 374.918 389.126 374.389 393.001C374.009 395.148 372.544 398.298 371.093 401.421C369.478 404.895 367.879 408.334 367.805 410.321C367.733 412.278 367.617 413.196 367.488 414.216C367.307 415.654 367.1 417.294 366.954 422.329C366.705 430.937 358.345 449.137 356.369 450.954C354.394 452.77 349.336 462.383 348.832 464.962C348.797 465.138 348.75 465.376 348.692 465.668C347.904 469.63 345.148 483.499 345.671 488.246C345.986 491.102 344.834 491.346 343.691 491.589C342.795 491.779 341.905 491.968 341.731 493.414C341.337 496.705 333.426 511.517 329.99 514.107C328.498 515.232 319.49 511.643 309.59 507.698C298.792 503.395 286.933 498.67 282.607 499.176C281.718 500.194 281.035 500.701 280.5 499.607C279.783 498.143 255.05 491.534 252 491.107C249.297 490.729 246.076 491.484 242.374 492.35C237.668 493.453 232.185 494.737 226 494.107C220.866 493.585 220.504 473.94 220.247 460.02C220.146 454.524 220.061 449.921 219.706 447.738C218.45 440.024 222.198 400.327 224.61 390.844C227.023 381.36 226.97 341.026 226.857 337.708C226.821 336.627 227.449 332.206 228.261 326.489C229.942 314.657 232.413 297.274 231.411 292.451C229.926 285.298 235.794 245.815 236.311 242.755C236.829 239.694 235.178 193.002 233.292 185.03C231.406 177.059 230.689 130.298 234.137 114.693C235.561 108.243 236.985 98.4881 238.48 88.2358C240.603 73.6841 242.873 58.1313 245.5 49.6082C249.082 37.9859 258.5 29.1082 268 29.1084C268.299 29.1084 268.584 29.1179 268.854 29.1361C268.903 29.1247 268.952 29.115 269 29.1072C271.723 28.6592 275.439 29.711 278.231 30.5012C279.095 30.7456 279.87 30.965 280.5 31.1072C282.09 31.4663 289.584 36.7724 292.533 39.2942ZM268.185 33.9775C267.813 34.0341 267.418 34.0783 267 34.1082C253.004 35.1078 249.72 57.5067 248.156 68.1774C248.027 69.0531 247.91 69.8498 247.8 70.5492C247.354 73.3808 246.949 76.1677 246.561 78.8426C245.684 84.8795 244.89 90.3465 243.889 94.4719C241.579 103.997 239.991 129.744 240.713 136.366C241.319 144.468 242.829 162.103 244.017 167.825C244.634 170.794 244.817 172.345 245.02 174.068C245.307 176.496 245.634 179.266 247.272 186.829C250.071 199.756 245.997 238.868 244.102 245.291C242.208 251.714 239.157 275.334 239.44 280.032C239.529 281.506 239.193 285.965 238.77 291.583C237.844 303.869 236.5 321.703 238.267 326.019C239.71 329.544 238.309 332.111 236.92 334.657C235.831 336.654 234.748 338.638 235.049 341.063C235.733 346.579 236.359 354.034 232.858 364.381C230.268 372.034 229.817 385.79 229.43 397.596C229.293 401.75 229.165 405.664 228.954 408.984C228.144 421.742 225.668 488.249 229.5 486.607C236.5 483.607 246.5 482.107 267.5 488.607C268.231 488.834 269.755 489.239 271.648 489.741C275.103 490.659 279.786 491.903 283.113 492.982C287.977 493.929 297.046 497.287 305.93 500.575C317.48 504.851 328.716 509.01 329.99 507.608C332.69 504.637 337.183 487.347 337.589 485.591C337.681 485.192 337.979 484.164 338.386 482.759C339.77 477.984 342.417 468.849 342.551 465.205C342.725 460.49 351.613 444.997 352.337 443.843C353.061 442.689 359.265 416.384 359.329 410.957C359.393 405.53 368.852 381.387 373 376.108C375.007 373.554 375.657 372.418 376.133 371.586C376.641 370.698 376.951 370.156 378.5 368.608C378.97 368.138 379.351 367.739 379.684 367.391C381.123 365.885 381.657 365.326 384.5 364.108C384.67 364.035 385.065 363.799 385.589 363.485L385.591 363.484C386.783 362.77 388.645 361.656 390.068 361.142C392.549 358.989 395.83 357.716 399.316 358.622C399.839 358.758 400.423 358.905 401.051 359.063L401.057 359.064C406.06 360.321 413.876 362.285 416.055 365.106C418.244 367.938 434.838 374.674 439.588 376.603C440.166 376.837 440.568 377.001 440.748 377.077C441.288 377.307 442.847 378.577 444.863 380.22C449.035 383.619 455.165 388.613 458.275 389.282C462.887 390.276 476.594 401.728 477.604 402.642C478.614 403.557 503.434 414.252 508.767 415.261C511.046 415.692 514.033 418.104 517.228 420.684C521.456 424.098 526.05 427.808 529.856 427.616C529.987 427.552 530.121 427.486 530.258 427.418C532.77 426.18 536.174 424.502 537 422.107C538.28 418.396 547.392 407.17 548.248 406.427C549.104 405.684 560.413 386.248 561.778 381.944C563.143 377.64 573.577 358.949 578.157 355.752C580.373 354.205 581.166 353.458 581.746 352.911C582.366 352.328 582.743 351.971 584.351 351.114C584.839 350.854 585.239 350.629 585.588 350.432C587.099 349.582 587.659 349.266 590.217 348.985C590.37 348.968 590.742 348.876 591.237 348.752C592.764 348.372 595.458 347.701 596.483 348.073C601.891 347.829 615.887 351.312 617.022 351.988C618.193 352.685 649.573 365.671 655 365.607C656.948 365.585 656.21 363.839 654.878 361.888C651.591 358.63 648.471 355.381 645.998 352.658C642.773 349.107 637.99 345.725 633.594 342.617C629.434 339.676 625.621 336.981 623.805 334.62C617.829 326.85 600.113 311.194 594.5 307.607C591.849 305.784 587.888 302.708 583.748 299.492L583.746 299.491L583.743 299.488C577.43 294.586 570.702 289.36 567.56 287.754C564.86 286.374 563.536 285.545 562.066 284.624C559.994 283.326 557.63 281.845 550.71 278.382C538.882 272.464 508.486 242.628 504.667 237.127C500.849 231.625 484.353 214.446 480.514 211.724C479.31 210.869 476.046 207.814 471.932 203.963C462.938 195.543 449.882 183.32 445.411 181.992C441.759 180.908 440.637 178.208 439.523 175.53C438.649 173.43 437.781 171.343 435.703 170.058C430.976 167.135 424.774 162.95 418.904 153.738C415.109 147.78 406.277 141.025 397.958 134.663C393.414 131.187 389.023 127.829 385.69 124.782C376.255 116.156 327.889 73.6877 324.343 71.4953C323.655 71.0694 321.493 69.2959 318.372 66.7343C306.117 56.678 279.062 34.4763 268.185 33.9775Z" fill="url(#paint2_linear_104_126)" />
	</g>
	<mask id="mask1_104_126" style="mask-type:alpha" maskUnits="userSpaceOnUse" x="72" y="140" width="414" height="516">
		<path d="M72.5 140.648H485.5V655.148L81 493.148L72.5 140.648Z" fill="#D9D9D9" />
	</mask>
	<g mask="url(#mask1_104_126)">
		<rect x="93.5" y="188.648" width="313" height="472" rx="41" stroke="#252C37" stroke-width="10" />
		<circle cx="124.5" cy="219.648" r="8" fill="#252C37" />
		<path d="M374 221H370V216H371V215H373V216H374V221Z" fill="white" stroke="white" stroke-linejoin="round" />
		<path d="M366 215L359 221H366V215Z" fill="white" stroke="white" stroke-linejoin="round" />
		<path d="M139.584 223V216.906L138.319 217.203V216.125L140.178 215.3H141.047V223H139.584ZM145.697 223.132C144.986 223.132 144.377 222.967 143.871 222.637C143.365 222.3 142.973 221.834 142.694 221.24C142.423 220.639 142.287 219.942 142.287 219.15C142.287 218.365 142.423 217.672 142.694 217.071C142.973 216.47 143.365 216.004 143.871 215.674C144.377 215.337 144.986 215.168 145.697 215.168C146.408 215.168 147.017 215.337 147.523 215.674C148.029 216.004 148.418 216.47 148.689 217.071C148.968 217.672 149.107 218.365 149.107 219.15C149.107 219.942 148.968 220.639 148.689 221.24C148.418 221.834 148.029 222.3 147.523 222.637C147.017 222.967 146.408 223.132 145.697 223.132ZM145.697 221.867C146.276 221.867 146.749 221.625 147.116 221.141C147.483 220.657 147.666 219.993 147.666 219.15C147.666 218.307 147.483 217.643 147.116 217.159C146.749 216.675 146.276 216.433 145.697 216.433C145.11 216.433 144.634 216.675 144.267 217.159C143.908 217.643 143.728 218.307 143.728 219.15C143.728 219.993 143.908 220.657 144.267 221.141C144.634 221.625 145.11 221.867 145.697 221.867ZM150.922 223.077C150.665 223.077 150.452 222.996 150.284 222.835C150.122 222.674 150.042 222.479 150.042 222.252C150.042 222.017 150.122 221.819 150.284 221.658C150.452 221.497 150.665 221.416 150.922 221.416C151.178 221.416 151.387 221.497 151.549 221.658C151.717 221.819 151.802 222.017 151.802 222.252C151.802 222.479 151.717 222.674 151.549 222.835C151.387 222.996 151.178 223.077 150.922 223.077ZM150.922 219.073C150.665 219.073 150.452 218.992 150.284 218.831C150.122 218.67 150.042 218.475 150.042 218.248C150.042 218.013 150.122 217.815 150.284 217.654C150.452 217.493 150.665 217.412 150.922 217.412C151.178 217.412 151.387 217.493 151.549 217.654C151.717 217.815 151.802 218.013 151.802 218.248C151.802 218.475 151.717 218.67 151.549 218.831C151.387 218.992 151.178 219.073 150.922 219.073ZM156.171 223.132C155.459 223.132 154.851 222.967 154.345 222.637C153.839 222.3 153.446 221.834 153.168 221.24C152.896 220.639 152.761 219.942 152.761 219.15C152.761 218.365 152.896 217.672 153.168 217.071C153.446 216.47 153.839 216.004 154.345 215.674C154.851 215.337 155.459 215.168 156.171 215.168C156.882 215.168 157.491 215.337 157.997 215.674C158.503 216.004 158.891 216.47 159.163 217.071C159.441 217.672 159.581 218.365 159.581 219.15C159.581 219.942 159.441 220.639 159.163 221.24C158.891 221.834 158.503 222.3 157.997 222.637C157.491 222.967 156.882 223.132 156.171 223.132ZM156.171 221.867C156.75 221.867 157.223 221.625 157.59 221.141C157.956 220.657 158.14 219.993 158.14 219.15C158.14 218.307 157.956 217.643 157.59 217.159C157.223 216.675 156.75 216.433 156.171 216.433C155.584 216.433 155.107 216.675 154.741 217.159C154.381 217.643 154.202 218.307 154.202 219.15C154.202 219.993 154.381 220.657 154.741 221.141C155.107 221.625 155.584 221.867 156.171 221.867ZM163.98 223.132C163.269 223.132 162.66 222.967 162.154 222.637C161.648 222.3 161.256 221.834 160.977 221.24C160.706 220.639 160.57 219.942 160.57 219.15C160.57 218.365 160.706 217.672 160.977 217.071C161.256 216.47 161.648 216.004 162.154 215.674C162.66 215.337 163.269 215.168 163.98 215.168C164.692 215.168 165.3 215.337 165.806 215.674C166.312 216.004 166.701 216.47 166.972 217.071C167.251 217.672 167.39 218.365 167.39 219.15C167.39 219.942 167.251 220.639 166.972 221.24C166.701 221.834 166.312 222.3 165.806 222.637C165.3 222.967 164.692 223.132 163.98 223.132ZM163.98 221.867C164.56 221.867 165.033 221.625 165.399 221.141C165.766 220.657 165.949 219.993 165.949 219.15C165.949 218.307 165.766 217.643 165.399 217.159C165.033 216.675 164.56 216.433 163.98 216.433C163.394 216.433 162.917 216.675 162.55 217.159C162.191 217.643 162.011 218.307 162.011 219.15C162.011 219.993 162.191 220.657 162.55 221.141C162.917 221.625 163.394 221.867 163.98 221.867Z" fill="white" />
		<path d="M354 221.325L350 216.325C353.2 213.925 356.667 215.325 358 216.325L354 221.325Z" fill="white" stroke="white" stroke-linejoin="round" />
		<rect x="124.5" y="238.648" width="251" height="93" rx="5" fill="#252C37" />
		<path d="M138.748 255V247.3H141.377C142.279 247.3 143.02 247.461 143.599 247.784C144.186 248.099 144.618 248.547 144.897 249.126C145.183 249.698 145.326 250.373 145.326 251.15C145.326 251.927 145.183 252.606 144.897 253.185C144.618 253.757 144.186 254.204 143.599 254.527C143.02 254.842 142.279 255 141.377 255H138.748ZM140.156 253.79H141.311C141.956 253.79 142.466 253.687 142.84 253.482C143.214 253.269 143.482 252.969 143.643 252.58C143.804 252.184 143.885 251.707 143.885 251.15C143.885 250.6 143.804 250.127 143.643 249.731C143.482 249.335 143.214 249.031 142.84 248.818C142.466 248.605 141.956 248.499 141.311 248.499H140.156V253.79ZM149.153 255.132C148.625 255.132 148.149 255.011 147.723 254.769C147.305 254.527 146.972 254.193 146.722 253.768C146.48 253.335 146.359 252.837 146.359 252.272C146.359 251.707 146.484 251.212 146.733 250.787C146.983 250.354 147.316 250.017 147.734 249.775C148.16 249.533 148.636 249.412 149.164 249.412C149.685 249.412 150.154 249.533 150.572 249.775C150.998 250.017 151.331 250.354 151.573 250.787C151.823 251.212 151.947 251.707 151.947 252.272C151.947 252.837 151.823 253.335 151.573 253.768C151.331 254.193 150.998 254.527 150.572 254.769C150.147 255.011 149.674 255.132 149.153 255.132ZM149.153 253.911C149.52 253.911 149.839 253.775 150.11 253.504C150.382 253.225 150.517 252.815 150.517 252.272C150.517 251.729 150.382 251.322 150.11 251.051C149.839 250.772 149.524 250.633 149.164 250.633C148.79 250.633 148.468 250.772 148.196 251.051C147.932 251.322 147.8 251.729 147.8 252.272C147.8 252.815 147.932 253.225 148.196 253.504C148.468 253.775 148.787 253.911 149.153 253.911ZM153.206 255V249.544H154.449L154.57 250.281C154.746 250.017 154.977 249.808 155.263 249.654C155.557 249.493 155.894 249.412 156.275 249.412C157.119 249.412 157.716 249.738 158.068 250.391C158.266 250.09 158.53 249.852 158.86 249.676C159.198 249.5 159.564 249.412 159.96 249.412C160.672 249.412 161.218 249.625 161.599 250.05C161.981 250.475 162.171 251.099 162.171 251.92V255H160.763V252.052C160.763 251.583 160.672 251.223 160.488 250.974C160.312 250.725 160.037 250.6 159.663 250.6C159.282 250.6 158.974 250.739 158.739 251.018C158.512 251.297 158.398 251.685 158.398 252.184V255H156.99V252.052C156.99 251.583 156.899 251.223 156.715 250.974C156.532 250.725 156.25 250.6 155.868 250.6C155.494 250.6 155.19 250.739 154.955 251.018C154.728 251.297 154.614 251.685 154.614 252.184V255H153.206ZM166.159 255.132C165.609 255.132 165.121 255.015 164.696 254.78C164.271 254.545 163.937 254.215 163.695 253.79C163.453 253.365 163.332 252.873 163.332 252.316C163.332 251.751 163.449 251.249 163.684 250.809C163.926 250.369 164.256 250.028 164.674 249.786C165.099 249.537 165.598 249.412 166.17 249.412C166.705 249.412 167.178 249.529 167.589 249.764C168 249.999 168.319 250.321 168.546 250.732C168.781 251.135 168.898 251.586 168.898 252.085C168.898 252.166 168.894 252.25 168.887 252.338C168.887 252.426 168.883 252.518 168.876 252.613H164.729C164.758 253.038 164.905 253.372 165.169 253.614C165.44 253.856 165.767 253.977 166.148 253.977C166.434 253.977 166.672 253.915 166.863 253.79C167.061 253.658 167.208 253.489 167.303 253.284H168.733C168.63 253.629 168.458 253.944 168.216 254.23C167.981 254.509 167.688 254.729 167.336 254.89C166.991 255.051 166.599 255.132 166.159 255.132ZM166.17 250.556C165.825 250.556 165.521 250.655 165.257 250.853C164.993 251.044 164.824 251.337 164.751 251.733H167.468C167.446 251.374 167.314 251.088 167.072 250.875C166.83 250.662 166.529 250.556 166.17 250.556ZM170.082 255V249.544H171.325L171.435 250.468C171.604 250.145 171.846 249.889 172.161 249.698C172.484 249.507 172.862 249.412 173.294 249.412C173.969 249.412 174.493 249.625 174.867 250.05C175.241 250.475 175.428 251.099 175.428 251.92V255H174.02V252.052C174.02 251.583 173.925 251.223 173.734 250.974C173.544 250.725 173.247 250.6 172.843 250.6C172.447 250.6 172.121 250.739 171.864 251.018C171.615 251.297 171.49 251.685 171.49 252.184V255H170.082ZM177.534 248.697C177.277 248.697 177.064 248.62 176.896 248.466C176.734 248.312 176.654 248.118 176.654 247.883C176.654 247.648 176.734 247.458 176.896 247.311C177.064 247.157 177.277 247.08 177.534 247.08C177.79 247.08 177.999 247.157 178.161 247.311C178.329 247.458 178.414 247.648 178.414 247.883C178.414 248.118 178.329 248.312 178.161 248.466C177.999 248.62 177.79 248.697 177.534 248.697ZM176.83 255V249.544H178.238V255H176.83ZM182.38 255.132C181.823 255.132 181.332 255.011 180.906 254.769C180.481 254.527 180.144 254.19 179.894 253.757C179.652 253.324 179.531 252.829 179.531 252.272C179.531 251.715 179.652 251.22 179.894 250.787C180.144 250.354 180.481 250.017 180.906 249.775C181.332 249.533 181.823 249.412 182.38 249.412C183.077 249.412 183.664 249.595 184.14 249.962C184.617 250.321 184.921 250.82 185.053 251.458H183.568C183.495 251.194 183.348 250.989 183.128 250.842C182.916 250.688 182.663 250.611 182.369 250.611C181.981 250.611 181.651 250.758 181.379 251.051C181.108 251.344 180.972 251.751 180.972 252.272C180.972 252.793 181.108 253.2 181.379 253.493C181.651 253.786 181.981 253.933 182.369 253.933C182.663 253.933 182.916 253.86 183.128 253.713C183.348 253.566 183.495 253.357 183.568 253.086H185.053C184.921 253.702 184.617 254.197 184.14 254.571C183.664 254.945 183.077 255.132 182.38 255.132ZM188.184 255.132C187.715 255.132 187.33 255.059 187.029 254.912C186.728 254.758 186.505 254.556 186.358 254.307C186.211 254.058 186.138 253.783 186.138 253.482C186.138 252.976 186.336 252.565 186.732 252.25C187.128 251.935 187.722 251.777 188.514 251.777H189.9V251.645C189.9 251.271 189.794 250.996 189.581 250.82C189.368 250.644 189.104 250.556 188.789 250.556C188.503 250.556 188.254 250.626 188.041 250.765C187.828 250.897 187.696 251.095 187.645 251.359H186.27C186.307 250.963 186.439 250.618 186.666 250.325C186.901 250.032 187.201 249.808 187.568 249.654C187.935 249.493 188.345 249.412 188.8 249.412C189.577 249.412 190.19 249.606 190.637 249.995C191.084 250.384 191.308 250.934 191.308 251.645V255H190.109L189.977 254.12C189.816 254.413 189.588 254.655 189.295 254.846C189.009 255.037 188.639 255.132 188.184 255.132ZM188.503 254.032C188.906 254.032 189.218 253.9 189.438 253.636C189.665 253.372 189.808 253.046 189.867 252.657H188.668C188.294 252.657 188.026 252.727 187.865 252.866C187.704 252.998 187.623 253.163 187.623 253.361C187.623 253.574 187.704 253.739 187.865 253.856C188.026 253.973 188.239 254.032 188.503 254.032ZM196.142 255V248.906L194.877 249.203V248.125L196.736 247.3H197.605V255H196.142ZM201.815 255.132C201.287 255.132 200.81 255.04 200.385 254.857C199.959 254.666 199.618 254.399 199.362 254.054C199.112 253.709 198.988 253.31 198.988 252.855C198.988 252.386 199.109 251.975 199.351 251.623C199.6 251.271 199.926 251.018 200.33 250.864C199.978 250.71 199.699 250.49 199.494 250.204C199.288 249.911 199.186 249.584 199.186 249.225C199.186 248.858 199.285 248.521 199.483 248.213C199.681 247.898 199.974 247.645 200.363 247.454C200.759 247.263 201.243 247.168 201.815 247.168C202.387 247.168 202.867 247.263 203.256 247.454C203.644 247.645 203.938 247.898 204.136 248.213C204.334 248.521 204.433 248.858 204.433 249.225C204.433 249.577 204.326 249.903 204.114 250.204C203.908 250.497 203.633 250.717 203.289 250.864C203.699 251.018 204.026 251.271 204.268 251.623C204.51 251.975 204.631 252.386 204.631 252.855C204.631 253.31 204.506 253.709 204.257 254.054C204.007 254.399 203.666 254.666 203.234 254.857C202.808 255.04 202.335 255.132 201.815 255.132ZM201.815 250.446C202.196 250.446 202.497 250.347 202.717 250.149C202.937 249.951 203.047 249.698 203.047 249.39C203.047 249.053 202.937 248.789 202.717 248.598C202.504 248.407 202.203 248.312 201.815 248.312C201.419 248.312 201.114 248.407 200.902 248.598C200.689 248.789 200.583 249.053 200.583 249.39C200.583 249.705 200.689 249.962 200.902 250.16C201.122 250.351 201.426 250.446 201.815 250.446ZM201.815 253.955C202.284 253.955 202.64 253.841 202.882 253.614C203.124 253.379 203.245 253.086 203.245 252.734C203.245 252.345 203.116 252.041 202.86 251.821C202.61 251.601 202.262 251.491 201.815 251.491C201.367 251.491 201.012 251.601 200.748 251.821C200.491 252.041 200.363 252.345 200.363 252.734C200.363 253.086 200.484 253.379 200.726 253.614C200.975 253.841 201.338 253.955 201.815 253.955ZM208.857 255V250.721H208.109V249.544H208.857V248.906C208.857 248.246 209.022 247.777 209.352 247.498C209.689 247.219 210.144 247.08 210.716 247.08H211.321V248.279H210.936C210.694 248.279 210.521 248.327 210.419 248.422C210.316 248.517 210.265 248.679 210.265 248.906V249.544H211.442V250.721H210.265V255H208.857ZM214.993 255.132C214.443 255.132 213.955 255.015 213.53 254.78C213.105 254.545 212.771 254.215 212.529 253.79C212.287 253.365 212.166 252.873 212.166 252.316C212.166 251.751 212.283 251.249 212.518 250.809C212.76 250.369 213.09 250.028 213.508 249.786C213.933 249.537 214.432 249.412 215.004 249.412C215.539 249.412 216.012 249.529 216.423 249.764C216.834 249.999 217.153 250.321 217.38 250.732C217.615 251.135 217.732 251.586 217.732 252.085C217.732 252.166 217.728 252.25 217.721 252.338C217.721 252.426 217.717 252.518 217.71 252.613H213.563C213.592 253.038 213.739 253.372 214.003 253.614C214.274 253.856 214.601 253.977 214.982 253.977C215.268 253.977 215.506 253.915 215.697 253.79C215.895 253.658 216.042 253.489 216.137 253.284H217.567C217.464 253.629 217.292 253.944 217.05 254.23C216.815 254.509 216.522 254.729 216.17 254.89C215.825 255.051 215.433 255.132 214.993 255.132ZM215.004 250.556C214.659 250.556 214.355 250.655 214.091 250.853C213.827 251.044 213.658 251.337 213.585 251.733H216.302C216.28 251.374 216.148 251.088 215.906 250.875C215.664 250.662 215.363 250.556 215.004 250.556ZM222.15 255.132C221.74 255.132 221.38 255.055 221.072 254.901C220.764 254.747 220.515 254.531 220.324 254.252L220.17 255H218.916V247.08H220.324V250.325C220.5 250.083 220.731 249.87 221.017 249.687C221.311 249.504 221.688 249.412 222.15 249.412C222.664 249.412 223.122 249.537 223.525 249.786C223.929 250.035 224.248 250.376 224.482 250.809C224.717 251.242 224.834 251.733 224.834 252.283C224.834 252.833 224.717 253.324 224.482 253.757C224.248 254.182 223.929 254.52 223.525 254.769C223.122 255.011 222.664 255.132 222.15 255.132ZM221.853 253.9C222.301 253.9 222.671 253.75 222.964 253.449C223.258 253.148 223.404 252.76 223.404 252.283C223.404 251.806 223.258 251.414 222.964 251.106C222.671 250.798 222.301 250.644 221.853 250.644C221.399 250.644 221.025 250.798 220.731 251.106C220.445 251.407 220.302 251.795 220.302 252.272C220.302 252.749 220.445 253.141 220.731 253.449C221.025 253.75 221.399 253.9 221.853 253.9Z" fill="#D3DDDF" />
		<circle cx="147" cy="275.148" r="12.5" fill="#6B7172" />
		<circle cx="188" cy="275.148" r="12.5" fill="#14a3a3" />
		<circle cx="229" cy="275.148" r="12.5" fill="#6B7172" />
		<circle cx="270" cy="275.148" r="12.5" fill="#14a3a3" />
		<circle cx="311" cy="275.148" r="12.5" fill="#6B7172" />
		<circle cx="352" cy="275.148" r="12.5" fill="#6B7172" />
		<rect x="175.5" y="302.648" width="156" height="4" rx="2" fill="#6B7072" />
		<rect x="167.5" y="302.648" width="54" height="4" rx="2" fill="#14a3a3" />
		<rect x="234.5" y="321.648" width="30" height="4" rx="2" fill="#6B7172" />
		<circle cx="221.5" cy="304.648" r="6" fill="#14a3a3" />
		<path d="M130.248 352.648V344.948H131.656L135.275 350.371V344.948H136.683V352.648H135.275L131.656 347.236V352.648H130.248ZM140.761 352.78C140.233 352.78 139.756 352.659 139.331 352.417C138.913 352.175 138.579 351.842 138.33 351.416C138.088 350.984 137.967 350.485 137.967 349.92C137.967 349.356 138.091 348.861 138.341 348.435C138.59 348.003 138.924 347.665 139.342 347.423C139.767 347.181 140.244 347.06 140.772 347.06C141.292 347.06 141.762 347.181 142.18 347.423C142.605 347.665 142.939 348.003 143.181 348.435C143.43 348.861 143.555 349.356 143.555 349.92C143.555 350.485 143.43 350.984 143.181 351.416C142.939 351.842 142.605 352.175 142.18 352.417C141.754 352.659 141.281 352.78 140.761 352.78ZM140.761 351.559C141.127 351.559 141.446 351.424 141.718 351.152C141.989 350.874 142.125 350.463 142.125 349.92C142.125 349.378 141.989 348.971 141.718 348.699C141.446 348.421 141.131 348.281 140.772 348.281C140.398 348.281 140.075 348.421 139.804 348.699C139.54 348.971 139.408 349.378 139.408 349.92C139.408 350.463 139.54 350.874 139.804 351.152C140.075 351.424 140.394 351.559 140.761 351.559ZM147.03 352.648C146.458 352.648 145.999 352.509 145.655 352.23C145.31 351.952 145.138 351.457 145.138 350.745V348.369H144.203V347.192H145.138L145.303 345.729H146.546V347.192H148.02V348.369H146.546V350.756C146.546 351.02 146.601 351.204 146.711 351.306C146.828 351.402 147.026 351.449 147.305 351.449H147.987V352.648H147.03ZM149.988 346.345C149.731 346.345 149.518 346.268 149.35 346.114C149.188 345.96 149.108 345.766 149.108 345.531C149.108 345.297 149.188 345.106 149.35 344.959C149.518 344.805 149.731 344.728 149.988 344.728C150.244 344.728 150.453 344.805 150.615 344.959C150.783 345.106 150.868 345.297 150.868 345.531C150.868 345.766 150.783 345.96 150.615 346.114C150.453 346.268 150.244 346.345 149.988 346.345ZM149.284 352.648V347.192H150.692V352.648H149.284ZM152.414 352.648V348.369H151.666V347.192H152.414V346.554C152.414 345.894 152.579 345.425 152.909 345.146C153.247 344.868 153.701 344.728 154.273 344.728H154.878V345.927H154.493C154.251 345.927 154.079 345.975 153.976 346.07C153.874 346.166 153.822 346.327 153.822 346.554V347.192H157.342V352.648H155.934V348.369H153.822V352.648H152.414ZM156.649 346.411C156.393 346.411 156.18 346.334 156.011 346.18C155.85 346.026 155.769 345.832 155.769 345.597C155.769 345.363 155.85 345.172 156.011 345.025C156.18 344.871 156.393 344.794 156.649 344.794C156.906 344.794 157.115 344.871 157.276 345.025C157.445 345.172 157.529 345.363 157.529 345.597C157.529 345.832 157.445 346.026 157.276 346.18C157.115 346.334 156.906 346.411 156.649 346.411ZM161.505 352.78C160.948 352.78 160.457 352.659 160.031 352.417C159.606 352.175 159.269 351.838 159.019 351.405C158.777 350.973 158.656 350.478 158.656 349.92C158.656 349.363 158.777 348.868 159.019 348.435C159.269 348.003 159.606 347.665 160.031 347.423C160.457 347.181 160.948 347.06 161.505 347.06C162.202 347.06 162.789 347.244 163.265 347.61C163.742 347.97 164.046 348.468 164.178 349.106H162.693C162.62 348.842 162.473 348.637 162.253 348.49C162.041 348.336 161.788 348.259 161.494 348.259C161.106 348.259 160.776 348.406 160.504 348.699C160.233 348.993 160.097 349.4 160.097 349.92C160.097 350.441 160.233 350.848 160.504 351.141C160.776 351.435 161.106 351.581 161.494 351.581C161.788 351.581 162.041 351.508 162.253 351.361C162.473 351.215 162.62 351.006 162.693 350.734H164.178C164.046 351.35 163.742 351.845 163.265 352.219C162.789 352.593 162.202 352.78 161.505 352.78ZM165.428 352.648V344.728H166.836V348.028C167.019 347.728 167.265 347.493 167.573 347.324C167.888 347.148 168.248 347.06 168.651 347.06C169.326 347.06 169.846 347.273 170.213 347.698C170.587 348.124 170.774 348.747 170.774 349.568V352.648H169.377V349.7C169.377 349.231 169.282 348.872 169.091 348.622C168.908 348.373 168.614 348.248 168.211 348.248C167.815 348.248 167.485 348.388 167.221 348.666C166.964 348.945 166.836 349.334 166.836 349.832V352.648H165.428ZM174.771 352.78C174.221 352.78 173.734 352.663 173.308 352.428C172.883 352.194 172.549 351.864 172.307 351.438C172.065 351.013 171.944 350.522 171.944 349.964C171.944 349.4 172.062 348.897 172.296 348.457C172.538 348.017 172.868 347.676 173.286 347.434C173.712 347.185 174.21 347.06 174.782 347.06C175.318 347.06 175.791 347.178 176.201 347.412C176.612 347.647 176.931 347.97 177.158 348.38C177.393 348.784 177.51 349.235 177.51 349.733C177.51 349.814 177.507 349.898 177.499 349.986C177.499 350.074 177.496 350.166 177.488 350.261H173.341C173.371 350.687 173.517 351.02 173.781 351.262C174.053 351.504 174.379 351.625 174.76 351.625C175.046 351.625 175.285 351.563 175.475 351.438C175.673 351.306 175.82 351.138 175.915 350.932H177.345C177.243 351.277 177.07 351.592 176.828 351.878C176.594 352.157 176.3 352.377 175.948 352.538C175.604 352.7 175.211 352.78 174.771 352.78ZM174.782 348.204C174.438 348.204 174.133 348.303 173.869 348.501C173.605 348.692 173.437 348.985 173.363 349.381H176.08C176.058 349.022 175.926 348.736 175.684 348.523C175.442 348.311 175.142 348.204 174.782 348.204ZM179.299 352.725C179.043 352.725 178.83 352.645 178.661 352.483C178.5 352.322 178.419 352.128 178.419 351.9C178.419 351.666 178.5 351.468 178.661 351.306C178.83 351.145 179.043 351.064 179.299 351.064C179.556 351.064 179.765 351.145 179.926 351.306C180.095 351.468 180.179 351.666 180.179 351.9C180.179 352.128 180.095 352.322 179.926 352.483C179.765 352.645 179.556 352.725 179.299 352.725ZM179.299 348.721C179.043 348.721 178.83 348.641 178.661 348.479C178.5 348.318 178.419 348.124 178.419 347.896C178.419 347.662 178.5 347.464 178.661 347.302C178.83 347.141 179.043 347.06 179.299 347.06C179.556 347.06 179.765 347.141 179.926 347.302C180.095 347.464 180.179 347.662 180.179 347.896C180.179 348.124 180.095 348.318 179.926 348.479C179.765 348.641 179.556 348.721 179.299 348.721Z" fill="white" />
	</g>
	<defs>
		<linearGradient id="paint0_linear_104_126" x1="-6.64805e-06" y1="475.5" x2="163" y2="702" gradientUnits="userSpaceOnUse">
			<stop stop-color="#6B7072" />
			<stop offset="1" stop-color="#6B7072" stop-opacity="0" />
		</linearGradient>
		<linearGradient id="paint1_linear_104_126" x1="365" y1="421.5" x2="556" y2="608.5" gradientUnits="userSpaceOnUse">
			<stop stop-color="#6B7072" />
			<stop offset="1" stop-color="#6B7072" stop-opacity="0" />
		</linearGradient>
		<linearGradient id="paint2_linear_104_126" x1="182.5" y1="43" x2="538" y2="493" gradientUnits="userSpaceOnUse">
			<stop stop-color="#14a3a3" />
			<stop offset="1" stop-color="#14a3a3" stop-opacity="0" />
		</linearGradient>
	</defs>
</svg>
