<svg width="499" height="557" viewBox="0 0 499 557" fill="none" xmlns="http://www.w3.org/2000/svg">
	<path d="M183.754 498.095C187.405 499.268 206.288 502.72 206.747 502.662C208.702 503.349 211.156 503.506 211.978 503.402C213.357 503.228 216.173 503.34 217.695 502.447C218.825 501.784 209.519 500.159 207.778 499.73C201.512 498.186 185.963 495.247 183.807 494.819C181.651 494.391 149.338 482.594 142.956 480.131C136.574 477.669 125.447 472.77 120.587 469.414C115.726 466.058 111.874 465.144 109 464.573C106.126 464.002 105.202 460.383 101.725 460.588C98.2485 460.794 80.9404 453.173 78.5259 452.544C76.1113 451.915 59.4015 447.247 56.2383 446.663C52.6795 446.007 35.1563 432.78 28.2877 432.013C21.4192 431.247 22.1425 431.791 19.0915 429.491C15.5816 426.845 12.0332 425.89 9.16769 423.363C5.67535 420.283 8.51343 417.508 12.0284 413.555C15.2972 409.879 20.6096 407.427 23.879 405.384C27.1484 403.34 32.3906 396.488 36.9566 395.575C41.0426 394.759 37.774 393.532 34.9132 393.941C27.0553 395.063 20.2004 404.977 12.8447 410.288C6.18296 415.098 -0.349917 416.031 3.85486 422.137C8.05963 428.242 21.5717 437.999 25.8249 438.396C30.0781 438.792 56.8223 452.382 58.3174 453.127C59.8126 453.872 80.1421 457.944 83.9356 458.399C87.7292 458.854 104.694 467.452 106.39 467.938C108.086 468.425 128.728 476.558 133.271 479.253C137.815 481.948 157.538 490.198 161.59 490.854C165.642 491.509 180.103 496.921 183.754 498.095Z" fill="#6B7072" />
	<path d="M396.008 401.56C392.239 400.933 378.063 394.181 376.391 393.618L375.914 397.247C378.759 397.949 379.517 401.607 382.999 401.56C386.481 401.514 403.423 409.917 405.807 410.656C408.19 411.394 424.669 416.821 427.802 417.548C431.328 418.366 444.331 419.667 450.362 423.042C456.083 426.244 456.41 427.553 459.353 429.989C462.738 432.793 459.353 438.572 457.309 439.389C452.986 441.118 441.924 449.447 438.232 453.235C434.799 456.758 429.38 458.964 426.021 460.856C422.661 462.748 417.112 469.354 412.509 470.057C408.39 470.686 411.599 472.061 414.475 471.784C422.376 471.021 429.677 461.431 437.267 456.461C444.142 451.961 444.641 452.057 450.362 447.153C456.083 442.25 467.526 436.052 463.439 429.172C461.258 425.499 455.09 422.629 453.631 421.816C452.171 421.004 399.776 402.188 396.008 401.56Z" fill="#6B7072" />
	<mask id="mask0_104_126" style="mask-type:alpha" maskUnits="userSpaceOnUse" x="124" y="0" width="375" height="367">
		<path d="M373.496 269.5V172.603L242.066 56.0052C200.383 55.8334 154.226 55.8264 124 56.5L133.5 0.5H179.5L242.066 56.0052C282.896 56.1735 319.433 56.5 332.496 56.5C358.896 56.5 370.83 79.8333 373.496 91.5V172.603L498.5 283.5L373.496 367V269.5Z" fill="#D9D9D9" />
	</mask>
	<g mask="url(#mask0_104_126)">
		<path fill-rule="evenodd" clip-rule="evenodd" d="M173.798 11.4209C174.526 11.5851 197.703 29.3129 202.291 33.005C203.573 34.0369 205.873 36.0102 208.643 38.3867L208.644 38.3875C215.784 44.5138 226.048 53.3195 230.056 55.5913C235.619 58.7446 259.011 81.4823 263.822 87.8814C268.111 93.5862 289.625 109.287 295.783 113.781L295.787 113.784C296.534 114.329 297.055 114.709 297.29 114.886C297.999 115.417 300.496 118.083 303.725 121.531C310.408 128.668 320.227 139.154 323.816 140.987C329.139 143.707 351.308 167.687 352.994 169.586C354.681 171.484 387.323 196.126 393.373 199.01C399.424 201.894 428.792 226.225 436.976 236.421C444.818 246.192 463.993 263.274 473.75 271.966L473.751 271.967L473.752 271.968C474.176 272.345 474.582 272.707 474.968 273.051C477.085 274.938 478.985 276.438 480.713 277.803C483.536 280.032 485.899 281.897 487.989 284.488C488.109 285.303 487.263 287.923 484.783 287.42C484.631 287.41 484.473 287.387 484.307 287.351C480.625 286.533 470.805 283.512 467.532 282.443C466.221 282.014 465.428 281.578 464.63 281.139C463.193 280.349 461.736 279.547 457.199 278.753C450.259 277.538 435.104 272.226 433.58 270.645C432.056 269.064 423.011 267.774 420.89 268.127L420.895 268.111C420.548 268.208 420.028 268.216 419.198 268.152C416.947 267.979 415.9 269.001 414.946 269.931C414.574 270.294 414.216 270.643 413.807 270.902C411.474 272.375 406.187 279.146 405.074 281.565C403.652 284.359 400.599 290.553 399.761 292.981C399.326 294.241 399.069 294.816 398.783 295.455C398.38 296.355 397.92 297.382 396.827 300.631C394.959 306.186 385.908 316.381 384.261 317.172C382.614 317.964 378.77 324.628 377.931 326.207C377.71 326.623 377.476 327.145 377.211 327.738C376.47 329.392 375.485 331.595 373.839 333.569C372.131 335.618 369.567 335.956 367.339 336.25C366.977 336.298 366.624 336.344 366.285 336.397C365.875 336.542 365.46 336.541 365.074 336.329C364.144 336.004 363.235 335.102 362.427 334.186C358.671 331.472 352.455 328.044 350.04 327.525C348.443 327.181 347.722 326.661 346.9 326.068C345.778 325.259 344.466 324.314 340.486 323.49C333.586 322.062 320.114 312.733 318.932 310.882C317.75 309.032 310.726 303.587 308.721 302.813C308.091 302.57 306.601 301.626 304.724 300.435C300.619 297.833 294.659 294.055 291.787 293.867C289.441 293.713 289.408 292.75 289.376 291.795C289.351 291.046 289.325 290.302 288.185 289.956C285.589 289.17 282.286 288.003 280.69 284.866C279.683 282.888 276.037 281.385 272.385 279.88C270.247 278.998 268.107 278.116 266.495 277.137C263.687 275.434 259.545 277.01 256.427 278.196C255.855 278.413 255.317 278.618 254.828 278.787C254.738 279.608 254.352 279.948 252.325 280.398C249.677 280.986 248.83 282.528 248.059 283.931C247.758 284.479 247.469 285.005 247.089 285.446C244.922 287.956 241.212 297.591 240.779 300.761C240.468 302.518 239.269 305.095 238.081 307.649C236.76 310.491 235.451 313.304 235.391 314.929C235.332 316.53 235.238 317.281 235.132 318.115C234.983 319.292 234.814 320.633 234.695 324.752C234.491 331.793 227.65 346.681 226.034 348.168C224.417 349.654 220.278 357.517 219.866 359.626C219.838 359.771 219.799 359.966 219.752 360.204C219.107 363.446 216.851 374.791 217.279 378.673C217.537 381.01 216.595 381.21 215.66 381.408C214.926 381.564 214.197 381.718 214.056 382.901C213.733 385.593 207.259 397.71 204.448 399.829C203.227 400.749 195.856 397.813 187.755 394.585C178.92 391.066 169.216 387.201 165.675 387.615C164.948 388.447 164.39 388.862 163.952 387.967C163.365 386.77 143.126 381.363 140.631 381.014C138.419 380.705 135.783 381.322 132.754 382.031C128.903 382.933 124.416 383.983 119.355 383.468C115.154 383.041 114.858 366.971 114.648 355.584C114.565 351.088 114.496 347.323 114.205 345.537C113.177 339.227 116.245 306.754 118.219 298.996C120.192 291.239 120.149 258.245 120.057 255.53C120.027 254.646 120.541 251.029 121.206 246.353C122.582 236.674 124.603 222.454 123.783 218.509C122.568 212.657 127.37 180.36 127.793 177.856C128.217 175.353 126.866 137.157 125.322 130.636C123.779 124.115 123.193 85.8638 126.013 73.099C127.179 67.8229 128.344 59.8428 129.568 51.4563C131.305 39.5526 133.162 26.8301 135.312 19.858C138.243 10.3507 145.949 3.08852 153.723 3.08866C153.968 3.08867 154.201 3.09643 154.422 3.11129C154.462 3.10198 154.502 3.09409 154.541 3.08768C156.77 2.72118 159.811 3.58161 162.095 4.22803C162.802 4.42796 163.436 4.60741 163.951 4.72377C165.253 5.01749 171.385 9.35801 173.798 11.4209ZM153.874 7.07172C153.57 7.11803 153.247 7.15415 152.905 7.17859C141.453 7.99634 138.765 26.3192 137.485 35.048C137.38 35.7643 137.284 36.416 137.194 36.9882C136.829 39.3045 136.498 41.5842 136.18 43.7724C135.462 48.7107 134.813 53.1829 133.994 56.5575C132.104 64.3496 130.804 85.4109 131.395 90.8279C131.891 97.4555 133.126 111.881 134.099 116.562C134.603 118.99 134.753 120.259 134.919 121.669C135.154 123.655 135.421 125.921 136.762 132.107C139.053 142.682 135.719 174.676 134.168 179.931C132.618 185.185 130.121 204.507 130.354 208.35C130.426 209.556 130.151 213.203 129.805 217.799C129.047 227.849 127.947 242.437 129.393 245.968C130.574 248.852 129.428 250.952 128.291 253.035C127.4 254.668 126.514 256.291 126.76 258.274C127.32 262.787 127.832 268.885 124.967 277.349C122.848 283.61 122.479 294.862 122.162 304.52C122.05 307.918 121.945 311.119 121.773 313.836C121.11 324.272 119.084 378.676 122.219 377.333C127.947 374.879 136.13 373.652 153.314 378.969C153.912 379.154 155.159 379.486 156.708 379.897C159.535 380.648 163.367 381.665 166.09 382.548C170.07 383.323 177.491 386.069 184.761 388.759C194.211 392.257 203.405 395.659 204.448 394.512C206.657 392.082 210.334 377.938 210.666 376.502C210.741 376.175 210.985 375.335 211.318 374.185C212.451 370.279 214.617 362.806 214.727 359.826C214.869 355.969 222.141 343.295 222.734 342.351C223.327 341.407 228.403 319.889 228.456 315.449C228.508 311.01 236.248 291.26 239.642 286.942C241.284 284.853 241.816 283.924 242.206 283.243C242.622 282.517 242.875 282.074 244.143 280.807C244.527 280.423 244.839 280.096 245.111 279.811C246.289 278.579 246.726 278.122 249.052 277.126C249.191 277.066 249.514 276.873 249.944 276.616L249.945 276.615C250.921 276.031 252.444 275.12 253.608 274.699C255.638 272.938 258.323 271.897 261.176 272.638C261.604 272.75 262.082 272.87 262.596 272.999L262.6 273C266.694 274.028 273.09 275.635 274.873 277.942C276.664 280.259 290.243 285.77 294.129 287.347C294.602 287.539 294.932 287.673 295.079 287.735C295.521 287.923 296.796 288.962 298.446 290.306C301.86 293.086 306.876 297.172 309.42 297.719C313.195 298.532 324.41 307.9 325.237 308.648C326.063 309.396 346.373 318.145 350.737 318.97C352.602 319.323 355.046 321.296 357.661 323.407C361.12 326.199 364.88 329.234 367.993 329.077C368.101 329.024 368.21 328.97 368.322 328.915C370.378 327.902 373.164 326.53 373.839 324.571C374.887 321.535 382.343 312.351 383.043 311.744C383.744 311.136 392.997 295.237 394.114 291.716C395.231 288.195 403.769 272.906 407.517 270.29C409.33 269.025 409.979 268.414 410.454 267.967C410.961 267.489 411.27 267.198 412.586 266.496C412.985 266.284 413.312 266.099 413.598 265.939C414.834 265.243 415.292 264.985 417.385 264.755C417.511 264.741 417.815 264.665 418.22 264.565C419.47 264.254 421.674 263.705 422.513 264.009C426.938 263.809 438.391 266.658 439.32 267.211C440.278 267.781 465.955 278.404 470.396 278.352C471.99 278.334 471.386 276.906 470.296 275.31C467.606 272.645 465.054 269.987 463.03 267.76C460.391 264.855 456.477 262.088 452.88 259.546C449.476 257.14 446.356 254.935 444.87 253.004C439.98 246.648 425.483 233.841 420.89 230.907C418.721 229.415 415.48 226.899 412.092 224.268L412.091 224.267L412.088 224.265C406.923 220.255 401.417 215.98 398.846 214.667C396.636 213.538 395.553 212.86 394.35 212.106C392.655 211.044 390.721 209.833 385.058 207C375.379 202.159 350.507 177.753 347.382 173.252C344.258 168.752 330.759 154.699 327.618 152.472C326.633 151.773 323.962 149.274 320.596 146.124C313.236 139.236 302.553 129.237 298.894 128.151C295.906 127.264 294.988 125.056 294.076 122.865C293.361 121.147 292.651 119.439 290.951 118.388C287.082 115.997 282.007 112.574 277.205 105.039C274.099 100.165 266.871 94.6391 260.065 89.4344C256.346 86.5915 252.754 83.8443 250.026 81.3517C242.306 74.2959 202.729 39.5556 199.828 37.7621C199.264 37.4137 197.496 35.963 194.941 33.8675C184.913 25.6412 162.775 7.47976 153.874 7.07172Z" fill="#14A3A3" />
	</g>
	<mask id="mask1_104_126" style="mask-type:alpha" maskUnits="userSpaceOnUse" x="39" y="9" width="414" height="516">
		<path d="M39.4949 9.64832H452.495V524.148L47.9949 362.148L39.4949 9.64832Z" fill="#D9D9D9" />
	</mask>
	<g mask="url(#mask1_104_126)">
		<rect x="60.4956" y="57.6483" width="313" height="472" rx="41" stroke="#252C37" stroke-width="10" />
		<circle cx="91.4963" cy="88.6483" r="8" fill="#252C37" />
		<path d="M340.996 90H336.996V85H337.996V84H339.996V85H340.996V90Z" fill="white" stroke="white" stroke-linejoin="round" />
		<path d="M332.996 84L325.996 90H332.996V84Z" fill="white" stroke="white" stroke-linejoin="round" />
		<path d="M106.58 92V85.906L105.315 86.203V85.125L107.174 84.3H108.043V92H106.58ZM112.693 92.132C111.982 92.132 111.373 91.967 110.867 91.637C110.361 91.2997 109.969 90.834 109.69 90.24C109.419 89.6387 109.283 88.942 109.283 88.15C109.283 87.3653 109.419 86.6723 109.69 86.071C109.969 85.4697 110.361 85.004 110.867 84.674C111.373 84.3367 111.982 84.168 112.693 84.168C113.405 84.168 114.013 84.3367 114.519 84.674C115.025 85.004 115.414 85.4697 115.685 86.071C115.964 86.6723 116.103 87.3653 116.103 88.15C116.103 88.942 115.964 89.6387 115.685 90.24C115.414 90.834 115.025 91.2997 114.519 91.637C114.013 91.967 113.405 92.132 112.693 92.132ZM112.693 90.867C113.273 90.867 113.746 90.625 114.112 90.141C114.479 89.657 114.662 88.9933 114.662 88.15C114.662 87.3067 114.479 86.643 114.112 86.159C113.746 85.675 113.273 85.433 112.693 85.433C112.107 85.433 111.63 85.675 111.263 86.159C110.904 86.643 110.724 87.3067 110.724 88.15C110.724 88.9933 110.904 89.657 111.263 90.141C111.63 90.625 112.107 90.867 112.693 90.867ZM117.918 92.077C117.661 92.077 117.449 91.9963 117.28 91.835C117.119 91.6737 117.038 91.4793 117.038 91.252C117.038 91.0173 117.119 90.8193 117.28 90.658C117.449 90.4967 117.661 90.416 117.918 90.416C118.175 90.416 118.384 90.4967 118.545 90.658C118.714 90.8193 118.798 91.0173 118.798 91.252C118.798 91.4793 118.714 91.6737 118.545 91.835C118.384 91.9963 118.175 92.077 117.918 92.077ZM117.918 88.073C117.661 88.073 117.449 87.9923 117.28 87.831C117.119 87.6697 117.038 87.4753 117.038 87.248C117.038 87.0133 117.119 86.8153 117.28 86.654C117.449 86.4927 117.661 86.412 117.918 86.412C118.175 86.412 118.384 86.4927 118.545 86.654C118.714 86.8153 118.798 87.0133 118.798 87.248C118.798 87.4753 118.714 87.6697 118.545 87.831C118.384 87.9923 118.175 88.073 117.918 88.073ZM123.167 92.132C122.456 92.132 121.847 91.967 121.341 91.637C120.835 91.2997 120.443 90.834 120.164 90.24C119.893 89.6387 119.757 88.942 119.757 88.15C119.757 87.3653 119.893 86.6723 120.164 86.071C120.443 85.4697 120.835 85.004 121.341 84.674C121.847 84.3367 122.456 84.168 123.167 84.168C123.878 84.168 124.487 84.3367 124.993 84.674C125.499 85.004 125.888 85.4697 126.159 86.071C126.438 86.6723 126.577 87.3653 126.577 88.15C126.577 88.942 126.438 89.6387 126.159 90.24C125.888 90.834 125.499 91.2997 124.993 91.637C124.487 91.967 123.878 92.132 123.167 92.132ZM123.167 90.867C123.746 90.867 124.219 90.625 124.586 90.141C124.953 89.657 125.136 88.9933 125.136 88.15C125.136 87.3067 124.953 86.643 124.586 86.159C124.219 85.675 123.746 85.433 123.167 85.433C122.58 85.433 122.104 85.675 121.737 86.159C121.378 86.643 121.198 87.3067 121.198 88.15C121.198 88.9933 121.378 89.657 121.737 90.141C122.104 90.625 122.58 90.867 123.167 90.867ZM130.977 92.132C130.265 92.132 129.657 91.967 129.151 91.637C128.645 91.2997 128.252 90.834 127.974 90.24C127.702 89.6387 127.567 88.942 127.567 88.15C127.567 87.3653 127.702 86.6723 127.974 86.071C128.252 85.4697 128.645 85.004 129.151 84.674C129.657 84.3367 130.265 84.168 130.977 84.168C131.688 84.168 132.297 84.3367 132.803 84.674C133.309 85.004 133.697 85.4697 133.969 86.071C134.247 86.6723 134.387 87.3653 134.387 88.15C134.387 88.942 134.247 89.6387 133.969 90.24C133.697 90.834 133.309 91.2997 132.803 91.637C132.297 91.967 131.688 92.132 130.977 92.132ZM130.977 90.867C131.556 90.867 132.029 90.625 132.396 90.141C132.762 89.657 132.946 88.9933 132.946 88.15C132.946 87.3067 132.762 86.643 132.396 86.159C132.029 85.675 131.556 85.433 130.977 85.433C130.39 85.433 129.913 85.675 129.547 86.159C129.187 86.643 129.008 87.3067 129.008 88.15C129.008 88.9933 129.187 89.657 129.547 90.141C129.913 90.625 130.39 90.867 130.977 90.867Z" fill="white" />
		<path d="M320.996 90.3252L316.996 85.3252C320.196 82.9252 323.663 84.3252 324.996 85.3252L320.996 90.3252Z" fill="white" stroke="white" stroke-linejoin="round" />
		<rect x="91.4963" y="107.648" width="251" height="93" rx="5" fill="#252C37" />
		<path d="M105.744 124V116.3H108.373C109.275 116.3 110.016 116.461 110.595 116.784C111.182 117.099 111.615 117.547 111.893 118.126C112.179 118.698 112.322 119.373 112.322 120.15C112.322 120.927 112.179 121.606 111.893 122.185C111.615 122.757 111.182 123.204 110.595 123.527C110.016 123.842 109.275 124 108.373 124H105.744ZM107.152 122.79H108.307C108.953 122.79 109.462 122.687 109.836 122.482C110.21 122.269 110.478 121.969 110.639 121.58C110.801 121.184 110.881 120.707 110.881 120.15C110.881 119.6 110.801 119.127 110.639 118.731C110.478 118.335 110.21 118.031 109.836 117.818C109.462 117.605 108.953 117.499 108.307 117.499H107.152V122.79ZM116.15 124.132C115.622 124.132 115.145 124.011 114.72 123.769C114.302 123.527 113.968 123.193 113.719 122.768C113.477 122.335 113.356 121.837 113.356 121.272C113.356 120.707 113.48 120.212 113.73 119.787C113.979 119.354 114.313 119.017 114.731 118.775C115.156 118.533 115.633 118.412 116.161 118.412C116.681 118.412 117.151 118.533 117.569 118.775C117.994 119.017 118.328 119.354 118.57 119.787C118.819 120.212 118.944 120.707 118.944 121.272C118.944 121.837 118.819 122.335 118.57 122.768C118.328 123.193 117.994 123.527 117.569 123.769C117.143 124.011 116.67 124.132 116.15 124.132ZM116.15 122.911C116.516 122.911 116.835 122.775 117.107 122.504C117.378 122.225 117.514 121.815 117.514 121.272C117.514 120.729 117.378 120.322 117.107 120.051C116.835 119.772 116.52 119.633 116.161 119.633C115.787 119.633 115.464 119.772 115.193 120.051C114.929 120.322 114.797 120.729 114.797 121.272C114.797 121.815 114.929 122.225 115.193 122.504C115.464 122.775 115.783 122.911 116.15 122.911ZM120.203 124V118.544H121.446L121.567 119.281C121.743 119.017 121.974 118.808 122.26 118.654C122.553 118.493 122.89 118.412 123.272 118.412C124.115 118.412 124.713 118.738 125.065 119.391C125.263 119.09 125.527 118.852 125.857 118.676C126.194 118.5 126.561 118.412 126.957 118.412C127.668 118.412 128.214 118.625 128.596 119.05C128.977 119.475 129.168 120.099 129.168 120.92V124H127.76V121.052C127.76 120.583 127.668 120.223 127.485 119.974C127.309 119.725 127.034 119.6 126.66 119.6C126.278 119.6 125.97 119.739 125.736 120.018C125.508 120.297 125.395 120.685 125.395 121.184V124H123.987V121.052C123.987 120.583 123.895 120.223 123.712 119.974C123.528 119.725 123.246 119.6 122.865 119.6C122.491 119.6 122.186 119.739 121.952 120.018C121.724 120.297 121.611 120.685 121.611 121.184V124H120.203ZM133.155 124.132C132.605 124.132 132.118 124.015 131.692 123.78C131.267 123.545 130.933 123.215 130.691 122.79C130.449 122.365 130.328 121.873 130.328 121.316C130.328 120.751 130.446 120.249 130.68 119.809C130.922 119.369 131.252 119.028 131.67 118.786C132.096 118.537 132.594 118.412 133.166 118.412C133.702 118.412 134.175 118.529 134.585 118.764C134.996 118.999 135.315 119.321 135.542 119.732C135.777 120.135 135.894 120.586 135.894 121.085C135.894 121.166 135.891 121.25 135.883 121.338C135.883 121.426 135.88 121.518 135.872 121.613H131.725C131.755 122.038 131.901 122.372 132.165 122.614C132.437 122.856 132.763 122.977 133.144 122.977C133.43 122.977 133.669 122.915 133.859 122.79C134.057 122.658 134.204 122.489 134.299 122.284H135.729C135.627 122.629 135.454 122.944 135.212 123.23C134.978 123.509 134.684 123.729 134.332 123.89C133.988 124.051 133.595 124.132 133.155 124.132ZM133.166 119.556C132.822 119.556 132.517 119.655 132.253 119.853C131.989 120.044 131.821 120.337 131.747 120.733H134.464C134.442 120.374 134.31 120.088 134.068 119.875C133.826 119.662 133.526 119.556 133.166 119.556ZM137.079 124V118.544H138.322L138.432 119.468C138.6 119.145 138.842 118.889 139.158 118.698C139.48 118.507 139.858 118.412 140.291 118.412C140.965 118.412 141.49 118.625 141.864 119.05C142.238 119.475 142.425 120.099 142.425 120.92V124H141.017V121.052C141.017 120.583 140.921 120.223 140.731 119.974C140.54 119.725 140.243 119.6 139.84 119.6C139.444 119.6 139.117 119.739 138.861 120.018C138.611 120.297 138.487 120.685 138.487 121.184V124H137.079ZM144.53 117.697C144.273 117.697 144.061 117.62 143.892 117.466C143.731 117.312 143.65 117.118 143.65 116.883C143.65 116.648 143.731 116.458 143.892 116.311C144.061 116.157 144.273 116.08 144.53 116.08C144.787 116.08 144.996 116.157 145.157 116.311C145.326 116.458 145.41 116.648 145.41 116.883C145.41 117.118 145.326 117.312 145.157 117.466C144.996 117.62 144.787 117.697 144.53 117.697ZM143.826 124V118.544H145.234V124H143.826ZM149.377 124.132C148.819 124.132 148.328 124.011 147.903 123.769C147.477 123.527 147.14 123.19 146.891 122.757C146.649 122.324 146.528 121.829 146.528 121.272C146.528 120.715 146.649 120.22 146.891 119.787C147.14 119.354 147.477 119.017 147.903 118.775C148.328 118.533 148.819 118.412 149.377 118.412C150.073 118.412 150.66 118.595 151.137 118.962C151.613 119.321 151.918 119.82 152.05 120.458H150.565C150.491 120.194 150.345 119.989 150.125 119.842C149.912 119.688 149.659 119.611 149.366 119.611C148.977 119.611 148.647 119.758 148.376 120.051C148.104 120.344 147.969 120.751 147.969 121.272C147.969 121.793 148.104 122.2 148.376 122.493C148.647 122.786 148.977 122.933 149.366 122.933C149.659 122.933 149.912 122.86 150.125 122.713C150.345 122.566 150.491 122.357 150.565 122.086H152.05C151.918 122.702 151.613 123.197 151.137 123.571C150.66 123.945 150.073 124.132 149.377 124.132ZM155.18 124.132C154.711 124.132 154.326 124.059 154.025 123.912C153.725 123.758 153.501 123.556 153.354 123.307C153.208 123.058 153.134 122.783 153.134 122.482C153.134 121.976 153.332 121.565 153.728 121.25C154.124 120.935 154.718 120.777 155.51 120.777H156.896V120.645C156.896 120.271 156.79 119.996 156.577 119.82C156.365 119.644 156.101 119.556 155.785 119.556C155.499 119.556 155.25 119.626 155.037 119.765C154.825 119.897 154.693 120.095 154.641 120.359H153.266C153.303 119.963 153.435 119.618 153.662 119.325C153.897 119.032 154.198 118.808 154.564 118.654C154.931 118.493 155.342 118.412 155.796 118.412C156.574 118.412 157.186 118.606 157.633 118.995C158.081 119.384 158.304 119.934 158.304 120.645V124H157.105L156.973 123.12C156.812 123.413 156.585 123.655 156.291 123.846C156.005 124.037 155.635 124.132 155.18 124.132ZM155.499 123.032C155.903 123.032 156.214 122.9 156.434 122.636C156.662 122.372 156.805 122.046 156.863 121.657H155.664C155.29 121.657 155.023 121.727 154.861 121.866C154.7 121.998 154.619 122.163 154.619 122.361C154.619 122.574 154.7 122.739 154.861 122.856C155.023 122.973 155.235 123.032 155.499 123.032ZM163.138 124V117.906L161.873 118.203V117.125L163.732 116.3H164.601V124H163.138ZM168.811 124.132C168.283 124.132 167.806 124.04 167.381 123.857C166.956 123.666 166.615 123.399 166.358 123.054C166.109 122.709 165.984 122.31 165.984 121.855C165.984 121.386 166.105 120.975 166.347 120.623C166.596 120.271 166.923 120.018 167.326 119.864C166.974 119.71 166.695 119.49 166.49 119.204C166.285 118.911 166.182 118.584 166.182 118.225C166.182 117.858 166.281 117.521 166.479 117.213C166.677 116.898 166.97 116.645 167.359 116.454C167.755 116.263 168.239 116.168 168.811 116.168C169.383 116.168 169.863 116.263 170.252 116.454C170.641 116.645 170.934 116.898 171.132 117.213C171.33 117.521 171.429 117.858 171.429 118.225C171.429 118.577 171.323 118.903 171.11 119.204C170.905 119.497 170.63 119.717 170.285 119.864C170.696 120.018 171.022 120.271 171.264 120.623C171.506 120.975 171.627 121.386 171.627 121.855C171.627 122.31 171.502 122.709 171.253 123.054C171.004 123.399 170.663 123.666 170.23 123.857C169.805 124.04 169.332 124.132 168.811 124.132ZM168.811 119.446C169.192 119.446 169.493 119.347 169.713 119.149C169.933 118.951 170.043 118.698 170.043 118.39C170.043 118.053 169.933 117.789 169.713 117.598C169.5 117.407 169.2 117.312 168.811 117.312C168.415 117.312 168.111 117.407 167.898 117.598C167.685 117.789 167.579 118.053 167.579 118.39C167.579 118.705 167.685 118.962 167.898 119.16C168.118 119.351 168.422 119.446 168.811 119.446ZM168.811 122.955C169.28 122.955 169.636 122.841 169.878 122.614C170.12 122.379 170.241 122.086 170.241 121.734C170.241 121.345 170.113 121.041 169.856 120.821C169.607 120.601 169.258 120.491 168.811 120.491C168.364 120.491 168.008 120.601 167.744 120.821C167.487 121.041 167.359 121.345 167.359 121.734C167.359 122.086 167.48 122.379 167.722 122.614C167.971 122.841 168.334 122.955 168.811 122.955ZM175.853 124V119.721H175.105V118.544H175.853V117.906C175.853 117.246 176.018 116.777 176.348 116.498C176.685 116.219 177.14 116.08 177.712 116.08H178.317V117.279H177.932C177.69 117.279 177.518 117.327 177.415 117.422C177.312 117.517 177.261 117.679 177.261 117.906V118.544H178.438V119.721H177.261V124H175.853ZM181.989 124.132C181.439 124.132 180.952 124.015 180.526 123.78C180.101 123.545 179.767 123.215 179.525 122.79C179.283 122.365 179.162 121.873 179.162 121.316C179.162 120.751 179.28 120.249 179.514 119.809C179.756 119.369 180.086 119.028 180.504 118.786C180.93 118.537 181.428 118.412 182 118.412C182.536 118.412 183.009 118.529 183.419 118.764C183.83 118.999 184.149 119.321 184.376 119.732C184.611 120.135 184.728 120.586 184.728 121.085C184.728 121.166 184.725 121.25 184.717 121.338C184.717 121.426 184.714 121.518 184.706 121.613H180.559C180.589 122.038 180.735 122.372 180.999 122.614C181.271 122.856 181.597 122.977 181.978 122.977C182.264 122.977 182.503 122.915 182.693 122.79C182.891 122.658 183.038 122.489 183.133 122.284H184.563C184.461 122.629 184.288 122.944 184.046 123.23C183.812 123.509 183.518 123.729 183.166 123.89C182.822 124.051 182.429 124.132 181.989 124.132ZM182 119.556C181.656 119.556 181.351 119.655 181.087 119.853C180.823 120.044 180.655 120.337 180.581 120.733H183.298C183.276 120.374 183.144 120.088 182.902 119.875C182.66 119.662 182.36 119.556 182 119.556ZM189.147 124.132C188.736 124.132 188.377 124.055 188.069 123.901C187.761 123.747 187.511 123.531 187.321 123.252L187.167 124H185.913V116.08H187.321V119.325C187.497 119.083 187.728 118.87 188.014 118.687C188.307 118.504 188.685 118.412 189.147 118.412C189.66 118.412 190.118 118.537 190.522 118.786C190.925 119.035 191.244 119.376 191.479 119.809C191.713 120.242 191.831 120.733 191.831 121.283C191.831 121.833 191.713 122.324 191.479 122.757C191.244 123.182 190.925 123.52 190.522 123.769C190.118 124.011 189.66 124.132 189.147 124.132ZM188.85 122.9C189.297 122.9 189.667 122.75 189.961 122.449C190.254 122.148 190.401 121.76 190.401 121.283C190.401 120.806 190.254 120.414 189.961 120.106C189.667 119.798 189.297 119.644 188.85 119.644C188.395 119.644 188.021 119.798 187.728 120.106C187.442 120.407 187.299 120.795 187.299 121.272C187.299 121.749 187.442 122.141 187.728 122.449C188.021 122.75 188.395 122.9 188.85 122.9Z" fill="#D3DDDF" />
		<circle cx="113.996" cy="144.148" r="12.5" fill="#6B7172" />
		<circle cx="154.996" cy="144.148" r="12.5" fill="#14A3A3" />
		<circle cx="195.996" cy="144.148" r="12.5" fill="#6B7172" />
		<circle cx="236.996" cy="144.148" r="12.5" fill="#14A3A3" />
		<circle cx="277.996" cy="144.148" r="12.5" fill="#6B7172" />
		<circle cx="318.996" cy="144.148" r="12.5" fill="#6B7172" />
		<rect x="142.496" y="171.648" width="156" height="4" rx="2" fill="#6B7072" />
		<rect x="134.496" y="171.648" width="54" height="4" rx="2" fill="#14A3A3" />
		<rect x="201.496" y="190.648" width="30" height="4" rx="2" fill="#6B7172" />
		<circle cx="188.496" cy="173.648" r="6" fill="#14A3A3" />
		<path d="M97.2443 221.648V213.948H98.6523L102.271 219.371V213.948H103.679V221.648H102.271L98.6523 216.236V221.648H97.2443ZM107.757 221.78C107.229 221.78 106.752 221.659 106.327 221.417C105.909 221.175 105.575 220.842 105.326 220.416C105.084 219.984 104.963 219.485 104.963 218.92C104.963 218.356 105.088 217.861 105.337 217.435C105.586 217.003 105.92 216.665 106.338 216.423C106.763 216.181 107.24 216.06 107.768 216.06C108.289 216.06 108.758 216.181 109.176 216.423C109.601 216.665 109.935 217.003 110.177 217.435C110.426 217.861 110.551 218.356 110.551 218.92C110.551 219.485 110.426 219.984 110.177 220.416C109.935 220.842 109.601 221.175 109.176 221.417C108.751 221.659 108.278 221.78 107.757 221.78ZM107.757 220.559C108.124 220.559 108.443 220.424 108.714 220.152C108.985 219.874 109.121 219.463 109.121 218.92C109.121 218.378 108.985 217.971 108.714 217.699C108.443 217.421 108.127 217.281 107.768 217.281C107.394 217.281 107.071 217.421 106.8 217.699C106.536 217.971 106.404 218.378 106.404 218.92C106.404 219.463 106.536 219.874 106.8 220.152C107.071 220.424 107.39 220.559 107.757 220.559ZM114.026 221.648C113.454 221.648 112.996 221.509 112.651 221.23C112.306 220.952 112.134 220.457 112.134 219.745V217.369H111.199V216.192H112.134L112.299 214.729H113.542V216.192H115.016V217.369H113.542V219.756C113.542 220.02 113.597 220.204 113.707 220.306C113.824 220.402 114.022 220.449 114.301 220.449H114.983V221.648H114.026ZM116.984 215.345C116.727 215.345 116.515 215.268 116.346 215.114C116.185 214.96 116.104 214.766 116.104 214.531C116.104 214.297 116.185 214.106 116.346 213.959C116.515 213.805 116.727 213.728 116.984 213.728C117.241 213.728 117.45 213.805 117.611 213.959C117.78 214.106 117.864 214.297 117.864 214.531C117.864 214.766 117.78 214.96 117.611 215.114C117.45 215.268 117.241 215.345 116.984 215.345ZM116.28 221.648V216.192H117.688V221.648H116.28ZM119.411 221.648V217.369H118.663V216.192H119.411V215.554C119.411 214.894 119.576 214.425 119.906 214.146C120.243 213.868 120.698 213.728 121.27 213.728H121.875V214.927H121.49C121.248 214.927 121.075 214.975 120.973 215.07C120.87 215.166 120.819 215.327 120.819 215.554V216.192H124.339V221.648H122.931V217.369H120.819V221.648H119.411ZM123.646 215.411C123.389 215.411 123.176 215.334 123.008 215.18C122.846 215.026 122.766 214.832 122.766 214.597C122.766 214.363 122.846 214.172 123.008 214.025C123.176 213.871 123.389 213.794 123.646 213.794C123.902 213.794 124.111 213.871 124.273 214.025C124.441 214.172 124.526 214.363 124.526 214.597C124.526 214.832 124.441 215.026 124.273 215.18C124.111 215.334 123.902 215.411 123.646 215.411ZM128.502 221.78C127.944 221.78 127.453 221.659 127.028 221.417C126.602 221.175 126.265 220.838 126.016 220.405C125.774 219.973 125.653 219.478 125.653 218.92C125.653 218.363 125.774 217.868 126.016 217.435C126.265 217.003 126.602 216.665 127.028 216.423C127.453 216.181 127.944 216.06 128.502 216.06C129.198 216.06 129.785 216.244 130.262 216.61C130.738 216.97 131.043 217.468 131.175 218.106H129.69C129.616 217.842 129.47 217.637 129.25 217.49C129.037 217.336 128.784 217.259 128.491 217.259C128.102 217.259 127.772 217.406 127.501 217.699C127.229 217.993 127.094 218.4 127.094 218.92C127.094 219.441 127.229 219.848 127.501 220.141C127.772 220.435 128.102 220.581 128.491 220.581C128.784 220.581 129.037 220.508 129.25 220.361C129.47 220.215 129.616 220.006 129.69 219.734H131.175C131.043 220.35 130.738 220.845 130.262 221.219C129.785 221.593 129.198 221.78 128.502 221.78ZM132.424 221.648V213.728H133.832V217.028C134.016 216.728 134.261 216.493 134.569 216.324C134.885 216.148 135.244 216.06 135.647 216.06C136.322 216.06 136.843 216.273 137.209 216.698C137.583 217.124 137.77 217.747 137.77 218.568V221.648H136.373V218.7C136.373 218.231 136.278 217.872 136.087 217.622C135.904 217.373 135.611 217.248 135.207 217.248C134.811 217.248 134.481 217.388 134.217 217.666C133.961 217.945 133.832 218.334 133.832 218.832V221.648H132.424ZM141.768 221.78C141.218 221.78 140.73 221.663 140.305 221.428C139.879 221.194 139.546 220.864 139.304 220.438C139.062 220.013 138.941 219.522 138.941 218.964C138.941 218.4 139.058 217.897 139.293 217.457C139.535 217.017 139.865 216.676 140.283 216.434C140.708 216.185 141.207 216.06 141.779 216.06C142.314 216.06 142.787 216.178 143.198 216.412C143.608 216.647 143.927 216.97 144.155 217.38C144.389 217.784 144.507 218.235 144.507 218.733C144.507 218.814 144.503 218.898 144.496 218.986C144.496 219.074 144.492 219.166 144.485 219.261H140.338C140.367 219.687 140.514 220.02 140.778 220.262C141.049 220.504 141.375 220.625 141.757 220.625C142.043 220.625 142.281 220.563 142.472 220.438C142.67 220.306 142.816 220.138 142.912 219.932H144.342C144.239 220.277 144.067 220.592 143.825 220.878C143.59 221.157 143.297 221.377 142.945 221.538C142.6 221.7 142.208 221.78 141.768 221.78ZM141.779 217.204C141.434 217.204 141.13 217.303 140.866 217.501C140.602 217.692 140.433 217.985 140.36 218.381H143.077C143.055 218.022 142.923 217.736 142.681 217.523C142.439 217.311 142.138 217.204 141.779 217.204ZM146.296 221.725C146.039 221.725 145.826 221.645 145.658 221.483C145.496 221.322 145.416 221.128 145.416 220.9C145.416 220.666 145.496 220.468 145.658 220.306C145.826 220.145 146.039 220.064 146.296 220.064C146.552 220.064 146.761 220.145 146.923 220.306C147.091 220.468 147.176 220.666 147.176 220.9C147.176 221.128 147.091 221.322 146.923 221.483C146.761 221.645 146.552 221.725 146.296 221.725ZM146.296 217.721C146.039 217.721 145.826 217.641 145.658 217.479C145.496 217.318 145.416 217.124 145.416 216.896C145.416 216.662 145.496 216.464 145.658 216.302C145.826 216.141 146.039 216.06 146.296 216.06C146.552 216.06 146.761 216.141 146.923 216.302C147.091 216.464 147.176 216.662 147.176 216.896C147.176 217.124 147.091 217.318 146.923 217.479C146.761 217.641 146.552 217.721 146.296 217.721Z" fill="white" />
	</g>
</svg>
