<?xml version="1.0" encoding="utf-8"?>
<!-- Generator: Adobe Illustrator 17.1.0, SVG Export Plug-In . SVG Version: 6.00 Build 0)  -->
<!DOCTYPE svg PUBLIC "-//W3C//DTD SVG 1.1//EN" "http://www.w3.org/Graphics/SVG/1.1/DTD/svg11.dtd">
<svg version="1.1" id="Layer_1" xmlns="http://www.w3.org/2000/svg" xmlns:xlink="http://www.w3.org/1999/xlink" x="0px" y="0px"
	 viewBox="0 0 900 600" enable-background="new 0 0 900 600" xml:space="preserve">
<path fill="none" d="M2,2h896v596H2V2z"/>
<path fill="#FFFFFF" stroke="#E1E4E5" stroke-width="4.355" d="M704.2,505.3H199.9c-14.9,0-26.9-11.9-26.9-26.4V167.5
	c0-14.6,12-26.4,26.9-26.4h504.3c14.9,0,26.9,11.9,26.9,26.4v311.4C731,493.4,719,505.3,704.2,505.3z"/>
<path fill="none" stroke="#E1E4E5" stroke-width="4.355" stroke-linecap="round" stroke-linejoin="round" d="M298.4,210.2l-78.6,0.1
	 M350.3,186.5l-131,0.2"/>
<path fill="#F0335F" d="M233.7,338.5h53.8c6,0,10.9,4.9,10.9,10.9v108.2c0,6-4.9,10.9-10.9,10.9h-53.8c-6,0-10.9-4.9-10.9-10.9
	V349.4C222.8,343.4,227.7,338.5,233.7,338.5z"/>
<path fill="#F0335F" d="M350.2,297h54.2c6,0,10.9,4.9,10.9,10.9v149.7c0,6-4.9,10.9-10.9,10.9h-54.2c-6,0-10.9-4.9-10.9-10.9V307.9
	C339.3,301.9,344.2,297,350.2,297z"/>
<path fill="#F0335F" d="M467.6,338.5h53.8c6,0,10.9,4.9,10.9,10.9v108.2c0,6-4.9,10.9-10.9,10.9h-53.8c-6,0-10.9-4.9-10.9-10.9
	V349.4C456.8,343.4,461.6,338.5,467.6,338.5z"/>
<path fill="#F0335F" d="M584.6,297h54.2c6,0,10.9,4.9,10.9,10.9v149.7c0,6-4.9,10.9-10.9,10.9h-54.2c-6,0-10.9-4.9-10.9-10.9V307.9
	C573.7,301.9,578.6,297,584.6,297z"/>
<path fill="none" stroke="#E1E4E5" stroke-width="11.36" stroke-linecap="round" stroke-linejoin="round" d="M230.8,310l123.3-73.6
	L496.8,310l145.3-89"/>
<path fill="#F0335F" d="M758,159.8c0,36.2-27.2,70.1-63.8,78.3c-36.6-8.2-63.8-42.1-63.8-78.3v-28.4c0-6.5,3.9-12.3,9.9-14.8
	l39.9-16.3c9-3.7,19-3.7,28,0l39.9,16.3c6,2.5,9.9,8.3,9.9,14.8L758,159.8L758,159.8z"/>
<path fill="none" stroke="#FFFFFF" stroke-width="11.024" stroke-linecap="round" stroke-linejoin="round" d="M720.1,151.3
	l-29.9,29.9l-17.9-17.9"/>
<ellipse fill="#F0335F" cx="304.1" cy="102.8" rx="12.5" ry="13"/>
<circle fill="#F0335F" cx="133" cy="304" r="15"/>
<circle fill="#F0335F" cx="574.6" cy="178.7" r="16.2"/>
<circle fill="#E1E4E5" cx="700.7" cy="297.7" r="8.9"/>
<circle fill="#E1E4E5" cx="171.3" cy="115.7" r="7.6"/>
<circle fill="#E1E4E5" cx="797.9" cy="162.2" r="11.6"/>
<circle fill="#E1E4E5" cx="429" cy="191.4" r="10.1"/>
<circle fill="#E1E4E5" cx="509.4" cy="108.7" r="14.6"/>
</svg>
