<svg width="606" height="604" viewBox="0 0 606 604" fill="none" xmlns="http://www.w3.org/2000/svg">
	<path d="M91.536 242.179L63.5332 234.065" stroke="#0D1117" stroke-width="20" stroke-linecap="round" />
	<path d="M514.009 361.293L542.012 369.407" stroke="#0D1117" stroke-width="20" stroke-linecap="round" />
	<path d="M149.647 147.939L128.406 127.968" stroke="#0D1117" stroke-width="20" stroke-linecap="round" />
	<path d="M455.898 455.533L477.139 475.504" stroke="#0D1117" stroke-width="20" stroke-linecap="round" />
	<path d="M247.321 91.5244L239.731 63.375" stroke="#0D1117" stroke-width="20" stroke-linecap="round" />
	<path d="M358.224 511.947L365.814 540.097" stroke="#0D1117" stroke-width="20" stroke-linecap="round" />
	<path d="M359.752 91.1598L366.854 62.8831" stroke="#0D1117" stroke-width="20" stroke-linecap="round" />
	<path d="M245.793 512.312L238.691 540.589" stroke="#0D1117" stroke-width="20" stroke-linecap="round" />
	<path d="M457.359 145.062L478.432 124.913" stroke="#0D1117" stroke-width="20" stroke-linecap="round" />
	<path d="M148.186 458.41L127.113 478.559" stroke="#0D1117" stroke-width="20" stroke-linecap="round" />
	<path d="M62.2792 362.389C119.792 165.148 348.774 57.0538 541.816 235.659C484.303 432.9 255.321 540.994 62.2792 362.389Z" fill="#252C37" />
	<rect x="206.828" y="247.912" width="158" height="158" transform="rotate(-14.8035 206.828 247.912)" fill="#0D1117" />
	<path fill-rule="evenodd" clip-rule="evenodd" d="M235.638 433.247C233.601 432.061 228.07 429.661 222.247 429.545C217.585 429.452 215.52 426.339 213.901 423.899C212.993 422.53 212.226 421.374 211.219 421.082C208.419 420.27 197.218 417.025 194.134 413.185C191.668 410.113 191.148 404.493 191.196 402.067L184.957 398.027C183.99 398.282 181.169 397.786 177.623 393.759C174.076 389.732 170.956 378.971 169.84 374.095C169.244 371.839 167.241 366.61 164.001 363.743C160.761 360.876 156.192 351.154 154.313 346.651C155.187 339.524 156.025 324.167 152.376 319.753C148.727 315.339 150.234 307.735 151.444 304.485C152.607 297.799 154.679 283.46 153.657 279.593C153.216 277.925 152.299 278.415 151.489 278.847C149.95 279.669 148.795 280.285 152.014 265.547C155.945 247.545 164.618 231.703 168.464 226.032L176.744 210.397C178.677 209.886 183.652 206.4 188.08 196.541C190.53 191.087 190.677 191.104 191.815 191.238C193.248 191.407 196.253 191.761 207.405 181.608C218.704 171.321 224.243 169.812 230.669 168.061C235.624 166.711 241.106 165.218 250.163 159.447C262.582 151.534 284.795 152.091 301.879 152.519C313.413 152.808 322.608 153.038 324.873 150.564C328.393 146.717 329.371 148.618 330.632 151.068C331.383 152.527 332.235 154.182 333.784 154.932C335.86 155.935 338.767 155.684 341.674 155.432C344.582 155.181 347.489 154.93 349.564 155.933C351.147 156.698 353.393 156.837 355.75 156.983C359.573 157.219 363.689 157.473 365.755 160.446C367.365 162.764 372.758 165.286 378.369 167.908C384.391 170.724 390.662 173.656 392.773 176.578C396.851 182.224 404.24 190.614 413.963 192.182C419.169 193.021 420.882 195.228 422.166 196.882C423.28 198.318 424.071 199.337 426.542 198.684C429.366 197.937 430.184 200.639 431.211 204.033C432.118 207.03 433.189 210.567 435.948 212.747C438.671 214.9 437.49 216.534 435.954 218.658C434.171 221.124 431.91 224.252 434.718 229.622C437.411 234.77 439.316 236.422 440.758 237.673C442.116 238.85 443.063 239.671 443.868 242.718C444.469 244.992 446.106 247.6 447.899 250.458C451.064 255.501 454.715 261.32 454.023 267.445C453.758 269.788 453.393 272.22 453.025 274.678C451.884 282.279 450.707 290.121 452.348 296.331C452.989 298.758 454.072 300.978 455.133 303.153C457.665 308.344 460.073 313.282 456.063 320.174C454.809 322.33 453.455 324.587 452.091 326.862C447.269 334.904 442.319 343.161 441.154 347.903C440.516 350.498 441.427 351.836 442.267 353.069C443.396 354.728 444.395 356.196 441.319 360.272C438.552 363.939 437.087 368.363 435.918 371.893C434.822 375.202 433.987 377.724 432.583 378.095C430.971 378.521 429.635 379.993 428.024 381.767C426.737 383.185 425.274 384.797 423.354 386.223C420.744 388.162 418.527 393.011 416.576 397.279C415.295 400.082 414.128 402.634 413.04 403.947C411.75 405.502 409.95 406.85 408.081 408.249C405.972 409.829 403.776 411.473 402.132 413.553C399.031 417.475 393.386 421.553 389.774 423.542C386.885 425.133 382.769 425.738 381.073 425.841L377.717 428.797L373.038 432.619L368.204 433.897C367.128 435.043 364.461 436.955 362.403 435.43C361.289 434.604 361.111 434.016 360.717 433.761C360.201 433.426 359.317 433.66 355.48 434.674L344.362 437.612C341.087 437.615 333.216 438.489 327.926 441.955C321.314 446.289 317.446 447.311 312.612 448.588C309.413 449.434 308.431 449.24 305.492 448.661C303.99 448.366 301.976 447.969 298.894 447.559C289.782 446.347 278.381 446.257 273.547 447.535C269.679 448.557 263.605 447.749 261.051 447.217L248.401 443.222L235.638 433.247ZM251.359 330.313C249.465 327.71 246.072 321.263 247.655 316.294C249.099 311.76 248.716 310.74 247.857 308.451C247.54 307.604 247.157 306.584 246.778 305.148C246.256 303.176 245.596 302.023 245.01 301C244.016 299.265 243.236 297.902 243.712 293.547C243.933 291.519 244.151 289.98 244.331 288.705C244.766 285.628 244.984 284.089 244.513 280.923C244.289 279.422 244.176 278.996 244.339 278.802C244.662 278.417 246.073 278.948 249.875 273.817C256.259 268.195 260.122 266.905 262.599 266.078C264.681 265.383 265.784 265.014 266.584 262.678C267.611 259.675 269.244 258.293 270.511 257.221C271.403 256.466 272.113 255.865 272.302 254.961C272.666 253.21 277.932 252.783 280.52 252.789L292.021 251.301C294.021 249.738 299.051 247.374 303.167 250.424C303.688 250.81 304.164 251.166 304.602 251.493C308.485 254.395 309.357 255.047 312.079 254.792C312.732 254.731 313.283 254.649 313.776 254.575C315.572 254.307 316.605 254.153 319.002 255.548C320.148 256.215 321.144 257.14 322.139 258.064C323.799 259.606 325.459 261.147 327.814 261.494C328.973 261.665 329.819 261.576 330.5 261.505C332.031 261.344 332.727 261.27 334.281 264.44C336.507 267.836 337.803 270.086 338.697 271.638C340.239 274.314 340.583 274.911 342.436 275.731C343.555 276.225 344.186 276.018 344.725 275.842C345.598 275.556 346.229 275.35 348.292 278.32C350.589 281.627 351.259 283.405 351.777 284.782C352.012 285.406 352.215 285.947 352.526 286.511C352.845 287.091 352.728 287.841 352.586 288.753C352.286 290.679 351.872 293.333 355.208 296.662C360.125 301.568 360.336 308.236 358.402 308.747C357.418 309.007 357.133 309.887 356.806 310.9C356.49 311.876 356.134 312.976 355.074 313.764C354.11 314.48 353.526 314.684 353.478 314.977C353.418 315.341 354.189 315.841 356.096 317.631C358.847 320.214 358.605 323.864 358.14 325.366C357.632 326.707 356.185 329.709 354.455 330.994C353.891 331.413 353.3 331.734 352.726 332.045C351.1 332.927 349.604 333.739 349.193 336.522C348.637 340.289 347.926 341.511 345.025 342.278L335.841 344.705L333.096 348.016L333.607 349.95L330.378 353.389L325.061 354.794C324.365 354.116 322.585 352.863 321.038 353.272C320.389 353.443 320.176 353.5 320.038 353.634C319.767 353.899 319.792 354.469 317.326 356.838C311.848 360.043 309.574 360.013 307.466 359.986C306.471 359.973 305.514 359.96 304.274 360.288C303.594 360.468 302.724 360.778 301.719 361.136C297.009 362.813 289.331 365.549 284.272 360.919C282.175 359.001 281.091 357.719 280.277 356.756C278.707 354.9 278.138 354.228 273.244 352.456C271.008 351.647 269.194 351.195 267.715 350.826C264.277 349.968 262.653 349.563 261.759 346.182C261.432 344.942 261.206 343.573 260.986 342.239C260.349 338.376 259.762 334.815 256.887 335.575C253.794 336.393 251.913 332.408 251.359 330.313Z" fill="#14A3A3" />
	<path d="M62.2792 362.389C119.792 165.148 348.774 57.0538 541.816 235.659C484.303 432.9 255.321 540.994 62.2792 362.389Z" stroke="#0D1117" stroke-width="20" stroke-linecap="round" />
</svg>
