<svg width="651" height="671" viewBox="0 0 651 671" fill="none" xmlns="http://www.w3.org/2000/svg">
	<rect x="428.353" y="264.503" width="135.875" height="393.47" rx="13" transform="rotate(86.893 428.353 264.503)" fill="#252C37" />
	<path d="M384.047 340.873C381.739 343.447 387.596 349.862 384.71 353.079C381.824 356.296 374.813 351.168 372.504 353.742C370.196 356.315 369.24 361.264 365.579 361.462C361.917 361.661 360.431 356.845 357.858 354.537C355.284 352.228 348.869 358.085 345.652 355.199C342.435 352.313 347.563 345.302 344.99 342.994C342.416 340.685 337.467 339.729 337.269 336.068C337.07 332.406 341.886 330.92 344.194 328.347C346.503 325.773 340.646 319.358 343.532 316.141C346.418 312.924 353.429 318.052 355.738 315.479C358.046 312.905 359.002 307.957 362.663 307.758C366.325 307.559 367.811 312.375 370.384 314.684C372.958 316.992 379.373 311.135 382.59 314.021C385.807 316.907 380.679 323.918 383.252 326.227C385.826 328.535 390.775 329.491 390.973 333.153C391.172 336.814 386.356 338.3 384.047 340.873Z" fill="#6B7072" />
	<path d="M354.742 335.119L358.603 338.582L362.463 342.045L373.784 329.833" stroke="#252C37" stroke-width="3" stroke-linecap="round" />
	<path d="M99.4314 358.172L111.852 363.766L114.74 355.486L110.563 353.605L110.835 352.48L109.362 352.295C106.155 351.891 104.012 349.385 103.601 347.635L100.197 333.14L106.995 346.834C107.538 347.926 108.588 348.674 109.795 348.826L124.195 350.638C126.18 350.888 128.001 349.478 128.25 347.478C128.5 345.483 127.089 343.662 125.098 343.411L112.631 341.842L106.475 329.441L114.244 338.377L115.816 331.876C116.521 328.962 114.735 326.026 111.828 325.318L102.442 323.035C101.315 322.76 100.186 322.865 99.1835 323.262L99.3398 322.77C100.378 319.504 98.5786 316.011 95.3201 314.969L93.3202 314.329L89.5272 326.975C89.2485 327.905 88.2677 328.427 87.3425 328.141L80.7912 326.109L79.9481 328.761L78.4804 328.292C77.7004 328.042 76.8662 328.474 76.6177 329.256L75.0384 334.226C74.7898 335.008 75.2208 335.844 76.0008 336.094L77.4686 336.563L76.8315 338.567C75.7933 341.834 77.5927 345.327 80.8512 346.369L84.9256 347.671C87.2699 348.421 89.7307 347.698 91.3136 346.016L89.809 352.239C89.2863 353.231 89.1418 354.422 89.5002 355.578L94.4094 371.419L93.5543 389.729C93.4336 392.31 95.5621 394.439 98.1502 394.298C100.356 394.179 102.156 392.4 102.262 390.14L103.153 371.063C103.177 370.556 103.112 370.047 102.961 369.562L99.4314 358.172Z" fill="#0D1117" />
	<path d="M123.695 368.651L119.006 382.096C120.052 383.712 122.078 384.493 123.993 383.877C126.285 383.14 127.547 380.679 126.811 378.381L123.695 368.651Z" fill="#0D1117" />
	<path d="M111.491 321.9C115.913 321.66 119.302 317.872 119.061 313.439C118.82 309.006 115.041 305.607 110.62 305.847C106.199 306.087 102.81 309.875 103.05 314.308C103.291 318.741 107.07 322.14 111.491 321.9Z" fill="#0D1117" />
	<path d="M129.396 341.709L131.864 334.633C132.394 333.115 131.595 331.453 130.08 330.921C128.565 330.389 126.908 331.19 126.378 332.709L123.926 339.741L125.532 339.943C126.991 340.127 128.326 340.744 129.396 341.709Z" fill="#0D1117" />
	<path d="M125.037 354.153C124.202 354.198 124.178 354.16 119.119 353.523L106.424 389.927C105.894 391.445 106.693 393.107 108.208 393.639C109.723 394.171 111.38 393.37 111.91 391.851L125.057 354.151C125.05 354.152 125.043 354.153 125.037 354.153Z" fill="#0D1117" />
	<path d="M158.996 354.433C158.591 354.327 158.163 354.495 157.939 354.85L154.175 360.793C153.118 362.461 151.838 363.976 150.369 365.294L143.579 371.384C141.82 372.963 140.277 374.77 138.993 376.758L138.195 377.993C136.908 379.986 135.189 381.662 133.167 382.898L128.202 385.931L117.036 391.447C116.625 391.649 116.414 392.114 116.53 392.558C116.646 393.002 117.057 393.303 117.515 393.279L155.959 391.192C159.1 391.021 161.507 388.331 161.336 385.182L159.715 355.316C159.692 354.896 159.402 354.539 158.996 354.433Z" fill="#0D1117" />
	<path d="M89.9568 313.401C87.115 313.124 84.3679 314.856 83.4659 317.694L81.8502 322.777L86.6942 324.28L89.9568 313.401Z" fill="#0D1117" />
	<path d="M275.419 174.198C273.883 177.804 263.539 173.752 258.56 171.276C254.957 170.983 247.116 168.637 244.58 161.592C241.409 152.787 243.663 153.747 226.47 145.357C209.277 136.968 202.351 116.977 190.25 112.886C178.148 108.796 187.746 115.015 176.478 110.214C165.211 105.414 177.564 106.417 165.838 97.6938C154.112 88.9709 150.522 94.896 135.458 89.0104C120.393 83.1248 144.89 78.1193 117.222 74.3191C89.5544 70.5188 109.71 80.7033 99.2351 85.2931C88.7601 89.8829 119.428 142.885 110.289 140.589C101.15 138.293 119.673 197.303 126.351 191.629C133.028 185.954 134.57 214.832 152.971 246.634C171.371 278.435 185.561 266.376 177.171 283.568C168.782 300.761 221.36 342.331 228.662 357.689C235.963 373.047 276.482 400.427 281.864 420.292C287.245 440.157 328.015 464.449 336.069 470.542C344.122 476.636 376.212 502.555 380.468 507.563C384.724 512.571 385.434 513.406 389.94 515.326C394.447 517.246 393.279 512.488 401.208 520.126C409.136 527.764 402.458 533.439 414.059 543.706C425.659 553.973 436.718 551.762 448.57 558.941C460.421 566.12 474.317 567.248 480.952 571.672C487.587 576.097 494.892 562.701 502.319 576.515C509.746 590.329 519.053 580.982 524.312 573.638C529.571 566.294 526.65 554.4 527.861 549.058C529.072 543.717 527.237 528.025 517.557 513.251C507.876 498.477 498.948 474.439 498.031 466.593C497.113 458.747 484.47 442.179 480.923 438.005C477.376 433.832 468.864 423.815 465.819 413.465C462.773 403.116 465.987 401.822 467.197 396.481C468.166 392.207 474.584 391.64 477.673 391.891C479.593 387.384 477.871 388.865 486.249 408.196C496.721 432.359 510.41 426.476 509.991 441.208C509.572 455.939 525.429 471.214 527.64 482.274C529.85 493.333 542.243 512.99 543.995 520.126C545.747 527.262 553.425 537.988 550.67 543.204C547.915 548.421 556.51 566.992 551.753 568.16C546.995 569.328 564.273 584.037 551.753 594.678C539.232 605.318 543.55 602.495 540.211 605.332C536.872 608.169 522.725 610.13 519.053 607.5C515.381 604.871 500.649 604.452 493.764 603.116C488.255 602.047 474.637 593.015 468.517 588.632L465.178 591.47L455.455 586.795L446.943 576.779C444.815 574.274 438.873 568.974 432.129 567.805C423.699 566.343 362.315 527.944 348.128 511.25L326.138 485.374C323.3 482.036 314.788 472.019 304.689 471.976C294.59 471.934 275.311 450.941 271.306 442.844C267.3 434.748 245.478 397.229 238.009 393.514C230.539 389.799 186.225 332.581 181.969 327.572C178.564 323.566 177.825 314.802 177.881 310.921C176.295 311.31 171.846 310.587 166.739 304.577C160.355 297.064 163.944 291.139 161.232 286.256C158.52 281.373 152.594 277.783 144.541 271.69C136.487 265.597 136.196 250.03 127.476 233.003C118.756 215.975 93.6372 171.195 88.7143 155.253C83.7915 139.311 79.2446 118.736 81.1647 114.229C83.0848 109.723 75.4498 88.8976 74.1564 85.6841C72.8631 82.4707 68.0203 77.3194 71.4845 72.9378C74.9487 68.5563 71.7779 59.7506 77.5781 64.8842C83.3784 70.0177 87.6975 59.8759 91.871 56.3291C96.0445 52.7823 108.981 56.1638 115.032 58.2092C121.083 60.2546 131.057 61.8414 132.726 60.4227C134.396 59.0039 153.591 71.4419 156.095 69.3138C158.599 67.1857 181.718 79.1647 185.974 84.1729C190.23 89.1811 197.324 97.5282 207.881 101.494C218.439 105.46 207.255 109.214 223.28 112.846C239.304 116.478 259.714 125.822 259.439 131.714C258.916 142.939 264.716 148.072 269.932 150.827C275.149 153.581 277.818 168.563 272.935 171.276C268.052 173.988 277.339 169.692 275.419 174.198Z" fill="#AF1450" />
	<rect x="477.598" y="130.549" width="135.875" height="393.47" rx="13" transform="rotate(96.2257 477.598 130.549)" fill="#252C37" />
	<path d="M421.341 200.131C418.646 202.296 423.385 209.576 420.016 212.282C416.647 214.989 410.56 208.791 407.864 210.957C405.169 213.122 403.424 217.85 399.778 217.452C396.133 217.054 395.448 212.061 393.283 209.366C391.117 206.671 383.838 211.41 381.131 208.04C378.425 204.671 384.622 198.584 382.457 195.889C380.292 193.193 375.563 191.448 375.961 187.803C376.359 184.157 381.352 183.472 384.047 181.307C386.743 179.142 382.004 171.862 385.373 169.156C388.742 166.449 394.829 172.646 397.524 170.481C400.22 168.316 401.965 163.588 405.611 163.986C409.256 164.383 409.941 169.376 412.106 172.072C414.271 174.767 421.551 170.028 424.258 173.397C426.964 176.767 420.767 182.854 422.932 185.549C425.097 188.244 429.825 189.99 429.428 193.635C429.03 197.281 424.037 197.966 421.341 200.131Z" fill="#6B7072" />
	<path d="M393.357 189.7L396.605 193.744L399.852 197.787L413.004 187.573" stroke="#252C37" stroke-width="3" stroke-linecap="round" />
	<path d="M157.159 195.221L165.514 190.71L168.749 190.646L162.218 206.767C161.292 209.054 158.663 210.158 156.349 209.238C154.034 208.317 152.908 205.717 153.834 203.431L157.159 195.221Z" fill="#0D1117" />
	<path d="M188.39 147.799C184.108 147.332 181.011 143.523 181.472 139.292C181.934 135.061 185.779 132.01 190.062 132.477C194.344 132.944 197.441 136.753 196.979 140.984C196.518 145.215 192.672 148.266 188.39 147.799Z" fill="#0D1117" />
	<path d="M146.261 186.852L161.172 178.801C161.808 178.457 162.518 178.271 163.243 178.256L181.23 177.901C180.323 179.318 177.679 182.627 180.033 186.853L164.55 187.158L150.607 194.687C148.416 195.87 145.674 195.066 144.476 192.906C143.276 190.743 144.075 188.032 146.261 186.852Z" fill="#0D1117" />
	<path d="M136.052 116.071L176.856 120.522C177.249 120.565 179.67 120.829 180.296 121.609C180.923 122.39 179.794 122.768 179.439 122.94L177.965 123.9L176.442 140.561L182.587 148.964L191.753 150.913C194.599 151.519 196.415 154.288 195.811 157.099L195.25 159.702L191.534 155.043L198.099 169.031C198.615 170.171 198.518 171.486 197.847 172.536L189.666 185.333C188.542 187.091 186.201 187.56 184.476 186.479C182.71 185.373 182.198 183.073 183.303 181.346L190.251 170.486L184.401 157.564L186.319 168.888L186.461 169.723L181.777 177.044L171.566 175.027L176.296 153.044L169.516 143.771C168.98 143.038 168.732 142.139 168.817 141.24L170.089 127.882C168.799 128.829 167.777 130.101 167.137 131.58L162.883 141.415C162.308 142.745 161.418 143.919 160.289 144.837L148.311 154.581C146.341 156.184 145.139 158.528 144.995 161.049L144.036 177.818C143.938 179.528 143.352 181.174 142.345 182.566L133.409 194.917C132.336 196.399 130.834 197.526 129.101 198.149L120.358 201.208C119.744 201.429 118.171 201.681 116.84 200.824C115.51 199.967 115.977 195.685 116.047 195.043L123.568 126.099C124.489 117.657 127.61 115.15 136.052 116.071Z" fill="#0D1117" />
	<rect x="534.36" y="421.367" width="135.875" height="393.47" rx="13" transform="rotate(88.2717 534.36 421.367)" fill="#252C37" />
	<path d="M488.23 496.648C485.86 499.166 491.561 505.72 488.598 508.866C485.636 512.013 478.75 506.718 476.38 509.235C474.011 511.752 472.936 516.676 469.271 516.787C465.605 516.898 464.236 512.047 461.719 509.677C459.201 507.308 452.647 513.008 449.501 510.046C446.354 507.084 451.649 500.198 449.132 497.828C446.615 495.458 441.691 494.384 441.58 490.718C441.47 487.053 446.32 485.684 448.69 483.166C451.06 480.649 445.359 474.095 448.321 470.948C451.283 467.802 458.169 473.097 460.539 470.58C462.909 468.062 463.983 463.138 467.649 463.028C471.314 462.917 472.683 467.768 475.201 470.137C477.718 472.507 484.272 466.806 487.419 469.769C490.565 472.731 485.27 479.617 487.787 481.987C490.305 484.357 495.229 485.431 495.339 489.096C495.45 492.762 490.6 494.131 488.23 496.648Z" fill="#6B7072" />
	<path d="M459.071 490.19L462.847 493.745L466.623 497.3L478.235 485.364" stroke="#252C37" stroke-width="3" stroke-linecap="round" />
	<path d="M203.28 507.094L215.563 512.985L218.649 504.777L214.518 502.796L214.817 501.678L213.349 501.457C210.153 500.976 208.071 498.419 207.702 496.66L204.648 482.087L211.115 495.941C211.631 497.046 212.663 497.819 213.866 497.999L228.218 500.158C230.197 500.456 232.05 499.09 232.348 497.097C232.646 495.108 231.278 493.253 229.294 492.955L216.869 491.086L211.013 478.54L218.565 487.661L220.293 481.199C221.067 478.303 219.353 475.325 216.464 474.548L207.135 472.039C206.015 471.738 204.884 471.816 203.872 472.188L204.04 471.7C205.157 468.459 203.442 464.924 200.21 463.804L198.226 463.117L194.129 475.668C193.829 476.59 192.835 477.089 191.917 476.781L185.417 474.591L184.51 477.223L183.054 476.718C182.28 476.45 181.436 476.862 181.169 477.638L179.47 482.568C179.203 483.343 179.614 484.19 180.388 484.458L181.844 484.963L181.159 486.951C180.042 490.192 181.757 493.727 184.989 494.847L189.031 496.247C191.357 497.053 193.834 496.389 195.457 494.746L193.803 500.931C193.257 501.91 193.084 503.098 193.414 504.261L197.941 520.216L196.645 538.5C196.463 541.077 198.539 543.257 201.13 543.179C203.338 543.112 205.181 541.378 205.34 539.121L206.69 520.071C206.726 519.564 206.674 519.054 206.535 518.565L203.28 507.094Z" fill="#0D1117" />
	<path d="M227.284 518.153L222.273 531.482C223.28 533.122 225.287 533.952 227.216 533.383C229.525 532.701 230.845 530.271 230.165 527.956L227.284 518.153Z" fill="#0D1117" />
	<path d="M216.21 471.122C220.635 470.989 224.115 467.283 223.981 462.846C223.847 458.409 220.151 454.92 215.725 455.053C211.299 455.187 207.82 458.892 207.954 463.33C208.088 467.767 211.784 471.256 216.21 471.122Z" fill="#0D1117" />
	<path d="M233.633 491.357L236.27 484.342C236.836 482.837 236.078 481.156 234.576 480.588C233.074 480.02 231.398 480.781 230.832 482.286L228.211 489.257L229.812 489.498C231.266 489.716 232.586 490.365 233.633 491.357Z" fill="#0D1117" />
	<path d="M228.974 503.692C228.139 503.718 228.116 503.679 223.074 502.92L209.506 539.008C208.94 540.513 209.699 542.194 211.2 542.762C212.702 543.33 214.378 542.569 214.944 541.064L228.995 503.691C228.988 503.691 228.981 503.692 228.974 503.692Z" fill="#0D1117" />
	<path d="M262.918 504.789C262.515 504.673 262.083 504.831 261.85 505.18L257.945 511.031C256.848 512.673 255.532 514.157 254.032 515.439L247.098 521.364C245.3 522.9 243.715 524.67 242.383 526.626L241.556 527.841C240.221 529.803 238.462 531.437 236.411 532.624L231.374 535.537L220.079 540.782C219.664 540.975 219.441 541.434 219.546 541.881C219.651 542.328 220.056 542.639 220.513 542.625L258.997 541.464C262.141 541.369 264.612 538.737 264.517 535.585L263.615 505.689C263.602 505.269 263.32 504.905 262.918 504.789Z" fill="#0D1117" />
	<path d="M194.886 462.108C192.051 461.762 189.263 463.428 188.293 466.243L186.556 471.286L191.362 472.905L194.886 462.108Z" fill="#0D1117" />
	<mask id="mask0_177_120" style="mask-type:alpha" maskUnits="userSpaceOnUse" x="134" y="31" width="518" height="602">
		<path d="M135.244 111.645L139.49 32.3843L220.165 72.7221L334.102 222.75L650.435 536.961L591.698 631.79L135.244 111.645Z" fill="#D9D9D9" stroke="black" />
	</mask>
	<g mask="url(#mask0_177_120)">
		<path d="M275.419 174.198C273.883 177.804 263.539 173.752 258.56 171.276C254.957 170.983 247.116 168.637 244.58 161.592C241.409 152.787 243.663 153.747 226.47 145.357C209.277 136.968 202.351 116.977 190.25 112.886C178.148 108.796 187.746 115.015 176.478 110.214C165.211 105.414 177.564 106.417 165.838 97.6938C154.112 88.9709 150.522 94.896 135.458 89.0104C120.393 83.1248 144.89 78.1193 117.222 74.3191C89.5544 70.5188 109.71 80.7033 99.2351 85.2931C88.7601 89.8829 119.428 142.885 110.289 140.589C101.15 138.293 119.673 197.303 126.351 191.629C133.028 185.954 134.57 214.832 152.971 246.634C171.371 278.435 185.561 266.376 177.171 283.568C168.782 300.761 221.36 342.331 228.662 357.689C235.963 373.047 276.482 400.427 281.864 420.292C287.245 440.157 328.015 464.449 336.069 470.542C344.122 476.636 376.212 502.555 380.468 507.563C384.724 512.571 385.434 513.406 389.94 515.326C394.447 517.246 393.279 512.488 401.208 520.126C409.136 527.764 402.458 533.439 414.059 543.706C425.659 553.973 436.718 551.762 448.57 558.941C460.421 566.12 474.317 567.248 480.952 571.672C487.587 576.097 494.892 562.701 502.319 576.515C509.746 590.329 519.053 580.982 524.312 573.638C529.571 566.294 526.65 554.4 527.861 549.058C529.072 543.717 527.237 528.025 517.557 513.251C507.876 498.477 498.948 474.439 498.031 466.593C497.113 458.747 484.47 442.179 480.923 438.005C477.376 433.832 468.864 423.815 465.819 413.465C462.773 403.116 465.987 401.822 467.197 396.481C468.166 392.207 474.584 391.64 477.673 391.891C479.593 387.384 477.871 388.865 486.249 408.196C496.721 432.359 510.41 426.476 509.991 441.208C509.572 455.939 525.429 471.214 527.64 482.274C529.85 493.333 542.243 512.99 543.995 520.126C545.747 527.262 553.425 537.988 550.67 543.204C547.915 548.421 556.51 566.992 551.753 568.16C546.995 569.328 564.273 584.037 551.753 594.678C539.232 605.318 543.55 602.495 540.211 605.332C536.872 608.169 522.725 610.13 519.053 607.5C515.381 604.871 500.649 604.452 493.764 603.116C488.255 602.047 474.637 593.015 468.517 588.632L465.178 591.47L455.455 586.795L446.943 576.779C444.815 574.274 438.873 568.974 432.129 567.805C423.699 566.343 362.315 527.944 348.128 511.25L326.138 485.374C323.3 482.036 314.788 472.019 304.689 471.976C294.59 471.934 275.311 450.941 271.306 442.844C267.3 434.748 245.478 397.229 238.009 393.514C230.539 389.799 186.225 332.581 181.969 327.572C178.564 323.566 177.825 314.802 177.881 310.921C176.295 311.31 171.846 310.587 166.739 304.577C160.355 297.064 163.944 291.139 161.232 286.256C158.52 281.373 152.594 277.783 144.541 271.69C136.487 265.597 136.196 250.03 127.476 233.003C118.756 215.975 93.6372 171.195 88.7143 155.253C83.7915 139.311 79.2446 118.736 81.1647 114.229C83.0848 109.723 75.4498 88.8976 74.1564 85.6841C72.8631 82.4707 68.0203 77.3194 71.4845 72.9378C74.9487 68.5563 71.7779 59.7506 77.5781 64.8842C83.3784 70.0177 87.6975 59.8759 91.871 56.3291C96.0445 52.7823 108.981 56.1638 115.032 58.2092C121.083 60.2546 131.057 61.8414 132.726 60.4227C134.396 59.0039 153.591 71.4419 156.095 69.3138C158.599 67.1857 181.718 79.1647 185.974 84.1729C190.23 89.1811 197.324 97.5282 207.881 101.494C218.439 105.46 207.255 109.214 223.28 112.846C239.304 116.478 259.714 125.822 259.439 131.714C258.916 142.939 264.716 148.072 269.932 150.827C275.149 153.581 277.818 168.563 272.935 171.276C268.052 173.988 277.339 169.692 275.419 174.198Z" fill="#AF1450" />
	</g>
</svg>
