<?xml version="1.0" encoding="UTF-8"?>
<svg id="Livello_1" data-name="Livello 1" xmlns="http://www.w3.org/2000/svg" viewBox="0 0 4000 4000">
	<defs>
		<style>
			.cls-1 {
			fill: #fff;
			}
		</style>
	</defs>
	<rect width="4000" height="4000" fill="none" />
	<path class="cls-1" d="m1940.89,698.54L306.58,3256.34c-26.4,41.32,15.94,92.11,61.33,73.57,186.6-76.23,500.52-204.49,633.35-258.8,70.96-28.99,894.28-365.52,894.28-365.52l104.46-44.63,104.45,44.63s823.32,336.53,894.28,365.52c132.82,54.3,446.75,182.57,633.35,258.8,45.39,18.54,87.73-32.25,61.33-73.57L2059.11,698.54c-27.59-43.17-90.64-43.17-118.23,0Zm529.69,1769.72l-177.64,139.59-239.17-285.31c-28.04-33.45-79.48-33.45-107.52,0l-239.17,285.31-177.64-139.59c-25.48-20.02-61.36-19.99-86.8.09l-180.67,142.59,676.7-1219.69c26.72-48.16,95.97-48.16,122.68,0l676.7,1219.69-180.67-142.59c-25.44-20.08-61.32-20.12-86.8-.09Z" />
</svg>
