<svg width="411" height="310" viewBox="0 0 411 310" fill="none" xmlns="http://www.w3.org/2000/svg">
	<path d="M74.5326 111.957C75.0399 108.545 79.9601 108.545 80.4674 111.957L103.416 266.295C103.611 267.604 102.925 268.886 101.728 269.45L99.766 270.375C99.5891 270.458 99.4045 270.524 99.2147 270.571L93.5 272L77 276L53.4367 282.456C51.3469 283.028 49.3579 281.265 49.6766 279.121L74.5326 111.957Z" fill="#252C37" />
	<path d="M308.033 19.9565C308.54 16.5448 313.46 16.5448 313.967 19.9565L338.363 184.021C338.452 184.624 338.356 185.239 338.088 185.785L337.763 186.446C337.291 187.408 336.341 188.044 335.272 188.116L286.217 191.421C284.307 191.55 282.766 189.88 283.048 187.987L308.033 19.9565Z" fill="#252C37" />
	<path d="M354.033 65.9565C354.54 62.5448 359.46 62.5448 359.967 65.9565L376.088 174.374C376.311 175.873 375.381 177.303 373.92 177.707L362 181L341.5 184.5L340.647 184.741C338.552 185.332 336.545 183.565 336.865 181.412L354.033 65.9565Z" fill="#252C37" />
	<path d="M268.033 82.9566C268.54 79.5449 273.46 79.5448 273.967 82.9565L291.76 202.616C291.931 203.766 291.422 204.911 290.454 205.555L275.699 215.368C275.566 215.456 275.427 215.533 275.283 215.599L252.5 226L251.094 226.466C248.972 227.169 246.854 225.388 247.183 223.177L268.033 82.9566Z" fill="#252C37" />
	<path d="M125.5 202.5V260L225 235V205L180 147.5L125.5 202.5Z" fill="#252C37" />
	<path d="M226.5 134.5V147.734C226.5 148.743 227.251 149.594 228.252 149.719L236.19 150.711C237.405 150.863 238.47 149.897 238.437 148.673L238.053 134.446C238.023 133.363 237.137 132.5 236.053 132.5H228.5C227.395 132.5 226.5 133.395 226.5 134.5Z" fill="#0D1117" />
	<path d="M225.5 207H291.5L269 221.5L225.5 236V207Z" fill="#252C37" />
	<rect x="224.5" y="208" width="5" height="25" fill="#0D1117" />
	<rect x="122.5" y="206" width="5" height="55" fill="#0D1117" />
	<path d="M268.683 155.263L177.5 137L230.317 212.519L273.666 214L321.5 190.308L268.683 155.263Z" fill="#0D1117" />
	<path d="M125.5 208.5H114.572C113.345 208.5 112.268 207.687 111.931 206.508C111.664 205.573 111.911 204.567 112.58 203.863L176.182 136.861C176.609 136.411 177.339 136.455 177.71 136.952L234 212.5H229.98C228.418 212.5 226.945 211.769 225.999 210.525L180 150L125.5 208.5Z" fill="#0D1117" />
	<rect x="167.5" y="170" width="13" height="13" rx="2" fill="#0D1117" />
	<rect x="137" y="216" width="25" height="40" rx="2" fill="#0D1117" />
	<rect x="176" y="206" width="25" height="27" rx="2" fill="#0D1117" />
	<rect x="142" y="221" width="15" height="9" rx="2" fill="#6B7072" />
	<rect x="179" y="210" width="8" height="8" rx="2" fill="#6B7072" />
	<rect x="190" y="210" width="8" height="8" rx="2" fill="#6B7072" />
	<rect x="190" y="221" width="8" height="8" rx="2" fill="#6B7072" />
	<rect x="179" y="221" width="8" height="8" rx="2" fill="#6B7072" />
	<rect x="142" y="235" width="15" height="9" rx="2" fill="#6B7072" />
	<rect x="142" y="249" width="15" height="8" rx="2" fill="#6B7072" />
	<path d="M46 283C40.5 285 14.4999 298.5 13.9999 299C10.9999 300 7.89438 302.106 6.99995 303C5.49995 304.5 2 307 0.999951 309.5C0.257139 311.357 12.9999 304.611 15.4999 303.5C24.4999 299.5 46 288.5 49 287C52 285.5 102 269.5 112 266.5C122 263.5 140 259 149 258.5C158 258 163.5 255.5 167.5 253.5C171.5 251.5 176 255 180 251.5C184 248 212 241 215.5 239.5C219 238 238 233.5 243.5 233C249 232.5 283 217 292 211.5C301 206 300.5 207 305.5 204C309.5 201.6 322.5 195.667 328.5 193C333.333 190.667 353.5 184.581 361.5 183.5C366.5 182.824 373.5 181.079 381 179.5C388.5 177.921 400 176.5 406.5 174C411.7 172 411 170.833 410 170.5C404.667 171.333 401.5 171.621 391.5 172.421C379 173.421 356 180.5 343 182.5C330 184.5 294.5 198 289 201.5C283.5 205 245.5 226.5 243 227C240.5 227.5 208.5 234.5 203.5 237.5C198.5 240.5 170 246 167.5 247C165 248 132.5 257.5 124.5 258.5C116.5 259.5 84.9999 268 79.4999 271C73.9999 274 51.5 281 46 283Z" fill="#14A3A3" />
</svg>
