<svg width="190" height="38" viewBox="0 0 190 38" fill="none" xmlns="http://www.w3.org/2000/svg">
<path d="M25.351 0.461203L48.8827 36.896C49.2628 37.4846 48.6532 38.2081 47.9996 37.944C45.3128 36.8581 40.7929 35.0311 38.8803 34.2575C37.8586 33.8445 26.004 29.0508 26.004 29.0508L24.4999 28.4151L22.996 29.0508C22.996 29.0508 11.1414 33.8445 10.1197 34.2575C8.20728 35.031 3.68716 36.8581 1.00038 37.944C0.346831 38.2081 -0.262796 37.4846 0.117326 36.896L23.6488 0.461203C24.0461 -0.153734 24.9539 -0.153734 25.3512 0.461203H25.351ZM17.7243 25.6701L20.282 27.6585L23.7257 23.5944C24.1295 23.1179 24.8701 23.1179 25.2738 23.5944L28.7175 27.6585L31.2753 25.6701C31.6422 25.385 32.1588 25.3854 32.5251 25.6714L35.1265 27.7026L25.383 10.3286C24.9983 9.64256 24.0012 9.64256 23.6166 10.3286L13.8731 27.7026L16.4745 25.6714C16.8408 25.3854 17.3574 25.3848 17.7243 25.6701Z" fill="#FCFEFF"/>
<path d="M66.5 27H61.76L71.12 6H75.71L85.1 27H80.27L73.4 10.59L66.5 27ZM87.1016 27V4.74H91.5416V27H87.1016ZM106.211 14.64H102.131V21.45C102.131 22.17 102.311 22.72 102.671 23.1C103.031 23.48 103.531 23.67 104.171 23.67C104.911 23.67 105.561 23.47 106.121 23.07L107.321 26.22C106.841 26.56 106.271 26.81 105.611 26.97C104.951 27.13 104.271 27.21 103.571 27.21C101.691 27.21 100.231 26.74 99.1911 25.8C98.1711 24.86 97.6611 23.44 97.6611 21.54V14.64H95.1411V11.19H97.6611V7.32H102.131V11.19H106.211V14.64ZM110.07 27V10.89H114.51V27H110.07ZM112.29 8.55C111.45 8.55 110.77 8.31 110.25 7.83C109.75 7.33 109.5 6.73 109.5 6.03C109.5 5.33 109.75 4.73 110.25 4.23C110.77 3.73 111.45 3.48 112.29 3.48C113.13 3.48 113.8 3.72 114.3 4.2C114.82 4.66 115.08 5.24 115.08 5.94C115.08 6.7 114.82 7.33 114.3 7.83C113.8 8.31 113.13 8.55 112.29 8.55ZM128.125 14.64H124.045V21.45C124.045 22.17 124.225 22.72 124.585 23.1C124.945 23.48 125.445 23.67 126.085 23.67C126.825 23.67 127.475 23.47 128.035 23.07L129.235 26.22C128.755 26.56 128.185 26.81 127.525 26.97C126.865 27.13 126.185 27.21 125.485 27.21C123.605 27.21 122.145 26.74 121.105 25.8C120.085 24.86 119.575 23.44 119.575 21.54V14.64H117.055V11.19H119.575V7.32H124.045V11.19H128.125V14.64ZM138.794 27.21C137.774 27.21 136.844 27.07 136.004 26.79C135.164 26.49 134.434 26.05 133.814 25.47C133.214 24.87 132.744 24.12 132.404 23.22C132.064 22.32 131.894 21.25 131.894 20.01V10.89H136.334V19.35C136.334 20.73 136.624 21.75 137.204 22.41C137.804 23.05 138.644 23.37 139.724 23.37C140.864 23.37 141.794 23.01 142.514 22.29C143.254 21.55 143.624 20.42 143.624 18.9V10.89H148.094V27H143.834V25.08C143.214 25.78 142.464 26.31 141.584 26.67C140.724 27.03 139.794 27.21 138.794 27.21ZM160.141 23.55C160.741 23.55 161.301 23.45 161.821 23.25C162.341 23.03 162.791 22.72 163.171 22.32C163.551 21.92 163.851 21.44 164.071 20.88C164.291 20.3 164.401 19.65 164.401 18.93C164.401 17.49 163.991 16.37 163.171 15.57C162.371 14.75 161.361 14.34 160.141 14.34C158.921 14.34 157.901 14.75 157.081 15.57C156.281 16.37 155.881 17.49 155.881 18.93C155.881 19.65 155.991 20.3 156.211 20.88C156.431 21.44 156.731 21.92 157.111 22.32C157.491 22.72 157.941 23.03 158.461 23.25C158.981 23.45 159.541 23.55 160.141 23.55ZM168.781 27H164.551V25.08C163.951 25.8 163.211 26.34 162.331 26.7C161.471 27.04 160.501 27.21 159.421 27.21C158.281 27.21 157.221 27.02 156.241 26.64C155.261 26.24 154.401 25.68 153.661 24.96C152.941 24.24 152.371 23.37 151.951 22.35C151.551 21.33 151.351 20.19 151.351 18.93C151.351 17.67 151.551 16.53 151.951 15.51C152.371 14.49 152.941 13.63 153.661 12.93C154.401 12.21 155.261 11.66 156.241 11.28C157.221 10.88 158.281 10.68 159.421 10.68C160.441 10.68 161.361 10.84 162.181 11.16C163.001 11.48 163.721 11.98 164.341 12.66V4.74H168.781V27ZM184.693 17.55C184.533 16.49 184.083 15.65 183.343 15.03C182.623 14.39 181.703 14.07 180.583 14.07C179.483 14.07 178.563 14.39 177.823 15.03C177.103 15.65 176.663 16.49 176.503 17.55H184.693ZM181.153 27.21C179.773 27.21 178.523 27.01 177.403 26.61C176.303 26.19 175.353 25.62 174.553 24.9C173.753 24.16 173.133 23.28 172.693 22.26C172.273 21.24 172.063 20.13 172.063 18.93C172.063 17.73 172.273 16.63 172.693 15.63C173.133 14.61 173.733 13.74 174.493 13.02C175.253 12.28 176.153 11.71 177.193 11.31C178.233 10.89 179.363 10.68 180.583 10.68C181.763 10.68 182.863 10.87 183.883 11.25C184.903 11.63 185.783 12.18 186.523 12.9C187.263 13.62 187.843 14.5 188.263 15.54C188.683 16.56 188.893 17.72 188.893 19.02C188.893 19.18 188.883 19.38 188.863 19.62C188.863 19.84 188.853 20.04 188.833 20.22H176.533C176.753 21.28 177.283 22.12 178.123 22.74C178.963 23.34 180.023 23.64 181.303 23.64C182.163 23.64 182.923 23.51 183.583 23.25C184.243 22.97 184.853 22.56 185.413 22.02L187.783 24.63C186.283 26.35 184.073 27.21 181.153 27.21Z" fill="#FCFEFF"/>
</svg>
